MontaguSlab-Thin144pt.ufo
<glyph name="parenright" format="2">
  <advance width="510"/>
  <unicode hex="0029"/>
  <outline>
    <contour>
      <point x="324" y="570" type="curve"/>
      <point x="372" y="570" type="line"/>
      <point x="370" y="1026"/>
      <point x="216" y="1341"/>
      <point x="73" y="1560" type="curve"/>
      <point x="26" y="1560" type="line"/>
      <point x="180" y="1321"/>
      <point x="324" y="1013"/>
    </contour>
    <contour>
      <point x="26" y="-420" type="curve"/>
      <point x="73" y="-420" type="line"/>
      <point x="216" y="-201"/>
      <point x="370" y="114"/>
      <point x="372" y="570" type="curve"/>
      <point x="324" y="570" type="line"/>
      <point x="324" y="127"/>
      <point x="180" y="-181"/>
    </contour>
  </outline>
</glyph>
<glyph name="four" format="2">
  <advance width="1213"/>
  <unicode hex="0034"/>
  <outline>
    <contour>
      <point x="422" y="0" type="line"/>
      <point x="1068" y="0" type="line"/>
      <point x="1068" y="36" type="line"/>
      <point x="838" y="36" type="line"/>
      <point x="838" y="1500" type="line"/>
      <point x="794" y="1500" type="line"/>
      <point x="790" y="1458" type="line"/>
      <point x="790" y="36" type="line"/>
      <point x="422" y="36" type="line"/>
    </contour>
    <contour>
      <point x="20" y="490" type="line"/>
      <point x="1180" y="490" type="line"/>
      <point x="1180" y="528" type="line"/>
      <point x="50" y="528" type="line"/>
      <point x="20" y="524" type="line"/>
    </contour>
    <contour>
      <point x="20" y="524" type="line"/>
      <point x="69" y="524" type="line"/>
      <point x="795" y="1440" type="line"/>
      <point x="794" y="1500" type="line"/>
    </contour>
  </outline>
</glyph>
<glyph name="seven" format="2">
  <advance width="1194"/>
  <unicode hex="0037"/>
  <outline>
    <contour>
      <point x="470" y="0" type="curve"/>
      <point x="518" y="0" type="line"/>
      <point x="550" y="681"/>
      <point x="837" y="1080"/>
      <point x="1138" y="1466" type="curve"/>
      <point x="1082" y="1462" type="line"/>
      <point x="820" y="1127"/>
      <point x="500" y="704"/>
    </contour>
    <contour>
      <point x="98" y="1120" type="line"/>
      <point x="138" y="1120" type="line"/>
      <point x="138" y="1322" type="line" smooth="yes"/>
      <point x="138" y="1434"/>
      <point x="158" y="1462"/>
      <point x="270" y="1462" type="curve" smooth="yes"/>
      <point x="98" y="1462" type="line"/>
    </contour>
    <contour>
      <point x="98" y="1462" type="line"/>
      <point x="1082" y="1462" type="line"/>
      <point x="1138" y="1466" type="line"/>
      <point x="1138" y="1500" type="line"/>
      <point x="98" y="1500" type="line"/>
    </contour>
  </outline>
</glyph>
<glyph name="nine" format="2">
  <advance width="1236"/>
  <unicode hex="0039"/>
  <outline>
    <contour>
      <point x="1114" y="829" type="curve"/>
      <point x="1061" y="1023" type="line"/>
      <point x="1117" y="285"/>
      <point x="852" y="22"/>
      <point x="553" y="22" type="curve" smooth="yes"/>
      <point x="373" y="22"/>
      <point x="201" y="105"/>
      <point x="204" y="319" type="curve"/>
      <point x="187" y="303" type="line"/>
      <point x="238" y="296"/>
      <point x="290" y="321"/>
      <point x="290" y="365" type="curve" smooth="yes"/>
      <point x="290" y="399"/>
      <point x="270" y="420"/>
      <point x="236" y="420" type="curve" smooth="yes"/>
      <point x="192" y="420"/>
      <point x="159" y="383"/>
      <point x="159" y="318" type="curve" smooth="yes"/>
      <point x="159" y="93"/>
      <point x="329" y="-16"/>
      <point x="555" y="-16" type="curve" smooth="yes"/>
      <point x="882" y="-16"/>
      <point x="1114" y="247"/>
    </contour>
    <contour>
      <point x="592" y="1516" type="curve" smooth="yes"/>
      <point x="315" y="1516"/>
      <point x="116" y="1336"/>
      <point x="116" y="1040" type="curve" smooth="yes"/>
      <point x="116" y="744"/>
      <point x="315" y="564"/>
      <point x="592" y="564" type="curve" smooth="yes"/>
      <point x="880" y="564"/>
      <point x="1047" y="747"/>
      <point x="1061" y="1023" type="curve"/>
      <point x="1114" y="829" type="line"/>
      <point x="1114" y="1275"/>
      <point x="930" y="1516"/>
    </contour>
    <contour>
      <point x="592" y="1478" type="curve" smooth="yes"/>
      <point x="842" y="1478"/>
      <point x="1020" y="1315"/>
      <point x="1020" y="1040" type="curve" smooth="yes"/>
      <point x="1020" y="765"/>
      <point x="842" y="602"/>
      <point x="592" y="602" type="curve" smooth="yes"/>
      <point x="342" y="602"/>
      <point x="164" y="765"/>
      <point x="164" y="1040" type="curve" smooth="yes"/>
      <point x="164" y="1315"/>
      <point x="342" y="1478"/>
    </contour>
  </outline>
</glyph>
<glyph name="equal" format="2">
  <advance width="1142"/>
  <unicode hex="003D"/>
  <outline>
    <contour>
      <point x="120" y="942" type="line"/>
      <point x="1022" y="942" type="line"/>
      <point x="1022" y="982" type="line"/>
      <point x="120" y="982" type="line"/>
    </contour>
    <contour>
      <point x="120" y="522" type="line"/>
      <point x="1022" y="522" type="line"/>
      <point x="1022" y="562" type="line"/>
      <point x="120" y="562" type="line"/>
    </contour>
  </outline>
</glyph>
<glyph name="F" format="2">
  <advance width="1373"/>
  <unicode hex="0046"/>
  <outline>
    <contour>
      <point x="46" y="0" type="line"/>
      <point x="784" y="0" type="line"/>
      <point x="784" y="36" type="line"/>
      <point x="347" y="36" type="line"/>
      <point x="347" y="1500" type="line"/>
      <point x="51" y="1500" type="line"/>
      <point x="51" y="1464" type="line"/>
      <point x="299" y="1464" type="line"/>
      <point x="299" y="36" type="line"/>
      <point x="46" y="36" type="line"/>
    </contour>
    <contour>
      <point x="869" y="630" type="curve" smooth="yes"/>
      <point x="869" y="330" type="line"/>
      <point x="907" y="330" type="line"/>
      <point x="907" y="752" type="line"/>
      <point x="751" y="752" type="line" smooth="yes"/>
      <point x="845" y="752"/>
      <point x="869" y="728"/>
    </contour>
    <contour>
      <point x="347" y="752" type="line"/>
      <point x="907" y="752" type="line"/>
      <point x="907" y="790" type="line"/>
      <point x="347" y="790" type="line"/>
    </contour>
    <contour>
      <point x="751" y="790" type="curve" smooth="yes"/>
      <point x="907" y="790" type="line"/>
      <point x="907" y="1202" type="line"/>
      <point x="869" y="1202" type="line"/>
      <point x="869" y="912" type="line" smooth="yes"/>
      <point x="869" y="814"/>
      <point x="845" y="790"/>
    </contour>
    <contour>
      <point x="347" y="1462" type="line"/>
      <point x="1267" y="1462" type="line"/>
      <point x="1267" y="1500" type="line"/>
      <point x="347" y="1500" type="line"/>
    </contour>
    <contour>
      <point x="1227" y="1332" type="curve" smooth="yes"/>
      <point x="1227" y="940" type="line"/>
      <point x="1267" y="940" type="line"/>
      <point x="1267" y="1462" type="line"/>
      <point x="1101" y="1462" type="line" smooth="yes"/>
      <point x="1201" y="1462"/>
      <point x="1227" y="1436"/>
    </contour>
  </outline>
</glyph>
<glyph name="I" format="2">
  <advance width="684"/>
  <unicode hex="0049"/>
  <anchor x="342" y="0" name="bottom"/>
  <anchor x="471" y="0" name="ogonek"/>
  <anchor x="342" y="1500" name="top"/>
  <anchor x="20" y="1500" name="topleft"/>
  <outline>
    <contour>
      <point x="42" y="0" type="line"/>
      <point x="642" y="0" type="line"/>
      <point x="642" y="36" type="line"/>
      <point x="366" y="36" type="line"/>
      <point x="366" y="1464" type="line"/>
      <point x="637" y="1464" type="line"/>
      <point x="637" y="1500" type="line"/>
      <point x="47" y="1500" type="line"/>
      <point x="47" y="1464" type="line"/>
      <point x="318" y="1464" type="line"/>
      <point x="318" y="36" type="line"/>
      <point x="42" y="36" type="line"/>
    </contour>
  </outline>
</glyph>
<glyph name="J" format="2">
  <advance width="1196"/>
  <unicode hex="004A"/>
  <anchor x="598" y="0" name="bottom"/>
  <anchor x="802" y="1500" name="top"/>
  <outline>
    <contour>
      <point x="512" y="-16" type="curve" smooth="yes"/>
      <point x="758" y="-16"/>
      <point x="918" y="123"/>
      <point x="918" y="430" type="curve" smooth="yes"/>
      <point x="918" y="1464" type="line"/>
      <point x="1166" y="1464" type="line"/>
      <point x="1166" y="1500" type="line"/>
      <point x="438" y="1500" type="line"/>
      <point x="438" y="1464" type="line"/>
      <point x="870" y="1464" type="line"/>
      <point x="870" y="426" type="line" smooth="yes"/>
      <point x="870" y="159"/>
      <point x="732" y="22"/>
      <point x="508" y="22" type="curve" smooth="yes"/>
      <point x="284" y="22"/>
      <point x="146" y="159"/>
      <point x="146" y="426" type="curve" smooth="yes"/>
      <point x="146" y="590" type="line"/>
      <point x="106" y="590" type="line"/>
      <point x="106" y="422" type="line" smooth="yes"/>
      <point x="106" y="124"/>
      <point x="266" y="-16"/>
    </contour>
  </outline>
</glyph>
<glyph name="K" format="2">
  <advance width="1629"/>
  <unicode hex="004B"/>
  <anchor x="815" y="0" name="bottom"/>
  <anchor x="815" y="1500" name="top"/>
  <outline>
    <contour>
      <point x="338" y="584" type="line"/>
      <point x="1334" y="1464" type="line"/>
      <point x="1499" y="1464" type="line"/>
      <point x="1499" y="1500" type="line"/>
      <point x="979" y="1500" type="line"/>
      <point x="979" y="1464" type="line"/>
      <point x="1273" y="1464" type="line"/>
      <point x="313" y="613" type="line"/>
    </contour>
    <contour>
      <point x="46" y="0" type="line"/>
      <point x="623" y="0" type="line"/>
      <point x="623" y="36" type="line"/>
      <point x="347" y="36" type="line"/>
      <point x="347" y="1464" type="line"/>
      <point x="618" y="1464" type="line"/>
      <point x="618" y="1500" type="line"/>
      <point x="51" y="1500" type="line"/>
      <point x="51" y="1464" type="line"/>
      <point x="299" y="1464" type="line"/>
      <point x="299" y="36" type="line"/>
      <point x="46" y="36" type="line"/>
    </contour>
    <contour>
      <point x="1032" y="0" type="line"/>
      <point x="1571" y="0" type="line"/>
      <point x="1571" y="36" type="line"/>
      <point x="1400" y="36" type="line"/>
      <point x="603" y="848" type="line"/>
      <point x="573" y="816" type="line"/>
      <point x="1335" y="36" type="line"/>
      <point x="1032" y="36" type="line"/>
    </contour>
  </outline>
</glyph>
<glyph name="L" format="2">
  <advance width="1393"/>
  <unicode hex="004C"/>
  <anchor x="697" y="0" name="bottom"/>
  <anchor x="323" y="1200" name="center"/>
  <anchor x="321" y="1500" name="top"/>
  <anchor x="697" y="1500" name="topright"/>
  <outline>
    <contour>
      <point x="46" y="0" type="line"/>
      <point x="347" y="0" type="line"/>
      <point x="347" y="1464" type="line"/>
      <point x="779" y="1464" type="line"/>
      <point x="779" y="1500" type="line"/>
      <point x="51" y="1500" type="line"/>
      <point x="51" y="1464" type="line"/>
      <point x="299" y="1464" type="line"/>
      <point x="299" y="36" type="line"/>
      <point x="46" y="36" type="line"/>
    </contour>
    <contour>
      <point x="347" y="0" type="line"/>
      <point x="1281" y="0" type="line"/>
      <point x="1281" y="38" type="line"/>
      <point x="347" y="38" type="line"/>
    </contour>
    <contour>
      <point x="1115" y="38" type="curve" smooth="yes"/>
      <point x="1281" y="38" type="line"/>
      <point x="1281" y="580" type="line"/>
      <point x="1241" y="580" type="line"/>
      <point x="1241" y="168" type="line" smooth="yes"/>
      <point x="1241" y="64"/>
      <point x="1215" y="38"/>
    </contour>
  </outline>
</glyph>
<glyph name="M" format="2">
  <advance width="2044"/>
  <unicode hex="004D"/>
  <anchor x="1020" y="0" name="bottom"/>
  <anchor x="1022" y="1500" name="top"/>
  <outline>
    <contour>
      <point x="1000" y="0" type="line"/>
      <point x="1036" y="0" type="line"/>
      <point x="1697" y="1430" type="line"/>
      <point x="1697" y="1500" type="line"/>
      <point x="1685" y="1500" type="line"/>
      <point x="1016" y="52" type="line"/>
      <point x="1029" y="52" type="line"/>
      <point x="363" y="1500" type="line"/>
      <point x="339" y="1500" type="line"/>
      <point x="339" y="1438" type="line"/>
    </contour>
    <contour>
      <point x="46" y="0" type="line"/>
      <point x="615" y="0" type="line"/>
      <point x="615" y="36" type="line"/>
      <point x="339" y="36" type="line"/>
      <point x="339" y="1500" type="line"/>
      <point x="51" y="1500" type="line"/>
      <point x="51" y="1464" type="line"/>
      <point x="299" y="1464" type="line"/>
      <point x="299" y="36" type="line"/>
      <point x="46" y="36" type="line"/>
    </contour>
    <contour>
      <point x="1421" y="0" type="line"/>
      <point x="1998" y="0" type="line"/>
      <point x="1998" y="36" type="line"/>
      <point x="1745" y="36" type="line"/>
      <point x="1745" y="1464" type="line"/>
      <point x="1993" y="1464" type="line"/>
      <point x="1993" y="1500" type="line"/>
      <point x="1697" y="1500" type="line"/>
      <point x="1697" y="36" type="line"/>
      <point x="1421" y="36" type="line"/>
    </contour>
  </outline>
</glyph>
<glyph name="N" format="2">
  <advance width="1703"/>
  <unicode hex="004E"/>
  <anchor x="852" y="0" name="bottom"/>
  <anchor x="868" y="1500" name="top"/>
  <outline>
    <contour>
      <point x="1381" y="0" type="line"/>
      <point x="1385" y="76" type="line"/>
      <point x="343" y="1500" type="line"/>
      <point x="339" y="1424" type="line"/>
    </contour>
    <contour>
      <point x="46" y="0" type="line"/>
      <point x="615" y="0" type="line"/>
      <point x="615" y="36" type="line"/>
      <point x="339" y="36" type="line"/>
      <point x="339" y="1424" type="line"/>
      <point x="343" y="1500" type="line"/>
      <point x="51" y="1500" type="line"/>
      <point x="51" y="1464" type="line"/>
      <point x="299" y="1464" type="line"/>
      <point x="299" y="36" type="line"/>
      <point x="46" y="36" type="line"/>
    </contour>
    <contour>
      <point x="1381" y="0" type="line"/>
      <point x="1425" y="0" type="line"/>
      <point x="1425" y="1464" type="line"/>
      <point x="1673" y="1464" type="line"/>
      <point x="1673" y="1500" type="line"/>
      <point x="1114" y="1500" type="line"/>
      <point x="1114" y="1464" type="line"/>
      <point x="1385" y="1464" type="line"/>
      <point x="1385" y="76" type="line"/>
      <point x="1375" y="76" type="line"/>
    </contour>
  </outline>
</glyph>
<glyph name="P" format="2">
  <advance width="1433"/>
  <unicode hex="0050"/>
  <anchor x="717" y="0" name="bottom"/>
  <anchor x="717" y="1500" name="top"/>
  <outline>
    <contour>
      <point x="46" y="0" type="line"/>
      <point x="784" y="0" type="line"/>
      <point x="784" y="36" type="line"/>
      <point x="347" y="36" type="line"/>
      <point x="347" y="1500" type="line"/>
      <point x="51" y="1500" type="line"/>
      <point x="51" y="1464" type="line"/>
      <point x="299" y="1464" type="line"/>
      <point x="299" y="36" type="line"/>
      <point x="46" y="36" type="line"/>
    </contour>
    <contour>
      <point x="347" y="682" type="line"/>
      <point x="865" y="682" type="line" smooth="yes"/>
      <point x="1147" y="682"/>
      <point x="1335" y="820"/>
      <point x="1335" y="1091" type="curve" smooth="yes"/>
      <point x="1335" y="1362"/>
      <point x="1147" y="1500"/>
      <point x="865" y="1500" type="curve" smooth="yes"/>
      <point x="347" y="1500" type="line"/>
      <point x="347" y="1462" type="line"/>
      <point x="853" y="1462" type="line" smooth="yes"/>
      <point x="1119" y="1462"/>
      <point x="1287" y="1337"/>
      <point x="1287" y="1091" type="curve" smooth="yes"/>
      <point x="1287" y="845"/>
      <point x="1119" y="720"/>
      <point x="853" y="720" type="curve" smooth="yes"/>
      <point x="347" y="720" type="line"/>
    </contour>
  </outline>
</glyph>
<glyph name="V" format="2">
  <advance width="1646"/>
  <unicode hex="0056"/>
  <anchor x="823" y="0" name="bottom"/>
  <anchor x="823" y="1500" name="top"/>
  <outline>
    <contour>
      <point x="805" y="0" type="line"/>
      <point x="841" y="0" type="line"/>
      <point x="1438" y="1464" type="line"/>
      <point x="1617" y="1464" type="line"/>
      <point x="1617" y="1500" type="line"/>
      <point x="1109" y="1500" type="line"/>
      <point x="1109" y="1464" type="line"/>
      <point x="1395" y="1464" type="line"/>
      <point x="819" y="47" type="line"/>
      <point x="836" y="47" type="line"/>
      <point x="260" y="1464" type="line"/>
      <point x="546" y="1464" type="line"/>
      <point x="546" y="1500" type="line"/>
      <point x="29" y="1500" type="line"/>
      <point x="29" y="1464" type="line"/>
      <point x="208" y="1464" type="line"/>
    </contour>
  </outline>
</glyph>
<glyph name="X" format="2">
  <advance width="1657"/>
  <unicode hex="0058"/>
  <anchor x="829" y="0" name="bottom"/>
  <anchor x="829" y="1500" name="top"/>
  <outline>
    <contour>
      <point x="58" y="0" type="line"/>
      <point x="585" y="0" type="line"/>
      <point x="585" y="36" type="line"/>
      <point x="278" y="36" type="line"/>
      <point x="842" y="755" type="line"/>
      <point x="808" y="755" type="line"/>
      <point x="1371" y="36" type="line"/>
      <point x="1064" y="36" type="line"/>
      <point x="1064" y="0" type="line"/>
      <point x="1599" y="0" type="line"/>
      <point x="1599" y="36" type="line"/>
      <point x="1432" y="36" type="line"/>
      <point x="838" y="794" type="line"/>
      <point x="819" y="794" type="line"/>
      <point x="225" y="36" type="line"/>
      <point x="58" y="36" type="line"/>
    </contour>
    <contour>
      <point x="819" y="738" type="line"/>
      <point x="838" y="738" type="line"/>
      <point x="1407" y="1464" type="line"/>
      <point x="1570" y="1464" type="line"/>
      <point x="1570" y="1500" type="line"/>
      <point x="1052" y="1500" type="line"/>
      <point x="1052" y="1464" type="line"/>
      <point x="1354" y="1464" type="line"/>
      <point x="815" y="777" type="line"/>
      <point x="849" y="777" type="line"/>
      <point x="311" y="1464" type="line"/>
      <point x="613" y="1464" type="line"/>
      <point x="613" y="1500" type="line"/>
      <point x="87" y="1500" type="line"/>
      <point x="87" y="1464" type="line"/>
      <point x="250" y="1464" type="line"/>
    </contour>
  </outline>
</glyph>
<glyph name="bracketleft" format="2">
  <advance width="680"/>
  <unicode hex="005B"/>
  <outline>
    <contour>
      <point x="218" y="-420" type="line"/>
      <point x="266" y="-420" type="line"/>
      <point x="266" y="1560" type="line"/>
      <point x="218" y="1560" type="line"/>
    </contour>
    <contour>
      <point x="218" y="-420" type="line"/>
      <point x="636" y="-420" type="line"/>
      <point x="636" y="-384" type="line"/>
      <point x="218" y="-384" type="line"/>
    </contour>
    <contour>
      <point x="218" y="1524" type="line"/>
      <point x="636" y="1524" type="line"/>
      <point x="636" y="1560" type="line"/>
      <point x="218" y="1560" type="line"/>
    </contour>
  </outline>
</glyph>
<glyph name="backslash" format="2">
  <advance width="496"/>
  <unicode hex="005C"/>
  <outline>
    <contour>
      <point x="464" y="0" type="line"/>
      <point x="73" y="1500" type="line"/>
      <point x="32" y="1500" type="line"/>
      <point x="423" y="0" type="line"/>
    </contour>
  </outline>
</glyph>
<glyph name="bracketright" format="2">
  <advance width="680"/>
  <unicode hex="005D"/>
  <outline>
    <contour>
      <point x="462" y="-420" type="line"/>
      <point x="462" y="1560" type="line"/>
      <point x="414" y="1560" type="line"/>
      <point x="414" y="-420" type="line"/>
    </contour>
    <contour>
      <point x="462" y="-420" type="line"/>
      <point x="462" y="-384" type="line"/>
      <point x="44" y="-384" type="line"/>
      <point x="44" y="-420" type="line"/>
    </contour>
    <contour>
      <point x="462" y="1524" type="line"/>
      <point x="462" y="1560" type="line"/>
      <point x="44" y="1560" type="line"/>
      <point x="44" y="1524" type="line"/>
    </contour>
  </outline>
</glyph>
<glyph name="underscore" format="2">
  <advance width="1370"/>
  <unicode hex="005F"/>
  <outline>
    <contour>
      <point x="120" y="-160" type="line"/>
      <point x="1250" y="-160" type="line"/>
      <point x="1250" y="-120" type="line"/>
      <point x="120" y="-120" type="line"/>
    </contour>
  </outline>
</glyph>
<glyph name="grave" format="2">
  <advance width="443"/>
  <unicode hex="0060"/>
  <anchor x="311" y="1080" name="_top"/>
  <outline>
    <contour>
      <point x="316" y="1230" type="line"/>
      <point x="363" y="1230" type="line"/>
      <point x="136" y="1540" type="line"/>
      <point x="80" y="1540" type="line"/>
    </contour>
  </outline>
</glyph>
<glyph name="f" format="2">
  <advance width="908"/>
  <unicode hex="0066"/>
  <anchor x="441" y="0" name="bottom"/>
  <anchor x="441" y="1500" name="top"/>
  <outline>
    <contour>
      <point x="126" y="0" type="line"/>
      <point x="772" y="0" type="line"/>
      <point x="772" y="36" type="line"/>
      <point x="404" y="36" type="line"/>
      <point x="404" y="1116" type="line"/>
      <point x="356" y="1112" type="line"/>
      <point x="356" y="36" type="line"/>
      <point x="126" y="36" type="line"/>
    </contour>
    <contour>
      <point x="56" y="1042" type="line"/>
      <point x="804" y="1042" type="line"/>
      <point x="804" y="1080" type="line"/>
      <point x="56" y="1080" type="line"/>
    </contour>
    <contour>
      <point x="356" y="1112" type="curve"/>
      <point x="404" y="1116" type="line"/>
      <point x="404" y="1359"/>
      <point x="514" y="1478"/>
      <point x="714" y="1478" type="curve"/>
      <point x="714" y="1516" type="line"/>
      <point x="484" y="1516"/>
      <point x="356" y="1378"/>
    </contour>
    <contour>
      <point x="896" y="1195" type="curve" smooth="yes"/>
      <point x="940" y="1195"/>
      <point x="970" y="1232"/>
      <point x="970" y="1289" type="curve" smooth="yes"/>
      <point x="970" y="1443"/>
      <point x="858" y="1516"/>
      <point x="714" y="1516" type="curve"/>
      <point x="714" y="1478" type="line"/>
      <point x="843" y="1478"/>
      <point x="929" y="1413"/>
      <point x="925" y="1293" type="curve"/>
      <point x="944" y="1309" type="line"/>
      <point x="884" y="1315"/>
      <point x="840" y="1294"/>
      <point x="840" y="1248" type="curve" smooth="yes"/>
      <point x="840" y="1216"/>
      <point x="864" y="1195"/>
    </contour>
  </outline>
</glyph>
<glyph name="j" format="2">
  <advance width="534"/>
  <unicode hex="006A"/>
  <anchor x="267" y="-440" name="bottom"/>
  <anchor x="296" y="1442" name="top"/>
  <outline>
    <contour>
      <point x="278" y="-110" type="line"/>
      <point x="326" y="-106" type="line"/>
      <point x="326" y="1080" type="line"/>
      <point x="71" y="1080" type="line"/>
      <point x="71" y="1044" type="line"/>
      <point x="278" y="1044" type="line"/>
    </contour>
    <contour>
      <point x="68" y="-420" type="curve"/>
      <point x="68" y="-382" type="line"/>
      <point x="-44" y="-382"/>
      <point x="-110" y="-318"/>
      <point x="-109" y="-216" type="curve"/>
      <point x="-128" y="-231" type="line"/>
      <point x="-70" y="-236"/>
      <point x="-24" y="-218"/>
      <point x="-24" y="-171" type="curve" smooth="yes"/>
      <point x="-24" y="-139"/>
      <point x="-46" y="-119"/>
      <point x="-78" y="-119" type="curve" smooth="yes"/>
      <point x="-121" y="-119"/>
      <point x="-154" y="-154"/>
      <point x="-154" y="-211" type="curve" smooth="yes"/>
      <point x="-154" y="-351"/>
      <point x="-61" y="-420"/>
    </contour>
    <contour>
      <point x="68" y="-382" type="curve"/>
      <point x="68" y="-420" type="line"/>
      <point x="238" y="-420"/>
      <point x="326" y="-313"/>
      <point x="326" y="-106" type="curve"/>
      <point x="278" y="-110" type="line"/>
      <point x="278" y="-292"/>
      <point x="203" y="-382"/>
    </contour>
    <contour>
      <point x="296" y="1302" type="curve" smooth="yes"/>
      <point x="332" y="1302"/>
      <point x="355" y="1328"/>
      <point x="355" y="1364" type="curve" smooth="yes"/>
      <point x="355" y="1400"/>
      <point x="332" y="1426"/>
      <point x="296" y="1426" type="curve" smooth="yes"/>
      <point x="260" y="1426"/>
      <point x="237" y="1400"/>
      <point x="237" y="1364" type="curve" smooth="yes"/>
      <point x="237" y="1328"/>
      <point x="260" y="1302"/>
    </contour>
  </outline>
</glyph>
<glyph name="k" format="2">
  <advance width="1252"/>
  <unicode hex="006B"/>
  <anchor x="626" y="0" name="bottom"/>
  <anchor x="626" y="1500" name="top"/>
  <outline>
    <contour>
      <point x="24" y="0" type="line"/>
      <point x="509" y="0" type="line"/>
      <point x="509" y="36" type="line"/>
      <point x="302" y="36" type="line"/>
      <point x="302" y="1500" type="line"/>
      <point x="47" y="1500" type="line"/>
      <point x="47" y="1464" type="line"/>
      <point x="254" y="1464" type="line"/>
      <point x="254" y="36" type="line"/>
      <point x="24" y="36" type="line"/>
    </contour>
    <contour>
      <point x="755" y="0" type="line"/>
      <point x="1210" y="0" type="line"/>
      <point x="1210" y="36" type="line"/>
      <point x="1077" y="36" type="line"/>
      <point x="541" y="646" type="line"/>
      <point x="508" y="614" type="line"/>
      <point x="1014" y="36" type="line"/>
      <point x="755" y="36" type="line"/>
    </contour>
    <contour>
      <point x="290" y="392" type="line"/>
      <point x="1031" y="1044" type="line"/>
      <point x="1160" y="1044" type="line"/>
      <point x="1160" y="1080" type="line"/>
      <point x="724" y="1080" type="line"/>
      <point x="724" y="1044" type="line"/>
      <point x="968" y="1044" type="line"/>
      <point x="268" y="426" type="line"/>
    </contour>
  </outline>
</glyph>
<glyph name="l" format="2">
  <advance width="535"/>
  <unicode hex="006C"/>
  <anchor x="271" y="0" name="bottom"/>
  <anchor x="278" y="1080" name="center"/>
  <anchor x="258" y="1500" name="top"/>
  <anchor x="302" y="1500" name="topright"/>
  <outline>
    <contour>
      <point x="24" y="0" type="line"/>
      <point x="509" y="0" type="line"/>
      <point x="509" y="36" type="line"/>
      <point x="302" y="36" type="line"/>
      <point x="302" y="1500" type="line"/>
      <point x="47" y="1500" type="line"/>
      <point x="47" y="1464" type="line"/>
      <point x="254" y="1464" type="line"/>
      <point x="254" y="36" type="line"/>
      <point x="24" y="36" type="line"/>
    </contour>
  </outline>
</glyph>
<glyph name="p" format="2">
  <advance width="1312"/>
  <unicode hex="0070"/>
  <anchor x="661" y="0" name="bottom"/>
  <anchor x="661" y="1080" name="top"/>
  <outline>
    <contour>
      <point x="730" y="-16" type="curve" smooth="yes"/>
      <point x="1004" y="-16"/>
      <point x="1202" y="194"/>
      <point x="1202" y="540" type="curve" smooth="yes"/>
      <point x="1202" y="886"/>
      <point x="1004" y="1096"/>
      <point x="730" y="1096" type="curve" smooth="yes"/>
      <point x="437" y="1096"/>
      <point x="272" y="887"/>
      <point x="272" y="541" type="curve" smooth="yes"/>
      <point x="272" y="539" type="line" smooth="yes"/>
      <point x="272" y="193"/>
      <point x="436" y="-16"/>
    </contour>
    <contour>
      <point x="730" y="22" type="curve" smooth="yes"/>
      <point x="478" y="22"/>
      <point x="298" y="215"/>
      <point x="298" y="540" type="curve" smooth="yes"/>
      <point x="298" y="865"/>
      <point x="478" y="1058"/>
      <point x="730" y="1058" type="curve" smooth="yes"/>
      <point x="978" y="1058"/>
      <point x="1154" y="865"/>
      <point x="1154" y="540" type="curve" smooth="yes"/>
      <point x="1154" y="215"/>
      <point x="978" y="22"/>
    </contour>
    <contour>
      <point x="24" y="-420" type="line"/>
      <point x="670" y="-420" type="line"/>
      <point x="670" y="-384" type="line"/>
      <point x="302" y="-384" type="line"/>
      <point x="302" y="324" type="line"/>
      <point x="286" y="540" type="line"/>
      <point x="298" y="736" type="line"/>
      <point x="298" y="1080" type="line"/>
      <point x="47" y="1080" type="line"/>
      <point x="47" y="1044" type="line"/>
      <point x="254" y="1044" type="line"/>
      <point x="254" y="-384" type="line"/>
      <point x="24" y="-384" type="line"/>
    </contour>
  </outline>
</glyph>
<glyph name="q" format="2">
  <advance width="1271"/>
  <unicode hex="0071"/>
  <anchor x="631" y="0" name="bottom"/>
  <anchor x="631" y="1080" name="top"/>
  <outline>
    <contour>
      <point x="582" y="-16" type="curve" smooth="yes"/>
      <point x="876" y="-16"/>
      <point x="1040" y="193"/>
      <point x="1040" y="539" type="curve" smooth="yes"/>
      <point x="1040" y="541" type="line" smooth="yes"/>
      <point x="1040" y="887"/>
      <point x="875" y="1096"/>
      <point x="582" y="1096" type="curve" smooth="yes"/>
      <point x="308" y="1096"/>
      <point x="110" y="886"/>
      <point x="110" y="540" type="curve" smooth="yes"/>
      <point x="110" y="194"/>
      <point x="308" y="-16"/>
    </contour>
    <contour>
      <point x="582" y="22" type="curve" smooth="yes"/>
      <point x="334" y="22"/>
      <point x="158" y="215"/>
      <point x="158" y="540" type="curve" smooth="yes"/>
      <point x="158" y="865"/>
      <point x="334" y="1058"/>
      <point x="582" y="1058" type="curve" smooth="yes"/>
      <point x="834" y="1058"/>
      <point x="1014" y="865"/>
      <point x="1014" y="540" type="curve" smooth="yes"/>
      <point x="1014" y="215"/>
      <point x="834" y="22"/>
    </contour>
    <contour>
      <point x="642" y="-420" type="line"/>
      <point x="1265" y="-420" type="line"/>
      <point x="1265" y="-384" type="line"/>
      <point x="1058" y="-384" type="line"/>
      <point x="1058" y="1080" type="line"/>
      <point x="1014" y="1080" type="line"/>
      <point x="1014" y="740" type="line"/>
      <point x="1026" y="540" type="line"/>
      <point x="1010" y="324" type="line"/>
      <point x="1010" y="-384" type="line"/>
      <point x="642" y="-384" type="line"/>
    </contour>
  </outline>
</glyph>
<glyph name="v" format="2">
  <advance width="1158"/>
  <unicode hex="0076"/>
  <anchor x="579" y="0" name="bottom"/>
  <anchor x="579" y="1080" name="top"/>
  <outline>
    <contour>
      <point x="559" y="0" type="line"/>
      <point x="599" y="0" type="line"/>
      <point x="1000" y="1044" type="line"/>
      <point x="1146" y="1044" type="line"/>
      <point x="1146" y="1080" type="line"/>
      <point x="712" y="1080" type="line"/>
      <point x="712" y="1044" type="line"/>
      <point x="957" y="1044" type="line"/>
      <point x="576" y="45" type="line"/>
      <point x="591" y="45" type="line"/>
      <point x="209" y="1044" type="line"/>
      <point x="454" y="1044" type="line"/>
      <point x="454" y="1080" type="line"/>
      <point x="12" y="1080" type="line"/>
      <point x="12" y="1044" type="line"/>
      <point x="158" y="1044" type="line"/>
    </contour>
  </outline>
</glyph>
<glyph name="w" format="2">
  <advance width="1556"/>
  <unicode hex="0077"/>
  <anchor x="778" y="0" name="bottom"/>
  <anchor x="778" y="1080" name="top"/>
  <outline>
    <contour>
      <point x="1037" y="0" type="line"/>
      <point x="1079" y="0" type="line"/>
      <point x="1400" y="1044" type="line"/>
      <point x="1544" y="1044" type="line"/>
      <point x="1544" y="1080" type="line"/>
      <point x="1111" y="1080" type="line"/>
      <point x="1111" y="1044" type="line"/>
      <point x="1358" y="1044" type="line"/>
      <point x="1054" y="49" type="line"/>
      <point x="1070" y="49" type="line"/>
      <point x="766" y="1044" type="line"/>
      <point x="1013" y="1044" type="line"/>
      <point x="1013" y="1080" type="line"/>
      <point x="572" y="1080" type="line"/>
      <point x="572" y="1044" type="line"/>
      <point x="716" y="1044" type="line"/>
    </contour>
    <contour>
      <point x="477" y="0" type="line"/>
      <point x="519" y="0" type="line"/>
      <point x="794" y="895" type="line"/>
      <point x="773" y="961" type="line"/>
      <point x="494" y="49" type="line"/>
      <point x="510" y="49" type="line"/>
      <point x="206" y="1044" type="line"/>
      <point x="453" y="1044" type="line"/>
      <point x="453" y="1080" type="line"/>
      <point x="12" y="1080" type="line"/>
      <point x="12" y="1044" type="line"/>
      <point x="156" y="1044" type="line"/>
    </contour>
  </outline>
</glyph>
<glyph name="x" format="2">
  <advance width="1221"/>
  <unicode hex="0078"/>
  <anchor x="611" y="0" name="bottom"/>
  <anchor x="611" y="1080" name="top"/>
  <outline>
    <contour>
      <point x="42" y="0" type="line"/>
      <point x="483" y="0" type="line"/>
      <point x="483" y="36" type="line"/>
      <point x="245" y="36" type="line"/>
      <point x="621" y="543" type="line"/>
      <point x="590" y="543" type="line"/>
      <point x="966" y="36" type="line"/>
      <point x="728" y="36" type="line"/>
      <point x="728" y="0" type="line"/>
      <point x="1179" y="0" type="line"/>
      <point x="1179" y="36" type="line"/>
      <point x="1026" y="36" type="line"/>
      <point x="628" y="568" type="line"/>
      <point x="593" y="568" type="line"/>
      <point x="195" y="36" type="line"/>
      <point x="42" y="36" type="line"/>
    </contour>
    <contour>
      <point x="591" y="532" type="line"/>
      <point x="622" y="532" type="line"/>
      <point x="1006" y="1044" type="line"/>
      <point x="1145" y="1044" type="line"/>
      <point x="1145" y="1080" type="line"/>
      <point x="727" y="1080" type="line"/>
      <point x="727" y="1044" type="line"/>
      <point x="956" y="1044" type="line"/>
      <point x="594" y="557" type="line"/>
      <point x="629" y="557" type="line"/>
      <point x="267" y="1044" type="line"/>
      <point x="496" y="1044" type="line"/>
      <point x="496" y="1080" type="line"/>
      <point x="68" y="1080" type="line"/>
      <point x="68" y="1044" type="line"/>
      <point x="207" y="1044" type="line"/>
    </contour>
  </outline>
</glyph>
<glyph name="braceright" format="2">
  <advance width="855"/>
  <unicode hex="007D"/>
  <outline>
    <contour>
      <point x="767" y="588" type="line"/>
      <point x="524" y="588"/>
      <point x="423" y="682"/>
      <point x="435" y="857" type="curve" smooth="yes"/>
      <point x="453" y="1117" type="line" smooth="yes"/>
      <point x="476" y="1445"/>
      <point x="325" y="1560"/>
      <point x="69" y="1560" type="curve" smooth="yes"/>
      <point x="44" y="1560" type="line"/>
      <point x="44" y="1524" type="line"/>
      <point x="304" y="1524"/>
      <point x="424" y="1416"/>
      <point x="405" y="1119" type="curve" smooth="yes"/>
      <point x="389" y="872" type="line" smooth="yes"/>
      <point x="375" y="663"/>
      <point x="492" y="579"/>
      <point x="657" y="570" type="curve"/>
      <point x="767" y="570" type="line"/>
    </contour>
    <contour>
      <point x="69" y="-420" type="line" smooth="yes"/>
      <point x="325" y="-420"/>
      <point x="476" y="-305"/>
      <point x="453" y="23" type="curve" smooth="yes"/>
      <point x="435" y="283" type="line" smooth="yes"/>
      <point x="423" y="458"/>
      <point x="524" y="552"/>
      <point x="767" y="552" type="curve"/>
      <point x="767" y="570" type="line"/>
      <point x="657" y="570" type="line"/>
      <point x="492" y="561"/>
      <point x="375" y="477"/>
      <point x="389" y="268" type="curve" smooth="yes"/>
      <point x="405" y="21" type="line" smooth="yes"/>
      <point x="424" y="-276"/>
      <point x="304" y="-384"/>
      <point x="44" y="-384" type="curve"/>
      <point x="44" y="-420" type="line"/>
    </contour>
  </outline>
</glyph>
<glyph name="exclamdown" format="2">
  <advance width="338"/>
  <unicode hex="00A1"/>
  <outline>
    <contour>
      <point x="189" y="700" type="curve"/>
      <point x="149" y="700" type="line"/>
      <point x="143" y="-209"/>
      <point x="143" y="-315"/>
      <point x="143" y="-401" type="curve" smooth="yes"/>
      <point x="143" y="-423"/>
      <point x="152" y="-436"/>
      <point x="169" y="-436" type="curve" smooth="yes"/>
      <point x="186" y="-436"/>
      <point x="195" y="-423"/>
      <point x="195" y="-401" type="curve" smooth="yes"/>
      <point x="195" y="-315"/>
      <point x="195" y="-209"/>
    </contour>
    <contour>
      <point x="169" y="1096" type="curve" smooth="yes"/>
      <point x="133" y="1096"/>
      <point x="110" y="1070"/>
      <point x="110" y="1034" type="curve" smooth="yes"/>
      <point x="110" y="998"/>
      <point x="133" y="972"/>
      <point x="169" y="972" type="curve" smooth="yes"/>
      <point x="205" y="972"/>
      <point x="228" y="998"/>
      <point x="228" y="1034" type="curve" smooth="yes"/>
      <point x="228" y="1070"/>
      <point x="205" y="1096"/>
    </contour>
  </outline>
</glyph>
<glyph name="dieresis" format="2">
  <advance width="656"/>
  <unicode hex="00A8"/>
  <anchor x="328" y="1080" name="_top"/>
  <anchor x="328" y="1450" name="top"/>
  <outline>
    <contour>
      <point x="517" y="1302" type="curve" smooth="yes"/>
      <point x="553" y="1302"/>
      <point x="576" y="1328"/>
      <point x="576" y="1364" type="curve" smooth="yes"/>
      <point x="576" y="1400"/>
      <point x="553" y="1426"/>
      <point x="517" y="1426" type="curve" smooth="yes"/>
      <point x="481" y="1426"/>
      <point x="458" y="1400"/>
      <point x="458" y="1364" type="curve" smooth="yes"/>
      <point x="458" y="1328"/>
      <point x="481" y="1302"/>
    </contour>
    <contour>
      <point x="139" y="1302" type="curve" smooth="yes"/>
      <point x="175" y="1302"/>
      <point x="198" y="1328"/>
      <point x="198" y="1364" type="curve" smooth="yes"/>
      <point x="198" y="1400"/>
      <point x="175" y="1426"/>
      <point x="139" y="1426" type="curve" smooth="yes"/>
      <point x="103" y="1426"/>
      <point x="80" y="1400"/>
      <point x="80" y="1364" type="curve" smooth="yes"/>
      <point x="80" y="1328"/>
      <point x="103" y="1302"/>
    </contour>
  </outline>
</glyph>
<glyph name="ordfeminine" format="2">
  <advance width="910"/>
  <unicode hex="00AA"/>
  <outline>
    <contour>
      <point x="210" y="1271" type="curve" smooth="yes"/>
      <point x="233" y="1271"/>
      <point x="248" y="1286"/>
      <point x="248" y="1310" type="curve" smooth="yes"/>
      <point x="248" y="1338"/>
      <point x="216" y="1356"/>
      <point x="182" y="1351" type="curve"/>
      <point x="192" y="1341" type="line"/>
      <point x="189" y="1439"/>
      <point x="293" y="1480"/>
      <point x="406" y="1480" type="curve" smooth="yes"/>
      <point x="534" y="1480"/>
      <point x="592" y="1426"/>
      <point x="592" y="1337" type="curve"/>
      <point x="632" y="1324" type="line"/>
      <point x="632" y="1453"/>
      <point x="551" y="1512"/>
      <point x="409" y="1512" type="curve" smooth="yes"/>
      <point x="277" y="1512"/>
      <point x="156" y="1457"/>
      <point x="156" y="1339" type="curve" smooth="yes"/>
      <point x="156" y="1296"/>
      <point x="180" y="1271"/>
    </contour>
    <contour>
      <point x="713" y="768" type="curve" smooth="yes"/>
      <point x="788" y="768"/>
      <point x="826" y="816"/>
      <point x="826" y="899" type="curve" smooth="yes"/>
      <point x="826" y="1167" type="line"/>
      <point x="794" y="1167" type="line"/>
      <point x="794" y="898" type="line" smooth="yes"/>
      <point x="794" y="841"/>
      <point x="773" y="800"/>
      <point x="715" y="800" type="curve" smooth="yes"/>
      <point x="660" y="800"/>
      <point x="632" y="841"/>
      <point x="632" y="898" type="curve" smooth="yes"/>
      <point x="632" y="1324" type="line"/>
      <point x="592" y="1337" type="line"/>
      <point x="592" y="1294" type="line"/>
      <point x="586" y="1248" type="line"/>
      <point x="592" y="1248" type="line"/>
      <point x="592" y="997" type="line"/>
      <point x="598" y="997" type="line"/>
      <point x="598" y="899" type="line" smooth="yes"/>
      <point x="598" y="816"/>
      <point x="640" y="768"/>
    </contour>
    <contour>
      <point x="331" y="768" type="curve" smooth="yes"/>
      <point x="499" y="768"/>
      <point x="616" y="871"/>
      <point x="615" y="1123" type="curve"/>
      <point x="592" y="1124" type="line"/>
      <point x="592" y="898"/>
      <point x="477" y="800"/>
      <point x="340" y="800" type="curve" smooth="yes"/>
      <point x="236" y="800"/>
      <point x="161" y="860"/>
      <point x="161" y="956" type="curve" smooth="yes"/>
      <point x="161" y="1076"/>
      <point x="247" y="1111"/>
      <point x="339" y="1134" type="curve" smooth="yes"/>
      <point x="438" y="1159" type="line" smooth="yes"/>
      <point x="517" y="1179"/>
      <point x="570" y="1197"/>
      <point x="592" y="1248" type="curve"/>
      <point x="598" y="1248" type="line"/>
      <point x="592" y="1332" type="line"/>
      <point x="592" y="1236"/>
      <point x="527" y="1212"/>
      <point x="431" y="1189" type="curve" smooth="yes"/>
      <point x="328" y="1164" type="line" smooth="yes"/>
      <point x="208" y="1135"/>
      <point x="119" y="1081"/>
      <point x="119" y="954" type="curve" smooth="yes"/>
      <point x="119" y="840"/>
      <point x="203" y="768"/>
    </contour>
  </outline>
</glyph>
<glyph name="guillemetleft" format="2">
  <advance width="852"/>
  <unicode hex="00AB"/>
  <outline>
    <contour>
      <point x="418" y="180" type="line"/>
      <point x="134" y="570" type="line"/>
      <point x="418" y="960" type="line"/>
      <point x="369" y="960" type="line"/>
      <point x="74" y="570" type="line"/>
      <point x="369" y="180" type="line"/>
    </contour>
    <contour>
      <point x="768" y="180" type="line"/>
      <point x="484" y="570" type="line"/>
      <point x="768" y="960" type="line"/>
      <point x="719" y="960" type="line"/>
      <point x="424" y="570" type="line"/>
      <point x="719" y="180" type="line"/>
    </contour>
  </outline>
</glyph>
<glyph name="macron" format="2">
  <advance width="740"/>
  <unicode hex="00AF"/>
  <anchor x="370" y="1080" name="_top"/>
  <outline>
    <contour>
      <point x="80" y="1280" type="line"/>
      <point x="660" y="1280" type="line"/>
      <point x="660" y="1320" type="line"/>
      <point x="80" y="1320" type="line"/>
    </contour>
  </outline>
</glyph>
<glyph name="plusminus" format="2">
  <advance width="1142"/>
  <unicode hex="00B1"/>
  <outline>
    <contour>
      <point x="550" y="292" type="line"/>
      <point x="592" y="292" type="line"/>
      <point x="592" y="1212" type="line"/>
      <point x="550" y="1212" type="line"/>
    </contour>
    <contour>
      <point x="120" y="0" type="line"/>
      <point x="1022" y="0" type="line"/>
      <point x="1022" y="40" type="line"/>
      <point x="120" y="40" type="line"/>
    </contour>
    <contour>
      <point x="120" y="732" type="line"/>
      <point x="1022" y="732" type="line"/>
      <point x="1022" y="772" type="line"/>
      <point x="120" y="772" type="line"/>
    </contour>
  </outline>
</glyph>
<glyph name="acute" format="2">
  <advance width="443"/>
  <unicode hex="00B4"/>
  <anchor x="132" y="1080" name="_top"/>
  <outline>
    <contour>
      <point x="80" y="1230" type="line"/>
      <point x="127" y="1230" type="line"/>
      <point x="363" y="1540" type="line"/>
      <point x="307" y="1540" type="line"/>
    </contour>
  </outline>
</glyph>
<glyph name="cedilla" format="2">
  <advance width="514"/>
  <unicode hex="00B8"/>
  <anchor x="252" y="0" name="_bottom"/>
  <outline>
    <contour>
      <point x="249" y="-415" type="curve" smooth="yes"/>
      <point x="363" y="-415"/>
      <point x="434" y="-364"/>
      <point x="434" y="-270" type="curve" smooth="yes"/>
      <point x="434" y="-174"/>
      <point x="352" y="-146"/>
      <point x="283" y="-146" type="curve" smooth="yes"/>
      <point x="250" y="-146" type="line"/>
      <point x="274" y="10" type="line"/>
      <point x="230" y="10" type="line"/>
      <point x="199" y="-186" type="line"/>
      <point x="279" y="-186" type="line" smooth="yes"/>
      <point x="341" y="-186"/>
      <point x="386" y="-213"/>
      <point x="386" y="-271" type="curve" smooth="yes"/>
      <point x="386" y="-335"/>
      <point x="347" y="-375"/>
      <point x="249" y="-375" type="curve" smooth="yes"/>
      <point x="194" y="-375"/>
      <point x="140" y="-357"/>
      <point x="98" y="-333" type="curve"/>
      <point x="80" y="-371" type="line"/>
      <point x="125" y="-397"/>
      <point x="184" y="-415"/>
    </contour>
  </outline>
</glyph>
<glyph name="ordmasculine" format="2">
  <advance width="870"/>
  <unicode hex="00BA"/>
  <outline>
    <contour>
      <point x="435" y="768" type="curve" smooth="yes"/>
      <point x="623" y="768"/>
      <point x="755" y="903"/>
      <point x="755" y="1140" type="curve" smooth="yes"/>
      <point x="755" y="1377"/>
      <point x="623" y="1512"/>
      <point x="435" y="1512" type="curve" smooth="yes"/>
      <point x="247" y="1512"/>
      <point x="115" y="1377"/>
      <point x="115" y="1140" type="curve" smooth="yes"/>
      <point x="115" y="904"/>
      <point x="247" y="768"/>
    </contour>
    <contour>
      <point x="435" y="802" type="curve" smooth="yes"/>
      <point x="271" y="802"/>
      <point x="159" y="929"/>
      <point x="159" y="1140" type="curve" smooth="yes"/>
      <point x="159" y="1351"/>
      <point x="271" y="1478"/>
      <point x="435" y="1478" type="curve" smooth="yes"/>
      <point x="599" y="1478"/>
      <point x="711" y="1351"/>
      <point x="711" y="1140" type="curve" smooth="yes"/>
      <point x="711" y="929"/>
      <point x="599" y="802"/>
    </contour>
  </outline>
</glyph>
<glyph name="onequarter" format="2">
  <advance width="2384"/>
  <unicode hex="00BC"/>
  <outline>
    <contour>
      <point x="96" y="780" type="line"/>
      <point x="451" y="780" type="line"/>
      <point x="451" y="812" type="line"/>
      <point x="312" y="812" type="line"/>
      <point x="312" y="1500" type="line"/>
      <point x="274" y="1500" type="line"/>
      <point x="274" y="1482" type="line" smooth="yes"/>
      <point x="274" y="1365"/>
      <point x="232" y="1358"/>
      <point x="152" y="1358" type="curve" smooth="yes"/>
      <point x="48" y="1358" type="line"/>
      <point x="48" y="1326" type="line"/>
      <point x="268" y="1326" type="line"/>
      <point x="268" y="812" type="line"/>
      <point x="96" y="812" type="line"/>
    </contour>
    <contour>
      <point x="543" y="0" type="line"/>
      <point x="592" y="0" type="line"/>
      <point x="1629" y="1500" type="line"/>
      <point x="1580" y="1500" type="line"/>
    </contour>
    <contour>
      <point x="1944" y="0" type="line"/>
      <point x="2299" y="0" type="line"/>
      <point x="2299" y="32" type="line"/>
      <point x="2173" y="32" type="line"/>
      <point x="2173" y="720" type="line"/>
      <point x="2131" y="720" type="line"/>
      <point x="2129" y="692" type="line"/>
      <point x="2129" y="32" type="line"/>
      <point x="1944" y="32" type="line"/>
    </contour>
    <contour>
      <point x="1735" y="220" type="line"/>
      <point x="2349" y="220" type="line"/>
      <point x="2349" y="252" type="line"/>
      <point x="1762" y="252" type="line"/>
      <point x="1735" y="250" type="line"/>
    </contour>
    <contour>
      <point x="1735" y="250" type="line"/>
      <point x="1774" y="250" type="line"/>
      <point x="2131" y="673" type="line"/>
      <point x="2131" y="720" type="line"/>
    </contour>
  </outline>
</glyph>
<glyph name="onehalf" format="2">
  <advance width="2339"/>
  <unicode hex="00BD"/>
  <outline>
    <contour>
      <point x="96" y="780" type="line"/>
      <point x="451" y="780" type="line"/>
      <point x="451" y="812" type="line"/>
      <point x="312" y="812" type="line"/>
      <point x="312" y="1500" type="line"/>
      <point x="274" y="1500" type="line"/>
      <point x="274" y="1482" type="line" smooth="yes"/>
      <point x="274" y="1365"/>
      <point x="232" y="1358"/>
      <point x="152" y="1358" type="curve" smooth="yes"/>
      <point x="48" y="1358" type="line"/>
      <point x="48" y="1326" type="line"/>
      <point x="268" y="1326" type="line"/>
      <point x="268" y="812" type="line"/>
      <point x="96" y="812" type="line"/>
    </contour>
    <contour>
      <point x="543" y="0" type="line"/>
      <point x="592" y="0" type="line"/>
      <point x="1629" y="1500" type="line"/>
      <point x="1580" y="1500" type="line"/>
    </contour>
    <contour>
      <point x="1753" y="8" type="curve" smooth="yes"/>
      <point x="1753" y="0" type="line"/>
      <point x="1791" y="40" type="line"/>
      <point x="1799" y="163"/>
      <point x="1899" y="212"/>
      <point x="1970" y="246" type="curve" smooth="yes"/>
      <point x="2055" y="286" type="line" smooth="yes"/>
      <point x="2156" y="334"/>
      <point x="2267" y="398"/>
      <point x="2266" y="530" type="curve"/>
      <point x="2220" y="532" type="line"/>
      <point x="2221" y="415"/>
      <point x="2113" y="366"/>
      <point x="2038" y="326" type="curve" smooth="yes"/>
      <point x="1955" y="282" type="line" smooth="yes"/>
      <point x="1822" y="211"/>
      <point x="1753" y="148"/>
    </contour>
    <contour>
      <point x="1753" y="0" type="line"/>
      <point x="2267" y="0" type="line"/>
      <point x="2267" y="40" type="line"/>
      <point x="1791" y="40" type="line"/>
      <point x="1753" y="8" type="line"/>
    </contour>
    <contour>
      <point x="2168" y="40" type="curve" smooth="yes"/>
      <point x="2267" y="40" type="line"/>
      <point x="2267" y="166" type="line"/>
      <point x="2235" y="166" type="line"/>
      <point x="2235" y="110" type="line" smooth="yes"/>
      <point x="2235" y="60"/>
      <point x="2228" y="40"/>
    </contour>
    <contour>
      <point x="1820" y="488" type="curve" smooth="yes"/>
      <point x="1840" y="488"/>
      <point x="1854" y="501"/>
      <point x="1854" y="521" type="curve" smooth="yes"/>
      <point x="1854" y="543"/>
      <point x="1826" y="559"/>
      <point x="1796" y="554" type="curve"/>
      <point x="1807" y="543" type="line"/>
      <point x="1805" y="653"/>
      <point x="1912" y="694"/>
      <point x="2019" y="694" type="curve" smooth="yes"/>
      <point x="2126" y="694"/>
      <point x="2221" y="640"/>
      <point x="2220" y="532" type="curve"/>
      <point x="2266" y="530" type="line"/>
      <point x="2267" y="667"/>
      <point x="2158" y="730"/>
      <point x="2024" y="730" type="curve" smooth="yes"/>
      <point x="1887" y="730"/>
      <point x="1775" y="671"/>
      <point x="1775" y="544" type="curve" smooth="yes"/>
      <point x="1775" y="508"/>
      <point x="1795" y="488"/>
    </contour>
  </outline>
</glyph>
<glyph name="threequarters" format="2">
  <advance width="2552"/>
  <unicode hex="00BE"/>
  <outline>
    <contour>
      <point x="333" y="770" type="curve" smooth="yes"/>
      <point x="486" y="770"/>
      <point x="583" y="858"/>
      <point x="583" y="982" type="curve" smooth="yes"/>
      <point x="583" y="1104"/>
      <point x="493" y="1193"/>
      <point x="264" y="1180" type="curve"/>
      <point x="264" y="1157" type="line"/>
      <point x="455" y="1163"/>
      <point x="537" y="1091"/>
      <point x="537" y="984" type="curve" smooth="yes"/>
      <point x="537" y="885"/>
      <point x="461" y="810"/>
      <point x="328" y="810" type="curve" smooth="yes"/>
      <point x="201" y="810"/>
      <point x="97" y="879"/>
      <point x="92" y="1002" type="curve"/>
      <point x="61" y="1002" type="line"/>
      <point x="63" y="853"/>
      <point x="179" y="770"/>
    </contour>
    <contour>
      <point x="264" y="1189" type="curve"/>
      <point x="264" y="1170" type="line"/>
      <point x="455" y="1165"/>
      <point x="560" y="1219"/>
      <point x="560" y="1338" type="curve" smooth="yes"/>
      <point x="560" y="1444"/>
      <point x="461" y="1510"/>
      <point x="327" y="1510" type="curve" smooth="yes"/>
      <point x="192" y="1510"/>
      <point x="89" y="1452"/>
      <point x="89" y="1348" type="curve" smooth="yes"/>
      <point x="89" y="1314"/>
      <point x="110" y="1296"/>
      <point x="134" y="1296" type="curve" smooth="yes"/>
      <point x="155" y="1296"/>
      <point x="169" y="1308"/>
      <point x="169" y="1327" type="curve" smooth="yes"/>
      <point x="169" y="1350"/>
      <point x="141" y="1366"/>
      <point x="111" y="1361" type="curve"/>
      <point x="120" y="1351" type="line"/>
      <point x="125" y="1433"/>
      <point x="209" y="1476"/>
      <point x="323" y="1476" type="curve" smooth="yes"/>
      <point x="434" y="1476"/>
      <point x="514" y="1419"/>
      <point x="514" y="1336" type="curve" smooth="yes"/>
      <point x="514" y="1239"/>
      <point x="434" y="1189"/>
    </contour>
    <contour>
      <point x="711" y="0" type="line"/>
      <point x="760" y="0" type="line"/>
      <point x="1797" y="1500" type="line"/>
      <point x="1748" y="1500" type="line"/>
    </contour>
    <contour>
      <point x="2112" y="0" type="line"/>
      <point x="2467" y="0" type="line"/>
      <point x="2467" y="32" type="line"/>
      <point x="2341" y="32" type="line"/>
      <point x="2341" y="720" type="line"/>
      <point x="2299" y="720" type="line"/>
      <point x="2297" y="692" type="line"/>
      <point x="2297" y="32" type="line"/>
      <point x="2112" y="32" type="line"/>
    </contour>
    <contour>
      <point x="1903" y="220" type="line"/>
      <point x="2517" y="220" type="line"/>
      <point x="2517" y="252" type="line"/>
      <point x="1930" y="252" type="line"/>
      <point x="1903" y="250" type="line"/>
    </contour>
    <contour>
      <point x="1903" y="250" type="line"/>
      <point x="1942" y="250" type="line"/>
      <point x="2299" y="673" type="line"/>
      <point x="2299" y="720" type="line"/>
    </contour>
  </outline>
</glyph>
<glyph name="questiondown" format="2">
  <advance width="1050"/>
  <unicode hex="00BF"/>
  <outline>
    <contour>
      <point x="883" y="40" type="curve" smooth="yes"/>
      <point x="849" y="40"/>
      <point x="829" y="19"/>
      <point x="829" y="-15" type="curve" smooth="yes"/>
      <point x="829" y="-59"/>
      <point x="881" y="-84"/>
      <point x="932" y="-77" type="curve"/>
      <point x="915" y="-61" type="line"/>
      <point x="917" y="-303"/>
      <point x="721" y="-398"/>
      <point x="522" y="-398" type="curve" smooth="yes"/>
      <point x="307" y="-398"/>
      <point x="118" y="-294"/>
      <point x="120" y="-63" type="curve"/>
      <point x="72" y="-63" type="line"/>
      <point x="70" y="-313"/>
      <point x="265" y="-436"/>
      <point x="520" y="-436" type="curve" smooth="yes"/>
      <point x="760" y="-436"/>
      <point x="960" y="-318"/>
      <point x="960" y="-62" type="curve" smooth="yes"/>
      <point x="960" y="3"/>
      <point x="927" y="40"/>
    </contour>
    <contour>
      <point x="522" y="1096" type="curve" smooth="yes"/>
      <point x="486" y="1096"/>
      <point x="463" y="1070"/>
      <point x="463" y="1034" type="curve" smooth="yes"/>
      <point x="463" y="998"/>
      <point x="486" y="972"/>
      <point x="522" y="972" type="curve" smooth="yes"/>
      <point x="558" y="972"/>
      <point x="581" y="998"/>
      <point x="581" y="1034" type="curve" smooth="yes"/>
      <point x="581" y="1070"/>
      <point x="558" y="1096"/>
    </contour>
    <contour>
      <point x="546" y="700" type="curve"/>
      <point x="506" y="700" type="line"/>
      <point x="513" y="537"/>
      <point x="503" y="468"/>
      <point x="384" y="384" type="curve" smooth="yes"/>
      <point x="251" y="290"/>
      <point x="72" y="166"/>
      <point x="72" y="-63" type="curve"/>
      <point x="120" y="-63" type="line"/>
      <point x="118" y="141"/>
      <point x="281" y="259"/>
      <point x="409" y="348" type="curve" smooth="yes"/>
      <point x="538" y="438"/>
      <point x="560" y="536"/>
    </contour>
  </outline>
</glyph>
<glyph name="Atilde" format="2">
  <advance width="1654"/>
  <unicode hex="00C3"/>
  <anchor x="827" y="0" name="bottom"/>
  <anchor x="1543" y="0" name="ogonek"/>
  <anchor x="827" y="1878" name="top"/>
  <outline>
    <contour>
      <point x="29" y="0" type="line"/>
      <point x="546" y="0" type="line"/>
      <point x="546" y="36" type="line"/>
      <point x="255" y="36" type="line"/>
      <point x="831" y="1453" type="line"/>
      <point x="814" y="1453" type="line"/>
      <point x="1390" y="36" type="line"/>
      <point x="1099" y="36" type="line"/>
      <point x="1099" y="0" type="line"/>
      <point x="1625" y="0" type="line"/>
      <point x="1625" y="36" type="line"/>
      <point x="1442" y="36" type="line"/>
      <point x="845" y="1500" type="line"/>
      <point x="809" y="1500" type="line"/>
      <point x="212" y="36" type="line"/>
      <point x="29" y="36" type="line"/>
    </contour>
    <contour>
      <point x="437" y="520" type="line"/>
      <point x="1213" y="520" type="line"/>
      <point x="1213" y="558" type="line"/>
      <point x="437" y="558" type="line"/>
    </contour>
    <contour>
      <point x="965" y="1658" type="curve" smooth="yes"/>
      <point x="1050" y="1658"/>
      <point x="1089" y="1720"/>
      <point x="1089" y="1825" type="curve" smooth="yes"/>
      <point x="1089" y="1900" type="line"/>
      <point x="1051" y="1900" type="line"/>
      <point x="1051" y="1829" type="line" smooth="yes"/>
      <point x="1051" y="1738"/>
      <point x="1022" y="1698"/>
      <point x="965" y="1698" type="curve" smooth="yes"/>
      <point x="914" y="1698"/>
      <point x="882" y="1742"/>
      <point x="853" y="1784" type="curve" smooth="yes"/>
      <point x="834" y="1812" type="line"/>
      <point x="801" y="1786" type="line"/>
      <point x="820" y="1758" type="line" smooth="yes"/>
      <point x="852" y="1710"/>
      <point x="894" y="1658"/>
    </contour>
    <contour>
      <point x="565" y="1745" type="curve" smooth="yes"/>
      <point x="565" y="1670" type="line"/>
      <point x="603" y="1670" type="line"/>
      <point x="603" y="1741" type="line" smooth="yes"/>
      <point x="603" y="1832"/>
      <point x="632" y="1872"/>
      <point x="689" y="1872" type="curve" smooth="yes"/>
      <point x="740" y="1872"/>
      <point x="772" y="1828"/>
      <point x="801" y="1786" type="curve" smooth="yes"/>
      <point x="820" y="1758" type="line"/>
      <point x="853" y="1784" type="line"/>
      <point x="834" y="1812" type="line" smooth="yes"/>
      <point x="802" y="1860"/>
      <point x="760" y="1912"/>
      <point x="689" y="1912" type="curve" smooth="yes"/>
      <point x="604" y="1912"/>
      <point x="565" y="1850"/>
    </contour>
  </outline>
</glyph>
<glyph name="Adieresis" format="2">
  <advance width="1654"/>
  <unicode hex="00C4"/>
  <anchor x="827" y="0" name="bottom"/>
  <anchor x="1543" y="0" name="ogonek"/>
  <anchor x="827" y="1870" name="top"/>
  <outline>
    <contour>
      <point x="29" y="0" type="line"/>
      <point x="546" y="0" type="line"/>
      <point x="546" y="36" type="line"/>
      <point x="255" y="36" type="line"/>
      <point x="831" y="1453" type="line"/>
      <point x="814" y="1453" type="line"/>
      <point x="1390" y="36" type="line"/>
      <point x="1099" y="36" type="line"/>
      <point x="1099" y="0" type="line"/>
      <point x="1625" y="0" type="line"/>
      <point x="1625" y="36" type="line"/>
      <point x="1442" y="36" type="line"/>
      <point x="845" y="1500" type="line"/>
      <point x="809" y="1500" type="line"/>
      <point x="212" y="36" type="line"/>
      <point x="29" y="36" type="line"/>
    </contour>
    <contour>
      <point x="437" y="520" type="line"/>
      <point x="1213" y="520" type="line"/>
      <point x="1213" y="558" type="line"/>
      <point x="437" y="558" type="line"/>
    </contour>
    <contour>
      <point x="1016" y="1722" type="curve" smooth="yes"/>
      <point x="1052" y="1722"/>
      <point x="1075" y="1748"/>
      <point x="1075" y="1784" type="curve" smooth="yes"/>
      <point x="1075" y="1820"/>
      <point x="1052" y="1846"/>
      <point x="1016" y="1846" type="curve" smooth="yes"/>
      <point x="980" y="1846"/>
      <point x="957" y="1820"/>
      <point x="957" y="1784" type="curve" smooth="yes"/>
      <point x="957" y="1748"/>
      <point x="980" y="1722"/>
    </contour>
    <contour>
      <point x="638" y="1722" type="curve" smooth="yes"/>
      <point x="674" y="1722"/>
      <point x="697" y="1748"/>
      <point x="697" y="1784" type="curve" smooth="yes"/>
      <point x="697" y="1820"/>
      <point x="674" y="1846"/>
      <point x="638" y="1846" type="curve" smooth="yes"/>
      <point x="602" y="1846"/>
      <point x="579" y="1820"/>
      <point x="579" y="1784" type="curve" smooth="yes"/>
      <point x="579" y="1748"/>
      <point x="602" y="1722"/>
    </contour>
  </outline>
</glyph>
<glyph name="Aring" format="2">
  <advance width="1654"/>
  <unicode hex="00C5"/>
  <anchor x="827" y="0" name="bottom"/>
  <anchor x="1543" y="0" name="ogonek"/>
  <anchor x="827" y="1930" name="top"/>
  <outline>
    <contour>
      <point x="29" y="0" type="line"/>
      <point x="546" y="0" type="line"/>
      <point x="546" y="36" type="line"/>
      <point x="255" y="36" type="line"/>
      <point x="831" y="1453" type="line"/>
      <point x="814" y="1453" type="line"/>
      <point x="1390" y="36" type="line"/>
      <point x="1099" y="36" type="line"/>
      <point x="1099" y="0" type="line"/>
      <point x="1625" y="0" type="line"/>
      <point x="1625" y="36" type="line"/>
      <point x="1442" y="36" type="line"/>
      <point x="845" y="1500" type="line"/>
      <point x="809" y="1500" type="line"/>
      <point x="212" y="36" type="line"/>
      <point x="29" y="36" type="line"/>
    </contour>
    <contour>
      <point x="437" y="520" type="line"/>
      <point x="1213" y="520" type="line"/>
      <point x="1213" y="558" type="line"/>
      <point x="437" y="558" type="line"/>
    </contour>
    <contour>
      <point x="827" y="1620" type="curve" smooth="yes"/>
      <point x="928" y="1620"/>
      <point x="1006" y="1683"/>
      <point x="1006" y="1793" type="curve" smooth="yes"/>
      <point x="1006" y="1903"/>
      <point x="928" y="1966"/>
      <point x="827" y="1966" type="curve" smooth="yes"/>
      <point x="726" y="1966"/>
      <point x="648" y="1903"/>
      <point x="648" y="1793" type="curve" smooth="yes"/>
      <point x="648" y="1683"/>
      <point x="726" y="1620"/>
    </contour>
    <contour>
      <point x="827" y="1656" type="curve" smooth="yes"/>
      <point x="748" y="1656"/>
      <point x="692" y="1707"/>
      <point x="692" y="1793" type="curve" smooth="yes"/>
      <point x="692" y="1879"/>
      <point x="748" y="1930"/>
      <point x="827" y="1930" type="curve" smooth="yes"/>
      <point x="906" y="1930"/>
      <point x="962" y="1879"/>
      <point x="962" y="1793" type="curve" smooth="yes"/>
      <point x="962" y="1707"/>
      <point x="906" y="1656"/>
    </contour>
  </outline>
</glyph>
<glyph name="Ccedilla" format="2">
  <advance width="1610"/>
  <unicode hex="00C7"/>
  <anchor x="806" y="0" name="bottom"/>
  <anchor x="848" y="1500" name="top"/>
  <outline>
    <contour>
      <point x="834" y="-24" type="curve" smooth="yes"/>
      <point x="1237" y="-24"/>
      <point x="1452" y="262"/>
      <point x="1460" y="588" type="curve"/>
      <point x="1420" y="588" type="line"/>
      <point x="1408" y="279"/>
      <point x="1210" y="14"/>
      <point x="834" y="14" type="curve" smooth="yes"/>
      <point x="465" y="14"/>
      <point x="180" y="302"/>
      <point x="180" y="750" type="curve" smooth="yes"/>
      <point x="180" y="1198"/>
      <point x="461" y="1486"/>
      <point x="824" y="1486" type="curve" smooth="yes"/>
      <point x="1210" y="1486"/>
      <point x="1385" y="1223"/>
      <point x="1406" y="940" type="curve"/>
      <point x="1432" y="940" type="line"/>
      <point x="1423" y="1287"/>
      <point x="1200" y="1524"/>
      <point x="824" y="1524" type="curve" smooth="yes"/>
      <point x="435" y="1524"/>
      <point x="132" y="1239"/>
      <point x="132" y="750" type="curve" smooth="yes"/>
      <point x="132" y="261"/>
      <point x="439" y="-24"/>
    </contour>
    <contour>
      <point x="1432" y="940" type="line"/>
      <point x="1450" y="940" type="line"/>
      <point x="1450" y="1500" type="line"/>
      <point x="1410" y="1500" type="line"/>
      <point x="1410" y="994" type="line"/>
    </contour>
    <contour>
      <point x="803" y="-415" type="curve" smooth="yes"/>
      <point x="917" y="-415"/>
      <point x="988" y="-364"/>
      <point x="988" y="-270" type="curve" smooth="yes"/>
      <point x="988" y="-174"/>
      <point x="906" y="-146"/>
      <point x="837" y="-146" type="curve" smooth="yes"/>
      <point x="804" y="-146" type="line"/>
      <point x="828" y="10" type="line"/>
      <point x="784" y="10" type="line"/>
      <point x="753" y="-186" type="line"/>
      <point x="833" y="-186" type="line" smooth="yes"/>
      <point x="895" y="-186"/>
      <point x="940" y="-213"/>
      <point x="940" y="-271" type="curve" smooth="yes"/>
      <point x="940" y="-335"/>
      <point x="901" y="-375"/>
      <point x="803" y="-375" type="curve" smooth="yes"/>
      <point x="748" y="-375"/>
      <point x="694" y="-357"/>
      <point x="652" y="-333" type="curve"/>
      <point x="634" y="-371" type="line"/>
      <point x="679" y="-397"/>
      <point x="738" y="-415"/>
    </contour>
  </outline>
</glyph>
<glyph name="Edieresis" format="2">
  <advance width="1489"/>
  <unicode hex="00CB"/>
  <anchor x="745" y="0" name="bottom"/>
  <anchor x="1331" y="0" name="ogonek"/>
  <anchor x="766" y="1870" name="top"/>
  <outline>
    <contour>
      <point x="46" y="0" type="line"/>
      <point x="347" y="0" type="line"/>
      <point x="347" y="1500" type="line"/>
      <point x="51" y="1500" type="line"/>
      <point x="51" y="1464" type="line"/>
      <point x="299" y="1464" type="line"/>
      <point x="299" y="36" type="line"/>
      <point x="46" y="36" type="line"/>
    </contour>
    <contour>
      <point x="347" y="0" type="line"/>
      <point x="1331" y="0" type="line"/>
      <point x="1331" y="38" type="line"/>
      <point x="347" y="38" type="line"/>
    </contour>
    <contour>
      <point x="879" y="650" type="curve" smooth="yes"/>
      <point x="879" y="308" type="line"/>
      <point x="917" y="308" type="line"/>
      <point x="917" y="772" type="line"/>
      <point x="761" y="772" type="line" smooth="yes"/>
      <point x="855" y="772"/>
      <point x="879" y="748"/>
    </contour>
    <contour>
      <point x="347" y="772" type="line"/>
      <point x="917" y="772" type="line"/>
      <point x="917" y="810" type="line"/>
      <point x="347" y="810" type="line"/>
    </contour>
    <contour>
      <point x="1165" y="38" type="curve" smooth="yes"/>
      <point x="1331" y="38" type="line"/>
      <point x="1331" y="580" type="line"/>
      <point x="1291" y="580" type="line"/>
      <point x="1291" y="168" type="line" smooth="yes"/>
      <point x="1291" y="64"/>
      <point x="1265" y="38"/>
    </contour>
    <contour>
      <point x="761" y="810" type="curve" smooth="yes"/>
      <point x="917" y="810" type="line"/>
      <point x="917" y="1202" type="line"/>
      <point x="879" y="1202" type="line"/>
      <point x="879" y="932" type="line" smooth="yes"/>
      <point x="879" y="834"/>
      <point x="855" y="810"/>
    </contour>
    <contour>
      <point x="347" y="1462" type="line"/>
      <point x="1313" y="1462" type="line"/>
      <point x="1313" y="1500" type="line"/>
      <point x="347" y="1500" type="line"/>
    </contour>
    <contour>
      <point x="1273" y="1332" type="curve" smooth="yes"/>
      <point x="1273" y="940" type="line"/>
      <point x="1313" y="940" type="line"/>
      <point x="1313" y="1462" type="line"/>
      <point x="1147" y="1462" type="line" smooth="yes"/>
      <point x="1247" y="1462"/>
      <point x="1273" y="1436"/>
    </contour>
    <contour>
      <point x="955" y="1722" type="curve" smooth="yes"/>
      <point x="991" y="1722"/>
      <point x="1014" y="1748"/>
      <point x="1014" y="1784" type="curve" smooth="yes"/>
      <point x="1014" y="1820"/>
      <point x="991" y="1846"/>
      <point x="955" y="1846" type="curve" smooth="yes"/>
      <point x="919" y="1846"/>
      <point x="896" y="1820"/>
      <point x="896" y="1784" type="curve" smooth="yes"/>
      <point x="896" y="1748"/>
      <point x="919" y="1722"/>
    </contour>
    <contour>
      <point x="577" y="1722" type="curve" smooth="yes"/>
      <point x="613" y="1722"/>
      <point x="636" y="1748"/>
      <point x="636" y="1784" type="curve" smooth="yes"/>
      <point x="636" y="1820"/>
      <point x="613" y="1846"/>
      <point x="577" y="1846" type="curve" smooth="yes"/>
      <point x="541" y="1846"/>
      <point x="518" y="1820"/>
      <point x="518" y="1784" type="curve" smooth="yes"/>
      <point x="518" y="1748"/>
      <point x="541" y="1722"/>
    </contour>
  </outline>
</glyph>
<glyph name="Igrave" format="2">
  <advance width="684"/>
  <unicode hex="00CC"/>
  <anchor x="342" y="0" name="bottom"/>
  <anchor x="471" y="0" name="ogonek"/>
  <anchor x="342" y="1500" name="top"/>
  <anchor x="20" y="1500" name="topleft"/>
  <outline>
    <contour>
      <point x="42" y="0" type="line"/>
      <point x="642" y="0" type="line"/>
      <point x="642" y="36" type="line"/>
      <point x="366" y="36" type="line"/>
      <point x="366" y="1464" type="line"/>
      <point x="637" y="1464" type="line"/>
      <point x="637" y="1500" type="line"/>
      <point x="47" y="1500" type="line"/>
      <point x="47" y="1464" type="line"/>
      <point x="318" y="1464" type="line"/>
      <point x="318" y="36" type="line"/>
      <point x="42" y="36" type="line"/>
    </contour>
    <contour>
      <point x="347" y="1650" type="line"/>
      <point x="394" y="1650" type="line"/>
      <point x="167" y="1960" type="line"/>
      <point x="111" y="1960" type="line"/>
    </contour>
  </outline>
</glyph>
<glyph name="Icircumflex" format="2">
  <advance width="684"/>
  <unicode hex="00CE"/>
  <anchor x="342" y="0" name="bottom"/>
  <anchor x="471" y="0" name="ogonek"/>
  <anchor x="635" y="1730" name="side"/>
  <anchor x="342" y="1940" name="top"/>
  <anchor x="20" y="1500" name="topleft"/>
  <outline>
    <contour>
      <point x="42" y="0" type="line"/>
      <point x="642" y="0" type="line"/>
      <point x="642" y="36" type="line"/>
      <point x="366" y="36" type="line"/>
      <point x="366" y="1464" type="line"/>
      <point x="637" y="1464" type="line"/>
      <point x="637" y="1500" type="line"/>
      <point x="47" y="1500" type="line"/>
      <point x="47" y="1464" type="line"/>
      <point x="318" y="1464" type="line"/>
      <point x="318" y="36" type="line"/>
      <point x="42" y="36" type="line"/>
    </contour>
    <contour>
      <point x="79" y="1650" type="line"/>
      <point x="126" y="1650" type="line"/>
      <point x="353" y="1933" type="line"/>
      <point x="328" y="1933" type="line"/>
      <point x="556" y="1650" type="line"/>
      <point x="605" y="1650" type="line"/>
      <point x="359" y="1960" type="line"/>
      <point x="325" y="1960" type="line"/>
    </contour>
  </outline>
</glyph>
<glyph name="Idieresis" format="2">
  <advance width="684"/>
  <unicode hex="00CF"/>
  <anchor x="342" y="0" name="bottom"/>
  <anchor x="471" y="0" name="ogonek"/>
  <anchor x="342" y="1870" name="top"/>
  <anchor x="20" y="1500" name="topleft"/>
  <outline>
    <contour>
      <point x="42" y="0" type="line"/>
      <point x="642" y="0" type="line"/>
      <point x="642" y="36" type="line"/>
      <point x="366" y="36" type="line"/>
      <point x="366" y="1464" type="line"/>
      <point x="637" y="1464" type="line"/>
      <point x="637" y="1500" type="line"/>
      <point x="47" y="1500" type="line"/>
      <point x="47" y="1464" type="line"/>
      <point x="318" y="1464" type="line"/>
      <point x="318" y="36" type="line"/>
      <point x="42" y="36" type="line"/>
    </contour>
    <contour>
      <point x="531" y="1722" type="curve" smooth="yes"/>
      <point x="567" y="1722"/>
      <point x="590" y="1748"/>
      <point x="590" y="1784" type="curve" smooth="yes"/>
      <point x="590" y="1820"/>
      <point x="567" y="1846"/>
      <point x="531" y="1846" type="curve" smooth="yes"/>
      <point x="495" y="1846"/>
      <point x="472" y="1820"/>
      <point x="472" y="1784" type="curve" smooth="yes"/>
      <point x="472" y="1748"/>
      <point x="495" y="1722"/>
    </contour>
    <contour>
      <point x="153" y="1722" type="curve" smooth="yes"/>
      <point x="189" y="1722"/>
      <point x="212" y="1748"/>
      <point x="212" y="1784" type="curve" smooth="yes"/>
      <point x="212" y="1820"/>
      <point x="189" y="1846"/>
      <point x="153" y="1846" type="curve" smooth="yes"/>
      <point x="117" y="1846"/>
      <point x="94" y="1820"/>
      <point x="94" y="1784" type="curve" smooth="yes"/>
      <point x="94" y="1748"/>
      <point x="117" y="1722"/>
    </contour>
  </outline>
</glyph>
<glyph name="Ntilde" format="2">
  <advance width="1703"/>
  <unicode hex="00D1"/>
  <anchor x="852" y="0" name="bottom"/>
  <anchor x="868" y="1878" name="top"/>
  <outline>
    <contour>
      <point x="1381" y="0" type="line"/>
      <point x="1385" y="76" type="line"/>
      <point x="343" y="1500" type="line"/>
      <point x="339" y="1424" type="line"/>
    </contour>
    <contour>
      <point x="46" y="0" type="line"/>
      <point x="615" y="0" type="line"/>
      <point x="615" y="36" type="line"/>
      <point x="339" y="36" type="line"/>
      <point x="339" y="1424" type="line"/>
      <point x="343" y="1500" type="line"/>
      <point x="51" y="1500" type="line"/>
      <point x="51" y="1464" type="line"/>
      <point x="299" y="1464" type="line"/>
      <point x="299" y="36" type="line"/>
      <point x="46" y="36" type="line"/>
    </contour>
    <contour>
      <point x="1381" y="0" type="line"/>
      <point x="1425" y="0" type="line"/>
      <point x="1425" y="1464" type="line"/>
      <point x="1673" y="1464" type="line"/>
      <point x="1673" y="1500" type="line"/>
      <point x="1114" y="1500" type="line"/>
      <point x="1114" y="1464" type="line"/>
      <point x="1385" y="1464" type="line"/>
      <point x="1385" y="76" type="line"/>
      <point x="1375" y="76" type="line"/>
    </contour>
    <contour>
      <point x="1006" y="1658" type="curve" smooth="yes"/>
      <point x="1091" y="1658"/>
      <point x="1130" y="1720"/>
      <point x="1130" y="1825" type="curve" smooth="yes"/>
      <point x="1130" y="1900" type="line"/>
      <point x="1092" y="1900" type="line"/>
      <point x="1092" y="1829" type="line" smooth="yes"/>
      <point x="1092" y="1738"/>
      <point x="1063" y="1698"/>
      <point x="1006" y="1698" type="curve" smooth="yes"/>
      <point x="955" y="1698"/>
      <point x="923" y="1742"/>
      <point x="894" y="1784" type="curve" smooth="yes"/>
      <point x="875" y="1812" type="line"/>
      <point x="842" y="1786" type="line"/>
      <point x="861" y="1758" type="line" smooth="yes"/>
      <point x="893" y="1710"/>
      <point x="935" y="1658"/>
    </contour>
    <contour>
      <point x="606" y="1745" type="curve" smooth="yes"/>
      <point x="606" y="1670" type="line"/>
      <point x="644" y="1670" type="line"/>
      <point x="644" y="1741" type="line" smooth="yes"/>
      <point x="644" y="1832"/>
      <point x="673" y="1872"/>
      <point x="730" y="1872" type="curve" smooth="yes"/>
      <point x="781" y="1872"/>
      <point x="813" y="1828"/>
      <point x="842" y="1786" type="curve" smooth="yes"/>
      <point x="861" y="1758" type="line"/>
      <point x="894" y="1784" type="line"/>
      <point x="875" y="1812" type="line" smooth="yes"/>
      <point x="843" y="1860"/>
      <point x="801" y="1912"/>
      <point x="730" y="1912" type="curve" smooth="yes"/>
      <point x="645" y="1912"/>
      <point x="606" y="1850"/>
    </contour>
  </outline>
</glyph>
<glyph name="multiply" format="2">
  <advance width="1020"/>
  <unicode hex="00D7"/>
  <outline>
    <contour>
      <point x="134" y="351" type="line"/>
      <point x="108" y="377" type="line"/>
      <point x="886" y="1155" type="line"/>
      <point x="912" y="1129" type="line"/>
    </contour>
    <contour>
      <point x="886" y="351" type="line"/>
      <point x="912" y="377" type="line"/>
      <point x="134" y="1155" type="line"/>
      <point x="108" y="1129" type="line"/>
    </contour>
  </outline>
</glyph>
<glyph name="Oslash" format="2">
  <advance width="1720"/>
  <unicode hex="00D8"/>
  <anchor x="860" y="0" name="bottom"/>
  <anchor x="1168" y="0" name="ogonek"/>
  <anchor x="860" y="1500" name="top"/>
  <anchor x="22" y="1500" name="topleft"/>
  <anchor x="1441" y="1260" name="topright"/>
  <outline>
    <contour>
      <point x="860" y="-24" type="curve" smooth="yes"/>
      <point x="1280" y="-24"/>
      <point x="1588" y="260"/>
      <point x="1588" y="750" type="curve" smooth="yes"/>
      <point x="1588" y="1240"/>
      <point x="1280" y="1524"/>
      <point x="860" y="1524" type="curve" smooth="yes"/>
      <point x="440" y="1524"/>
      <point x="132" y="1240"/>
      <point x="132" y="750" type="curve" smooth="yes"/>
      <point x="132" y="260"/>
      <point x="440" y="-24"/>
    </contour>
    <contour>
      <point x="860" y="14" type="curve" smooth="yes"/>
      <point x="452" y="14"/>
      <point x="180" y="304"/>
      <point x="180" y="750" type="curve" smooth="yes"/>
      <point x="180" y="1196"/>
      <point x="452" y="1486"/>
      <point x="860" y="1486" type="curve" smooth="yes"/>
      <point x="1268" y="1486"/>
      <point x="1540" y="1196"/>
      <point x="1540" y="750" type="curve" smooth="yes"/>
      <point x="1540" y="304"/>
      <point x="1268" y="14"/>
    </contour>
    <contour>
      <point x="150" y="0" type="line"/>
      <point x="210" y="0" type="line"/>
      <point x="1570" y="1500" type="line"/>
      <point x="1510" y="1500" type="line"/>
    </contour>
  </outline>
</glyph>
<glyph name="Ucircumflex" format="2">
  <advance width="1708"/>
  <unicode hex="00DB"/>
  <anchor x="854" y="0" name="bottom"/>
  <anchor x="1158" y="0" name="ogonek"/>
  <anchor x="1153" y="1730" name="side"/>
  <anchor x="860" y="1940" name="top"/>
  <anchor x="1430" y="1500" name="topright"/>
  <outline>
    <contour>
      <point x="854" y="-24" type="curve" smooth="yes"/>
      <point x="1236" y="-24"/>
      <point x="1430" y="192"/>
      <point x="1430" y="574" type="curve" smooth="yes"/>
      <point x="1430" y="1464" type="line"/>
      <point x="1678" y="1464" type="line"/>
      <point x="1678" y="1500" type="line"/>
      <point x="1119" y="1500" type="line"/>
      <point x="1119" y="1464" type="line"/>
      <point x="1390" y="1464" type="line"/>
      <point x="1390" y="574" type="line" smooth="yes"/>
      <point x="1390" y="230"/>
      <point x="1221" y="14"/>
      <point x="858" y="14" type="curve" smooth="yes"/>
      <point x="495" y="14"/>
      <point x="326" y="230"/>
      <point x="326" y="574" type="curve" smooth="yes"/>
      <point x="326" y="1464" type="line"/>
      <point x="597" y="1464" type="line"/>
      <point x="597" y="1500" type="line"/>
      <point x="30" y="1500" type="line"/>
      <point x="30" y="1464" type="line"/>
      <point x="278" y="1464" type="line"/>
      <point x="278" y="574" type="line" smooth="yes"/>
      <point x="278" y="192"/>
      <point x="472" y="-24"/>
    </contour>
    <contour>
      <point x="597" y="1650" type="line"/>
      <point x="644" y="1650" type="line"/>
      <point x="871" y="1933" type="line"/>
      <point x="846" y="1933" type="line"/>
      <point x="1074" y="1650" type="line"/>
      <point x="1123" y="1650" type="line"/>
      <point x="877" y="1960" type="line"/>
      <point x="843" y="1960" type="line"/>
    </contour>
  </outline>
</glyph>
<glyph name="Udieresis" format="2">
  <advance width="1708"/>
  <unicode hex="00DC"/>
  <anchor x="854" y="0" name="bottom"/>
  <anchor x="1158" y="0" name="ogonek"/>
  <anchor x="860" y="1870" name="top"/>
  <anchor x="1430" y="1500" name="topright"/>
  <outline>
    <contour>
      <point x="854" y="-24" type="curve" smooth="yes"/>
      <point x="1236" y="-24"/>
      <point x="1430" y="192"/>
      <point x="1430" y="574" type="curve" smooth="yes"/>
      <point x="1430" y="1464" type="line"/>
      <point x="1678" y="1464" type="line"/>
      <point x="1678" y="1500" type="line"/>
      <point x="1119" y="1500" type="line"/>
      <point x="1119" y="1464" type="line"/>
      <point x="1390" y="1464" type="line"/>
      <point x="1390" y="574" type="line" smooth="yes"/>
      <point x="1390" y="230"/>
      <point x="1221" y="14"/>
      <point x="858" y="14" type="curve" smooth="yes"/>
      <point x="495" y="14"/>
      <point x="326" y="230"/>
      <point x="326" y="574" type="curve" smooth="yes"/>
      <point x="326" y="1464" type="line"/>
      <point x="597" y="1464" type="line"/>
      <point x="597" y="1500" type="line"/>
      <point x="30" y="1500" type="line"/>
      <point x="30" y="1464" type="line"/>
      <point x="278" y="1464" type="line"/>
      <point x="278" y="574" type="line" smooth="yes"/>
      <point x="278" y="192"/>
      <point x="472" y="-24"/>
    </contour>
    <contour>
      <point x="1049" y="1722" type="curve" smooth="yes"/>
      <point x="1085" y="1722"/>
      <point x="1108" y="1748"/>
      <point x="1108" y="1784" type="curve" smooth="yes"/>
      <point x="1108" y="1820"/>
      <point x="1085" y="1846"/>
      <point x="1049" y="1846" type="curve" smooth="yes"/>
      <point x="1013" y="1846"/>
      <point x="990" y="1820"/>
      <point x="990" y="1784" type="curve" smooth="yes"/>
      <point x="990" y="1748"/>
      <point x="1013" y="1722"/>
    </contour>
    <contour>
      <point x="671" y="1722" type="curve" smooth="yes"/>
      <point x="707" y="1722"/>
      <point x="730" y="1748"/>
      <point x="730" y="1784" type="curve" smooth="yes"/>
      <point x="730" y="1820"/>
      <point x="707" y="1846"/>
      <point x="671" y="1846" type="curve" smooth="yes"/>
      <point x="635" y="1846"/>
      <point x="612" y="1820"/>
      <point x="612" y="1784" type="curve" smooth="yes"/>
      <point x="612" y="1748"/>
      <point x="635" y="1722"/>
    </contour>
  </outline>
</glyph>
<glyph name="Yacute" format="2">
  <advance width="1632"/>
  <unicode hex="00DD"/>
  <anchor x="816" y="0" name="bottom"/>
  <anchor x="816" y="1500" name="top"/>
  <anchor x="20" y="1500" name="topleft"/>
  <outline>
    <contour>
      <point x="795" y="607" type="line"/>
      <point x="837" y="607" type="line"/>
      <point x="1442" y="1464" type="line"/>
      <point x="1603" y="1464" type="line"/>
      <point x="1603" y="1500" type="line"/>
      <point x="1087" y="1500" type="line"/>
      <point x="1087" y="1464" type="line"/>
      <point x="1391" y="1464" type="line"/>
      <point x="813" y="643" type="line"/>
      <point x="828" y="643" type="line"/>
      <point x="249" y="1464" type="line"/>
      <point x="553" y="1464" type="line"/>
      <point x="553" y="1500" type="line"/>
      <point x="29" y="1500" type="line"/>
      <point x="29" y="1464" type="line"/>
      <point x="190" y="1464" type="line"/>
    </contour>
    <contour>
      <point x="424" y="0" type="line"/>
      <point x="1208" y="0" type="line"/>
      <point x="1208" y="36" type="line"/>
      <point x="840" y="36" type="line"/>
      <point x="840" y="640" type="line"/>
      <point x="792" y="640" type="line"/>
      <point x="792" y="36" type="line"/>
      <point x="424" y="36" type="line"/>
    </contour>
    <contour>
      <point x="764" y="1650" type="line"/>
      <point x="811" y="1650" type="line"/>
      <point x="1047" y="1960" type="line"/>
      <point x="991" y="1960" type="line"/>
    </contour>
  </outline>
</glyph>
<glyph name="Thorn" format="2">
  <advance width="1452"/>
  <unicode hex="00DE"/>
  <outline>
    <contour>
      <point x="42" y="0" type="line"/>
      <point x="642" y="0" type="line"/>
      <point x="642" y="36" type="line"/>
      <point x="366" y="36" type="line"/>
      <point x="366" y="1464" type="line"/>
      <point x="637" y="1464" type="line"/>
      <point x="637" y="1500" type="line"/>
      <point x="47" y="1500" type="line"/>
      <point x="47" y="1464" type="line"/>
      <point x="318" y="1464" type="line"/>
      <point x="318" y="36" type="line"/>
      <point x="42" y="36" type="line"/>
    </contour>
    <contour>
      <point x="366" y="364" type="line"/>
      <point x="884" y="364" type="line" smooth="yes"/>
      <point x="1166" y="364"/>
      <point x="1354" y="502"/>
      <point x="1354" y="773" type="curve" smooth="yes"/>
      <point x="1354" y="1044"/>
      <point x="1166" y="1182"/>
      <point x="884" y="1182" type="curve" smooth="yes"/>
      <point x="366" y="1182" type="line"/>
      <point x="366" y="1144" type="line"/>
      <point x="872" y="1144" type="line" smooth="yes"/>
      <point x="1138" y="1144"/>
      <point x="1306" y="1019"/>
      <point x="1306" y="773" type="curve" smooth="yes"/>
      <point x="1306" y="527"/>
      <point x="1138" y="402"/>
      <point x="872" y="402" type="curve" smooth="yes"/>
      <point x="366" y="402" type="line"/>
    </contour>
  </outline>
</glyph>
<glyph name="ccedilla" format="2">
  <advance width="1127"/>
  <unicode hex="00E7"/>
  <anchor x="560" y="0" name="bottom"/>
  <anchor x="598" y="1080" name="top"/>
  <outline>
    <contour>
      <point x="590" y="-16" type="curve" smooth="yes"/>
      <point x="886" y="-16"/>
      <point x="1015" y="197"/>
      <point x="1031" y="409" type="curve"/>
      <point x="993" y="409" type="line"/>
      <point x="979" y="230"/>
      <point x="860" y="28"/>
      <point x="590" y="28" type="curve" smooth="yes"/>
      <point x="330" y="28"/>
      <point x="160" y="220"/>
      <point x="160" y="540" type="curve" smooth="yes"/>
      <point x="160" y="863"/>
      <point x="338" y="1058"/>
      <point x="604" y="1058" type="curve"/>
      <point x="604" y="1096" type="line"/>
      <point x="312" y="1096"/>
      <point x="110" y="894"/>
      <point x="110" y="540" type="curve" smooth="yes"/>
      <point x="110" y="186"/>
      <point x="305" y="-16"/>
    </contour>
    <contour>
      <point x="944" y="678" type="curve" smooth="yes"/>
      <point x="988" y="678"/>
      <point x="1014" y="707"/>
      <point x="1014" y="772" type="curve" smooth="yes"/>
      <point x="1014" y="932"/>
      <point x="884" y="1096"/>
      <point x="604" y="1096" type="curve"/>
      <point x="604" y="1058" type="line"/>
      <point x="866" y="1058"/>
      <point x="974" y="908"/>
      <point x="970" y="768" type="curve"/>
      <point x="987" y="790" type="line"/>
      <point x="939" y="796"/>
      <point x="890" y="777"/>
      <point x="890" y="730" type="curve" smooth="yes"/>
      <point x="890" y="698"/>
      <point x="911" y="678"/>
    </contour>
    <contour>
      <point x="557" y="-415" type="curve" smooth="yes"/>
      <point x="671" y="-415"/>
      <point x="742" y="-364"/>
      <point x="742" y="-270" type="curve" smooth="yes"/>
      <point x="742" y="-174"/>
      <point x="660" y="-146"/>
      <point x="591" y="-146" type="curve" smooth="yes"/>
      <point x="558" y="-146" type="line"/>
      <point x="582" y="10" type="line"/>
      <point x="538" y="10" type="line"/>
      <point x="507" y="-186" type="line"/>
      <point x="587" y="-186" type="line" smooth="yes"/>
      <point x="649" y="-186"/>
      <point x="694" y="-213"/>
      <point x="694" y="-271" type="curve" smooth="yes"/>
      <point x="694" y="-335"/>
      <point x="655" y="-375"/>
      <point x="557" y="-375" type="curve" smooth="yes"/>
      <point x="502" y="-375"/>
      <point x="448" y="-357"/>
      <point x="406" y="-333" type="curve"/>
      <point x="388" y="-371" type="line"/>
      <point x="433" y="-397"/>
      <point x="492" y="-415"/>
    </contour>
  </outline>
</glyph>
<glyph name="iacute" format="2">
  <advance width="545"/>
  <unicode hex="00ED"/>
  <anchor x="272" y="0" name="bottom"/>
  <anchor x="420" y="0" name="ogonek"/>
  <anchor x="268" y="1080" name="top"/>
  <outline>
    <contour>
      <point x="34" y="0" type="line"/>
      <point x="519" y="0" type="line"/>
      <point x="519" y="36" type="line"/>
      <point x="312" y="36" type="line"/>
      <point x="312" y="1080" type="line"/>
      <point x="57" y="1080" type="line"/>
      <point x="57" y="1044" type="line"/>
      <point x="264" y="1044" type="line"/>
      <point x="264" y="36" type="line"/>
      <point x="34" y="36" type="line"/>
    </contour>
    <contour>
      <point x="216" y="1230" type="line"/>
      <point x="263" y="1230" type="line"/>
      <point x="499" y="1540" type="line"/>
      <point x="443" y="1540" type="line"/>
    </contour>
  </outline>
</glyph>
<glyph name="icircumflex" format="2">
  <advance width="545"/>
  <unicode hex="00EE"/>
  <anchor x="272" y="0" name="bottom"/>
  <anchor x="420" y="0" name="ogonek"/>
  <anchor x="561" y="1310" name="side"/>
  <anchor x="268" y="1520" name="top"/>
  <outline>
    <contour>
      <point x="34" y="0" type="line"/>
      <point x="519" y="0" type="line"/>
      <point x="519" y="36" type="line"/>
      <point x="312" y="36" type="line"/>
      <point x="312" y="1080" type="line"/>
      <point x="57" y="1080" type="line"/>
      <point x="57" y="1044" type="line"/>
      <point x="264" y="1044" type="line"/>
      <point x="264" y="36" type="line"/>
      <point x="34" y="36" type="line"/>
    </contour>
    <contour>
      <point x="5" y="1230" type="line"/>
      <point x="52" y="1230" type="line"/>
      <point x="279" y="1513" type="line"/>
      <point x="254" y="1513" type="line"/>
      <point x="482" y="1230" type="line"/>
      <point x="531" y="1230" type="line"/>
      <point x="285" y="1540" type="line"/>
      <point x="251" y="1540" type="line"/>
    </contour>
  </outline>
</glyph>
<glyph name="idieresis" format="2">
  <advance width="545"/>
  <unicode hex="00EF"/>
  <anchor x="272" y="0" name="bottom"/>
  <anchor x="420" y="0" name="ogonek"/>
  <anchor x="268" y="1450" name="top"/>
  <outline>
    <contour>
      <point x="34" y="0" type="line"/>
      <point x="519" y="0" type="line"/>
      <point x="519" y="36" type="line"/>
      <point x="312" y="36" type="line"/>
      <point x="312" y="1080" type="line"/>
      <point x="57" y="1080" type="line"/>
      <point x="57" y="1044" type="line"/>
      <point x="264" y="1044" type="line"/>
      <point x="264" y="36" type="line"/>
      <point x="34" y="36" type="line"/>
    </contour>
    <contour>
      <point x="457" y="1302" type="curve" smooth="yes"/>
      <point x="493" y="1302"/>
      <point x="516" y="1328"/>
      <point x="516" y="1364" type="curve" smooth="yes"/>
      <point x="516" y="1400"/>
      <point x="493" y="1426"/>
      <point x="457" y="1426" type="curve" smooth="yes"/>
      <point x="421" y="1426"/>
      <point x="398" y="1400"/>
      <point x="398" y="1364" type="curve" smooth="yes"/>
      <point x="398" y="1328"/>
      <point x="421" y="1302"/>
    </contour>
    <contour>
      <point x="79" y="1302" type="curve" smooth="yes"/>
      <point x="115" y="1302"/>
      <point x="138" y="1328"/>
      <point x="138" y="1364" type="curve" smooth="yes"/>
      <point x="138" y="1400"/>
      <point x="115" y="1426"/>
      <point x="79" y="1426" type="curve" smooth="yes"/>
      <point x="43" y="1426"/>
      <point x="20" y="1400"/>
      <point x="20" y="1364" type="curve" smooth="yes"/>
      <point x="20" y="1328"/>
      <point x="43" y="1302"/>
    </contour>
  </outline>
</glyph>
<glyph name="ntilde" format="2">
  <advance width="1256"/>
  <unicode hex="00F1"/>
  <anchor x="625" y="0" name="bottom"/>
  <anchor x="623" y="1458" name="top"/>
  <outline>
    <contour>
      <point x="705" y="0" type="line"/>
      <point x="1232" y="0" type="line"/>
      <point x="1232" y="36" type="line"/>
      <point x="1034" y="36" type="line"/>
      <point x="1034" y="774" type="line" smooth="yes"/>
      <point x="1034" y="998"/>
      <point x="900" y="1096"/>
      <point x="710" y="1096" type="curve" smooth="yes"/>
      <point x="483" y="1096"/>
      <point x="285" y="952"/>
      <point x="285" y="582" type="curve"/>
      <point x="312" y="582" type="line"/>
      <point x="312" y="908"/>
      <point x="503" y="1058"/>
      <point x="708" y="1058" type="curve" smooth="yes"/>
      <point x="881" y="1058"/>
      <point x="986" y="967"/>
      <point x="986" y="774" type="curve" smooth="yes"/>
      <point x="986" y="36" type="line"/>
      <point x="705" y="36" type="line"/>
    </contour>
    <contour>
      <point x="34" y="0" type="line"/>
      <point x="593" y="0" type="line"/>
      <point x="593" y="36" type="line"/>
      <point x="312" y="36" type="line"/>
      <point x="312" y="740" type="line"/>
      <point x="308" y="740" type="line"/>
      <point x="308" y="1080" type="line"/>
      <point x="57" y="1080" type="line"/>
      <point x="57" y="1044" type="line"/>
      <point x="264" y="1044" type="line"/>
      <point x="264" y="36" type="line"/>
      <point x="34" y="36" type="line"/>
    </contour>
    <contour>
      <point x="761" y="1238" type="curve" smooth="yes"/>
      <point x="846" y="1238"/>
      <point x="885" y="1300"/>
      <point x="885" y="1405" type="curve" smooth="yes"/>
      <point x="885" y="1480" type="line"/>
      <point x="847" y="1480" type="line"/>
      <point x="847" y="1409" type="line" smooth="yes"/>
      <point x="847" y="1318"/>
      <point x="818" y="1278"/>
      <point x="761" y="1278" type="curve" smooth="yes"/>
      <point x="710" y="1278"/>
      <point x="678" y="1322"/>
      <point x="649" y="1364" type="curve" smooth="yes"/>
      <point x="630" y="1392" type="line"/>
      <point x="597" y="1366" type="line"/>
      <point x="616" y="1338" type="line" smooth="yes"/>
      <point x="648" y="1290"/>
      <point x="690" y="1238"/>
    </contour>
    <contour>
      <point x="361" y="1325" type="curve" smooth="yes"/>
      <point x="361" y="1250" type="line"/>
      <point x="399" y="1250" type="line"/>
      <point x="399" y="1321" type="line" smooth="yes"/>
      <point x="399" y="1412"/>
      <point x="428" y="1452"/>
      <point x="485" y="1452" type="curve" smooth="yes"/>
      <point x="536" y="1452"/>
      <point x="568" y="1408"/>
      <point x="597" y="1366" type="curve" smooth="yes"/>
      <point x="616" y="1338" type="line"/>
      <point x="649" y="1364" type="line"/>
      <point x="630" y="1392" type="line" smooth="yes"/>
      <point x="598" y="1440"/>
      <point x="556" y="1492"/>
      <point x="485" y="1492" type="curve" smooth="yes"/>
      <point x="400" y="1492"/>
      <point x="361" y="1430"/>
    </contour>
  </outline>
</glyph>
<glyph name="oacute" format="2">
  <advance width="1212"/>
  <unicode hex="00F3"/>
  <anchor x="606" y="0" name="bottom"/>
  <anchor x="845" y="0" name="ogonek"/>
  <anchor x="606" y="1080" name="top"/>
  <anchor x="996" y="920" name="topright"/>
  <outline>
    <contour>
      <point x="606" y="-16" type="curve" smooth="yes"/>
      <point x="898" y="-16"/>
      <point x="1102" y="186"/>
      <point x="1102" y="540" type="curve" smooth="yes"/>
      <point x="1102" y="894"/>
      <point x="898" y="1096"/>
      <point x="606" y="1096" type="curve" smooth="yes"/>
      <point x="314" y="1096"/>
      <point x="110" y="894"/>
      <point x="110" y="540" type="curve" smooth="yes"/>
      <point x="110" y="186"/>
      <point x="314" y="-16"/>
    </contour>
    <contour>
      <point x="606" y="22" type="curve" smooth="yes"/>
      <point x="340" y="22"/>
      <point x="158" y="217"/>
      <point x="158" y="540" type="curve" smooth="yes"/>
      <point x="158" y="863"/>
      <point x="340" y="1058"/>
      <point x="606" y="1058" type="curve" smooth="yes"/>
      <point x="872" y="1058"/>
      <point x="1054" y="863"/>
      <point x="1054" y="540" type="curve" smooth="yes"/>
      <point x="1054" y="217"/>
      <point x="872" y="22"/>
    </contour>
    <contour>
      <point x="554" y="1230" type="line"/>
      <point x="601" y="1230" type="line"/>
      <point x="837" y="1540" type="line"/>
      <point x="781" y="1540" type="line"/>
    </contour>
  </outline>
</glyph>
<glyph name="divide" format="2">
  <advance width="1142"/>
  <unicode hex="00F7"/>
  <outline>
    <contour>
      <point x="120" y="732" type="line"/>
      <point x="1022" y="732" type="line"/>
      <point x="1022" y="772" type="line"/>
      <point x="120" y="772" type="line"/>
    </contour>
    <contour>
      <point x="571" y="348" type="curve" smooth="yes"/>
      <point x="607" y="348"/>
      <point x="630" y="374"/>
      <point x="630" y="410" type="curve" smooth="yes"/>
      <point x="630" y="446"/>
      <point x="607" y="472"/>
      <point x="571" y="472" type="curve" smooth="yes"/>
      <point x="535" y="472"/>
      <point x="512" y="446"/>
      <point x="512" y="410" type="curve" smooth="yes"/>
      <point x="512" y="374"/>
      <point x="535" y="348"/>
    </contour>
    <contour>
      <point x="571" y="1032" type="curve" smooth="yes"/>
      <point x="607" y="1032"/>
      <point x="630" y="1058"/>
      <point x="630" y="1094" type="curve" smooth="yes"/>
      <point x="630" y="1130"/>
      <point x="607" y="1156"/>
      <point x="571" y="1156" type="curve" smooth="yes"/>
      <point x="535" y="1156"/>
      <point x="512" y="1130"/>
      <point x="512" y="1094" type="curve" smooth="yes"/>
      <point x="512" y="1058"/>
      <point x="535" y="1032"/>
    </contour>
  </outline>
</glyph>
<glyph name="ucircumflex" format="2">
  <advance width="1243"/>
  <unicode hex="00FB"/>
  <anchor x="629" y="0" name="bottom"/>
  <anchor x="1109" y="0" name="ogonek"/>
  <anchor x="876" y="1310" name="side"/>
  <anchor x="583" y="1520" name="top"/>
  <anchor x="1010" y="1080" name="topright"/>
  <outline>
    <contour>
      <point x="560" y="-16" type="curve" smooth="yes"/>
      <point x="789" y="-16"/>
      <point x="989" y="128"/>
      <point x="989" y="498" type="curve"/>
      <point x="962" y="498" type="line"/>
      <point x="962" y="172"/>
      <point x="769" y="22"/>
      <point x="562" y="22" type="curve" smooth="yes"/>
      <point x="387" y="22"/>
      <point x="280" y="113"/>
      <point x="280" y="306" type="curve" smooth="yes"/>
      <point x="280" y="1080" type="line"/>
      <point x="34" y="1080" type="line"/>
      <point x="34" y="1044" type="line"/>
      <point x="232" y="1044" type="line"/>
      <point x="232" y="306" type="line" smooth="yes"/>
      <point x="232" y="82"/>
      <point x="368" y="-16"/>
    </contour>
    <contour>
      <point x="970" y="0" type="line"/>
      <point x="1217" y="0" type="line"/>
      <point x="1217" y="36" type="line"/>
      <point x="1010" y="36" type="line"/>
      <point x="1010" y="1080" type="line"/>
      <point x="755" y="1080" type="line"/>
      <point x="755" y="1044" type="line"/>
      <point x="962" y="1044" type="line"/>
      <point x="962" y="380" type="line"/>
      <point x="970" y="380" type="line"/>
    </contour>
    <contour>
      <point x="320" y="1230" type="line"/>
      <point x="367" y="1230" type="line"/>
      <point x="594" y="1513" type="line"/>
      <point x="569" y="1513" type="line"/>
      <point x="797" y="1230" type="line"/>
      <point x="846" y="1230" type="line"/>
      <point x="600" y="1540" type="line"/>
      <point x="566" y="1540" type="line"/>
    </contour>
  </outline>
</glyph>
<glyph name="udieresis" format="2">
  <advance width="1243"/>
  <unicode hex="00FC"/>
  <anchor x="629" y="0" name="bottom"/>
  <anchor x="1109" y="0" name="ogonek"/>
  <anchor x="583" y="1450" name="top"/>
  <anchor x="1010" y="1080" name="topright"/>
  <outline>
    <contour>
      <point x="560" y="-16" type="curve" smooth="yes"/>
      <point x="789" y="-16"/>
      <point x="989" y="128"/>
      <point x="989" y="498" type="curve"/>
      <point x="962" y="498" type="line"/>
      <point x="962" y="172"/>
      <point x="769" y="22"/>
      <point x="562" y="22" type="curve" smooth="yes"/>
      <point x="387" y="22"/>
      <point x="280" y="113"/>
      <point x="280" y="306" type="curve" smooth="yes"/>
      <point x="280" y="1080" type="line"/>
      <point x="34" y="1080" type="line"/>
      <point x="34" y="1044" type="line"/>
      <point x="232" y="1044" type="line"/>
      <point x="232" y="306" type="line" smooth="yes"/>
      <point x="232" y="82"/>
      <point x="368" y="-16"/>
    </contour>
    <contour>
      <point x="970" y="0" type="line"/>
      <point x="1217" y="0" type="line"/>
      <point x="1217" y="36" type="line"/>
      <point x="1010" y="36" type="line"/>
      <point x="1010" y="1080" type="line"/>
      <point x="755" y="1080" type="line"/>
      <point x="755" y="1044" type="line"/>
      <point x="962" y="1044" type="line"/>
      <point x="962" y="380" type="line"/>
      <point x="970" y="380" type="line"/>
    </contour>
    <contour>
      <point x="772" y="1302" type="curve" smooth="yes"/>
      <point x="808" y="1302"/>
      <point x="831" y="1328"/>
      <point x="831" y="1364" type="curve" smooth="yes"/>
      <point x="831" y="1400"/>
      <point x="808" y="1426"/>
      <point x="772" y="1426" type="curve" smooth="yes"/>
      <point x="736" y="1426"/>
      <point x="713" y="1400"/>
      <point x="713" y="1364" type="curve" smooth="yes"/>
      <point x="713" y="1328"/>
      <point x="736" y="1302"/>
    </contour>
    <contour>
      <point x="394" y="1302" type="curve" smooth="yes"/>
      <point x="430" y="1302"/>
      <point x="453" y="1328"/>
      <point x="453" y="1364" type="curve" smooth="yes"/>
      <point x="453" y="1400"/>
      <point x="430" y="1426"/>
      <point x="394" y="1426" type="curve" smooth="yes"/>
      <point x="358" y="1426"/>
      <point x="335" y="1400"/>
      <point x="335" y="1364" type="curve" smooth="yes"/>
      <point x="335" y="1328"/>
      <point x="358" y="1302"/>
    </contour>
  </outline>
</glyph>
<glyph name="yacute" format="2">
  <advance width="1168"/>
  <unicode hex="00FD"/>
  <anchor x="784" y="0" name="bottom"/>
  <anchor x="586" y="1080" name="top"/>
  <outline>
    <contour>
      <point x="266" y="-380" type="curve"/>
      <point x="266" y="-420" type="line"/>
      <point x="425" y="-420"/>
      <point x="488" y="-315"/>
      <point x="550" y="-154" type="curve" smooth="yes"/>
      <point x="1010" y="1044" type="line"/>
      <point x="1156" y="1044" type="line"/>
      <point x="1156" y="1080" type="line"/>
      <point x="722" y="1080" type="line"/>
      <point x="722" y="1044" type="line"/>
      <point x="967" y="1044" type="line"/>
      <point x="586" y="45" type="line"/>
      <point x="574" y="21" type="line"/>
      <point x="511" y="-142" type="line" smooth="yes"/>
      <point x="458" y="-279"/>
      <point x="402" y="-380"/>
    </contour>
    <contour>
      <point x="266" y="-420" type="curve"/>
      <point x="266" y="-380" type="line"/>
      <point x="154" y="-380"/>
      <point x="88" y="-317"/>
      <point x="89" y="-216" type="curve"/>
      <point x="70" y="-231" type="line"/>
      <point x="128" y="-236"/>
      <point x="174" y="-218"/>
      <point x="174" y="-171" type="curve" smooth="yes"/>
      <point x="174" y="-139"/>
      <point x="152" y="-119"/>
      <point x="120" y="-119" type="curve" smooth="yes"/>
      <point x="77" y="-119"/>
      <point x="44" y="-154"/>
      <point x="44" y="-211" type="curve" smooth="yes"/>
      <point x="44" y="-351"/>
      <point x="137" y="-420"/>
    </contour>
    <contour>
      <point x="573" y="-36" type="line"/>
      <point x="591" y="45" type="line"/>
      <point x="209" y="1044" type="line"/>
      <point x="454" y="1044" type="line"/>
      <point x="454" y="1080" type="line"/>
      <point x="12" y="1080" type="line"/>
      <point x="12" y="1044" type="line"/>
      <point x="158" y="1044" type="line"/>
    </contour>
    <contour>
      <point x="534" y="1230" type="line"/>
      <point x="581" y="1230" type="line"/>
      <point x="817" y="1540" type="line"/>
      <point x="761" y="1540" type="line"/>
    </contour>
  </outline>
</glyph>
<glyph name="thorn" format="2">
  <advance width="1302"/>
  <unicode hex="00FE"/>
  <outline>
    <contour>
      <point x="720" y="-16" type="curve" smooth="yes"/>
      <point x="994" y="-16"/>
      <point x="1192" y="194"/>
      <point x="1192" y="540" type="curve" smooth="yes"/>
      <point x="1192" y="886"/>
      <point x="994" y="1096"/>
      <point x="720" y="1096" type="curve" smooth="yes"/>
      <point x="427" y="1096"/>
      <point x="262" y="887"/>
      <point x="262" y="541" type="curve" smooth="yes"/>
      <point x="262" y="539" type="line" smooth="yes"/>
      <point x="262" y="193"/>
      <point x="426" y="-16"/>
    </contour>
    <contour>
      <point x="720" y="22" type="curve" smooth="yes"/>
      <point x="468" y="22"/>
      <point x="288" y="215"/>
      <point x="288" y="540" type="curve" smooth="yes"/>
      <point x="288" y="865"/>
      <point x="468" y="1058"/>
      <point x="720" y="1058" type="curve" smooth="yes"/>
      <point x="968" y="1058"/>
      <point x="1144" y="865"/>
      <point x="1144" y="540" type="curve" smooth="yes"/>
      <point x="1144" y="215"/>
      <point x="968" y="22"/>
    </contour>
    <contour>
      <point x="14" y="-420" type="line"/>
      <point x="660" y="-420" type="line"/>
      <point x="660" y="-384" type="line"/>
      <point x="292" y="-384" type="line"/>
      <point x="292" y="324" type="line"/>
      <point x="276" y="540" type="line"/>
      <point x="292" y="736" type="line"/>
      <point x="292" y="1500" type="line"/>
      <point x="37" y="1500" type="line"/>
      <point x="37" y="1464" type="line"/>
      <point x="244" y="1464" type="line"/>
      <point x="244" y="-384" type="line"/>
      <point x="14" y="-384" type="line"/>
    </contour>
  </outline>
</glyph>
<glyph name="ydieresis" format="2">
  <advance width="1168"/>
  <unicode hex="00FF"/>
  <anchor x="784" y="0" name="bottom"/>
  <anchor x="586" y="1450" name="top"/>
  <outline>
    <contour>
      <point x="266" y="-380" type="curve"/>
      <point x="266" y="-420" type="line"/>
      <point x="425" y="-420"/>
      <point x="488" y="-315"/>
      <point x="550" y="-154" type="curve" smooth="yes"/>
      <point x="1010" y="1044" type="line"/>
      <point x="1156" y="1044" type="line"/>
      <point x="1156" y="1080" type="line"/>
      <point x="722" y="1080" type="line"/>
      <point x="722" y="1044" type="line"/>
      <point x="967" y="1044" type="line"/>
      <point x="586" y="45" type="line"/>
      <point x="574" y="21" type="line"/>
      <point x="511" y="-142" type="line" smooth="yes"/>
      <point x="458" y="-279"/>
      <point x="402" y="-380"/>
    </contour>
    <contour>
      <point x="266" y="-420" type="curve"/>
      <point x="266" y="-380" type="line"/>
      <point x="154" y="-380"/>
      <point x="88" y="-317"/>
      <point x="89" y="-216" type="curve"/>
      <point x="70" y="-231" type="line"/>
      <point x="128" y="-236"/>
      <point x="174" y="-218"/>
      <point x="174" y="-171" type="curve" smooth="yes"/>
      <point x="174" y="-139"/>
      <point x="152" y="-119"/>
      <point x="120" y="-119" type="curve" smooth="yes"/>
      <point x="77" y="-119"/>
      <point x="44" y="-154"/>
      <point x="44" y="-211" type="curve" smooth="yes"/>
      <point x="44" y="-351"/>
      <point x="137" y="-420"/>
    </contour>
    <contour>
      <point x="573" y="-36" type="line"/>
      <point x="591" y="45" type="line"/>
      <point x="209" y="1044" type="line"/>
      <point x="454" y="1044" type="line"/>
      <point x="454" y="1080" type="line"/>
      <point x="12" y="1080" type="line"/>
      <point x="12" y="1044" type="line"/>
      <point x="158" y="1044" type="line"/>
    </contour>
    <contour>
      <point x="775" y="1302" type="curve" smooth="yes"/>
      <point x="811" y="1302"/>
      <point x="834" y="1328"/>
      <point x="834" y="1364" type="curve" smooth="yes"/>
      <point x="834" y="1400"/>
      <point x="811" y="1426"/>
      <point x="775" y="1426" type="curve" smooth="yes"/>
      <point x="739" y="1426"/>
      <point x="716" y="1400"/>
      <point x="716" y="1364" type="curve" smooth="yes"/>
      <point x="716" y="1328"/>
      <point x="739" y="1302"/>
    </contour>
    <contour>
      <point x="397" y="1302" type="curve" smooth="yes"/>
      <point x="433" y="1302"/>
      <point x="456" y="1328"/>
      <point x="456" y="1364" type="curve" smooth="yes"/>
      <point x="456" y="1400"/>
      <point x="433" y="1426"/>
      <point x="397" y="1426" type="curve" smooth="yes"/>
      <point x="361" y="1426"/>
      <point x="338" y="1400"/>
      <point x="338" y="1364" type="curve" smooth="yes"/>
      <point x="338" y="1328"/>
      <point x="361" y="1302"/>
    </contour>
  </outline>
</glyph>
<glyph name="Amacron" format="2">
  <advance width="1654"/>
  <unicode hex="0100"/>
  <anchor x="827" y="0" name="bottom"/>
  <anchor x="1543" y="0" name="ogonek"/>
  <anchor x="827" y="1500" name="top"/>
  <outline>
    <contour>
      <point x="29" y="0" type="line"/>
      <point x="546" y="0" type="line"/>
      <point x="546" y="36" type="line"/>
      <point x="255" y="36" type="line"/>
      <point x="831" y="1453" type="line"/>
      <point x="814" y="1453" type="line"/>
      <point x="1390" y="36" type="line"/>
      <point x="1099" y="36" type="line"/>
      <point x="1099" y="0" type="line"/>
      <point x="1625" y="0" type="line"/>
      <point x="1625" y="36" type="line"/>
      <point x="1442" y="36" type="line"/>
      <point x="845" y="1500" type="line"/>
      <point x="809" y="1500" type="line"/>
      <point x="212" y="36" type="line"/>
      <point x="29" y="36" type="line"/>
    </contour>
    <contour>
      <point x="437" y="520" type="line"/>
      <point x="1213" y="520" type="line"/>
      <point x="1213" y="558" type="line"/>
      <point x="437" y="558" type="line"/>
    </contour>
    <contour>
      <point x="537" y="1700" type="line"/>
      <point x="1117" y="1700" type="line"/>
      <point x="1117" y="1740" type="line"/>
      <point x="537" y="1740" type="line"/>
    </contour>
  </outline>
</glyph>
<glyph name="Abreve" format="2">
  <advance width="1654"/>
  <unicode hex="0102"/>
  <anchor x="827" y="0" name="bottom"/>
  <anchor x="1543" y="0" name="ogonek"/>
  <anchor x="827" y="1900" name="side"/>
  <anchor x="827" y="1940" name="top"/>
  <outline>
    <contour>
      <point x="29" y="0" type="line"/>
      <point x="546" y="0" type="line"/>
      <point x="546" y="36" type="line"/>
      <point x="255" y="36" type="line"/>
      <point x="831" y="1453" type="line"/>
      <point x="814" y="1453" type="line"/>
      <point x="1390" y="36" type="line"/>
      <point x="1099" y="36" type="line"/>
      <point x="1099" y="0" type="line"/>
      <point x="1625" y="0" type="line"/>
      <point x="1625" y="36" type="line"/>
      <point x="1442" y="36" type="line"/>
      <point x="845" y="1500" type="line"/>
      <point x="809" y="1500" type="line"/>
      <point x="212" y="36" type="line"/>
      <point x="29" y="36" type="line"/>
    </contour>
    <contour>
      <point x="437" y="520" type="line"/>
      <point x="1213" y="520" type="line"/>
      <point x="1213" y="558" type="line"/>
      <point x="437" y="558" type="line"/>
    </contour>
    <contour>
      <point x="827" y="1640" type="curve" smooth="yes"/>
      <point x="1009" y="1640"/>
      <point x="1097" y="1774"/>
      <point x="1097" y="1960" type="curve"/>
      <point x="1059" y="1960" type="line"/>
      <point x="1059" y="1806"/>
      <point x="981" y="1678"/>
      <point x="827" y="1678" type="curve" smooth="yes"/>
      <point x="673" y="1678"/>
      <point x="605" y="1806"/>
      <point x="605" y="1960" type="curve"/>
      <point x="567" y="1960" type="line"/>
      <point x="567" y="1774"/>
      <point x="645" y="1640"/>
    </contour>
  </outline>
</glyph>
<glyph name="Aogonek" format="2">
  <advance width="1654"/>
  <unicode hex="0104"/>
  <anchor x="827" y="0" name="bottom"/>
  <anchor x="1543" y="0" name="ogonek"/>
  <anchor x="827" y="1500" name="top"/>
  <outline>
    <contour>
      <point x="29" y="0" type="line"/>
      <point x="546" y="0" type="line"/>
      <point x="546" y="36" type="line"/>
      <point x="255" y="36" type="line"/>
      <point x="831" y="1453" type="line"/>
      <point x="814" y="1453" type="line"/>
      <point x="1390" y="36" type="line"/>
      <point x="1099" y="36" type="line"/>
      <point x="1099" y="0" type="line"/>
      <point x="1625" y="0" type="line"/>
      <point x="1625" y="36" type="line"/>
      <point x="1442" y="36" type="line"/>
      <point x="845" y="1500" type="line"/>
      <point x="809" y="1500" type="line"/>
      <point x="212" y="36" type="line"/>
      <point x="29" y="36" type="line"/>
    </contour>
    <contour>
      <point x="437" y="520" type="line"/>
      <point x="1213" y="520" type="line"/>
      <point x="1213" y="558" type="line"/>
      <point x="437" y="558" type="line"/>
    </contour>
    <contour>
      <point x="1423" y="-395" type="curve" smooth="yes"/>
      <point x="1498" y="-395"/>
      <point x="1543" y="-365"/>
      <point x="1572" y="-340" type="curve"/>
      <point x="1549" y="-311" type="line"/>
      <point x="1506" y="-342"/>
      <point x="1477" y="-357"/>
      <point x="1425" y="-357" type="curve" smooth="yes"/>
      <point x="1360" y="-357"/>
      <point x="1317" y="-314"/>
      <point x="1317" y="-244" type="curve" smooth="yes"/>
      <point x="1317" y="-156"/>
      <point x="1361" y="-84"/>
      <point x="1433" y="0" type="curve"/>
      <point x="1406" y="24" type="line"/>
      <point x="1337" y="-56"/>
      <point x="1273" y="-142"/>
      <point x="1273" y="-248" type="curve" smooth="yes"/>
      <point x="1273" y="-338"/>
      <point x="1335" y="-395"/>
    </contour>
  </outline>
</glyph>
<glyph name="aogonek" format="2">
  <advance width="1294"/>
  <unicode hex="0105"/>
  <anchor x="646" y="0" name="bottom"/>
  <anchor x="1171" y="0" name="ogonek"/>
  <anchor x="566" y="1080" name="top"/>
  <outline>
    <contour>
      <point x="267" y="710" type="curve" smooth="yes"/>
      <point x="301" y="710"/>
      <point x="321" y="731"/>
      <point x="321" y="765" type="curve" smooth="yes"/>
      <point x="321" y="809"/>
      <point x="269" y="834"/>
      <point x="218" y="827" type="curve"/>
      <point x="235" y="811" type="line"/>
      <point x="229" y="993"/>
      <point x="393" y="1058"/>
      <point x="570" y="1058" type="curve" smooth="yes"/>
      <point x="781" y="1058"/>
      <point x="872" y="967"/>
      <point x="872" y="818" type="curve"/>
      <point x="920" y="800" type="line"/>
      <point x="920" y="1005"/>
      <point x="794" y="1096"/>
      <point x="572" y="1096" type="curve" smooth="yes"/>
      <point x="372" y="1096"/>
      <point x="190" y="1013"/>
      <point x="190" y="812" type="curve" smooth="yes"/>
      <point x="190" y="747"/>
      <point x="223" y="710"/>
    </contour>
    <contour>
      <point x="1040" y="-16" type="curve" smooth="yes"/>
      <point x="1142" y="-16"/>
      <point x="1204" y="50"/>
      <point x="1204" y="166" type="curve" smooth="yes"/>
      <point x="1204" y="660" type="line"/>
      <point x="1160" y="660" type="line"/>
      <point x="1160" y="166" type="line" smooth="yes"/>
      <point x="1160" y="82"/>
      <point x="1119" y="24"/>
      <point x="1040" y="24" type="curve" smooth="yes"/>
      <point x="961" y="24"/>
      <point x="920" y="82"/>
      <point x="920" y="166" type="curve" smooth="yes"/>
      <point x="920" y="800" type="line"/>
      <point x="872" y="818" type="line"/>
      <point x="872" y="761" type="line"/>
      <point x="862" y="704" type="line"/>
      <point x="872" y="704" type="line"/>
      <point x="872" y="380" type="line"/>
      <point x="876" y="380" type="line"/>
      <point x="876" y="166" type="line" smooth="yes"/>
      <point x="876" y="50"/>
      <point x="938" y="-16"/>
    </contour>
    <contour>
      <point x="446" y="-16" type="curve" smooth="yes"/>
      <point x="711" y="-16"/>
      <point x="901" y="140"/>
      <point x="899" y="536" type="curve"/>
      <point x="872" y="536" type="line"/>
      <point x="872" y="162"/>
      <point x="680" y="22"/>
      <point x="452" y="22" type="curve" smooth="yes"/>
      <point x="284" y="22"/>
      <point x="164" y="107"/>
      <point x="164" y="255" type="curve" smooth="yes"/>
      <point x="164" y="415"/>
      <point x="269" y="486"/>
      <point x="458" y="528" type="curve" smooth="yes"/>
      <point x="612" y="562" type="line" smooth="yes"/>
      <point x="767" y="596"/>
      <point x="835" y="628"/>
      <point x="872" y="704" type="curve"/>
      <point x="882" y="704" type="line"/>
      <point x="872" y="810" type="line"/>
      <point x="872" y="666"/>
      <point x="761" y="634"/>
      <point x="604" y="599" type="curve" smooth="yes"/>
      <point x="442" y="563" type="line" smooth="yes"/>
      <point x="249" y="520"/>
      <point x="116" y="443"/>
      <point x="116" y="255" type="curve" smooth="yes"/>
      <point x="116" y="86"/>
      <point x="250" y="-16"/>
    </contour>
    <contour>
      <point x="1051" y="-395" type="curve" smooth="yes"/>
      <point x="1126" y="-395"/>
      <point x="1171" y="-365"/>
      <point x="1200" y="-340" type="curve"/>
      <point x="1177" y="-311" type="line"/>
      <point x="1134" y="-342"/>
      <point x="1105" y="-357"/>
      <point x="1053" y="-357" type="curve" smooth="yes"/>
      <point x="988" y="-357"/>
      <point x="945" y="-314"/>
      <point x="945" y="-244" type="curve" smooth="yes"/>
      <point x="945" y="-156"/>
      <point x="989" y="-84"/>
      <point x="1061" y="0" type="curve"/>
      <point x="1034" y="24" type="line"/>
      <point x="965" y="-56"/>
      <point x="901" y="-142"/>
      <point x="901" y="-248" type="curve" smooth="yes"/>
      <point x="901" y="-338"/>
      <point x="963" y="-395"/>
    </contour>
  </outline>
</glyph>
<glyph name="ccircumflex" format="2">
  <advance width="1127"/>
  <unicode hex="0109"/>
  <anchor x="560" y="0" name="bottom"/>
  <anchor x="891" y="1310" name="side"/>
  <anchor x="598" y="1520" name="top"/>
  <outline>
    <contour>
      <point x="590" y="-16" type="curve" smooth="yes"/>
      <point x="886" y="-16"/>
      <point x="1015" y="197"/>
      <point x="1031" y="409" type="curve"/>
      <point x="993" y="409" type="line"/>
      <point x="979" y="230"/>
      <point x="860" y="28"/>
      <point x="590" y="28" type="curve" smooth="yes"/>
      <point x="330" y="28"/>
      <point x="160" y="220"/>
      <point x="160" y="540" type="curve" smooth="yes"/>
      <point x="160" y="863"/>
      <point x="338" y="1058"/>
      <point x="604" y="1058" type="curve"/>
      <point x="604" y="1096" type="line"/>
      <point x="312" y="1096"/>
      <point x="110" y="894"/>
      <point x="110" y="540" type="curve" smooth="yes"/>
      <point x="110" y="186"/>
      <point x="305" y="-16"/>
    </contour>
    <contour>
      <point x="944" y="678" type="curve" smooth="yes"/>
      <point x="988" y="678"/>
      <point x="1014" y="707"/>
      <point x="1014" y="772" type="curve" smooth="yes"/>
      <point x="1014" y="932"/>
      <point x="884" y="1096"/>
      <point x="604" y="1096" type="curve"/>
      <point x="604" y="1058" type="line"/>
      <point x="866" y="1058"/>
      <point x="974" y="908"/>
      <point x="970" y="768" type="curve"/>
      <point x="987" y="790" type="line"/>
      <point x="939" y="796"/>
      <point x="890" y="777"/>
      <point x="890" y="730" type="curve" smooth="yes"/>
      <point x="890" y="698"/>
      <point x="911" y="678"/>
    </contour>
    <contour>
      <point x="335" y="1230" type="line"/>
      <point x="382" y="1230" type="line"/>
      <point x="609" y="1513" type="line"/>
      <point x="584" y="1513" type="line"/>
      <point x="812" y="1230" type="line"/>
      <point x="861" y="1230" type="line"/>
      <point x="615" y="1540" type="line"/>
      <point x="581" y="1540" type="line"/>
    </contour>
  </outline>
</glyph>
<glyph name="Cdotaccent" format="2">
  <advance width="1610"/>
  <unicode hex="010A"/>
  <anchor x="806" y="0" name="bottom"/>
  <anchor x="848" y="1862" name="top"/>
  <outline>
    <contour>
      <point x="834" y="-24" type="curve" smooth="yes"/>
      <point x="1237" y="-24"/>
      <point x="1452" y="262"/>
      <point x="1460" y="588" type="curve"/>
      <point x="1420" y="588" type="line"/>
      <point x="1408" y="279"/>
      <point x="1210" y="14"/>
      <point x="834" y="14" type="curve" smooth="yes"/>
      <point x="465" y="14"/>
      <point x="180" y="302"/>
      <point x="180" y="750" type="curve" smooth="yes"/>
      <point x="180" y="1198"/>
      <point x="461" y="1486"/>
      <point x="824" y="1486" type="curve" smooth="yes"/>
      <point x="1210" y="1486"/>
      <point x="1385" y="1223"/>
      <point x="1406" y="940" type="curve"/>
      <point x="1432" y="940" type="line"/>
      <point x="1423" y="1287"/>
      <point x="1200" y="1524"/>
      <point x="824" y="1524" type="curve" smooth="yes"/>
      <point x="435" y="1524"/>
      <point x="132" y="1239"/>
      <point x="132" y="750" type="curve" smooth="yes"/>
      <point x="132" y="261"/>
      <point x="439" y="-24"/>
    </contour>
    <contour>
      <point x="1432" y="940" type="line"/>
      <point x="1450" y="940" type="line"/>
      <point x="1450" y="1500" type="line"/>
      <point x="1410" y="1500" type="line"/>
      <point x="1410" y="994" type="line"/>
    </contour>
    <contour>
      <point x="848" y="1722" type="curve" smooth="yes"/>
      <point x="884" y="1722"/>
      <point x="907" y="1748"/>
      <point x="907" y="1784" type="curve" smooth="yes"/>
      <point x="907" y="1820"/>
      <point x="884" y="1846"/>
      <point x="848" y="1846" type="curve" smooth="yes"/>
      <point x="812" y="1846"/>
      <point x="789" y="1820"/>
      <point x="789" y="1784" type="curve" smooth="yes"/>
      <point x="789" y="1748"/>
      <point x="812" y="1722"/>
    </contour>
  </outline>
</glyph>
<glyph name="Dcroat" format="2">
  <advance width="1593"/>
  <unicode hex="0110"/>
  <anchor x="746" y="0" name="bottom"/>
  <anchor x="299" y="750" name="stroke"/>
  <anchor x="746" y="1500" name="top"/>
  <outline>
    <contour>
      <point x="347" y="0" type="line"/>
      <point x="695" y="0" type="line" smooth="yes"/>
      <point x="1157" y="0"/>
      <point x="1461" y="275"/>
      <point x="1461" y="750" type="curve" smooth="yes"/>
      <point x="1461" y="1225"/>
      <point x="1157" y="1500"/>
      <point x="695" y="1500" type="curve" smooth="yes"/>
      <point x="347" y="1500" type="line"/>
      <point x="347" y="1462" type="line"/>
      <point x="695" y="1462" type="line" smooth="yes"/>
      <point x="1129" y="1462"/>
      <point x="1413" y="1185"/>
      <point x="1413" y="750" type="curve" smooth="yes"/>
      <point x="1413" y="315"/>
      <point x="1129" y="38"/>
      <point x="695" y="38" type="curve" smooth="yes"/>
      <point x="347" y="38" type="line"/>
    </contour>
    <contour>
      <point x="46" y="0" type="line"/>
      <point x="347" y="0" type="line"/>
      <point x="347" y="1500" type="line"/>
      <point x="51" y="1500" type="line"/>
      <point x="51" y="1464" type="line"/>
      <point x="299" y="1464" type="line"/>
      <point x="299" y="36" type="line"/>
      <point x="46" y="36" type="line"/>
    </contour>
    <contour>
      <point x="46" y="730" type="line"/>
      <point x="716" y="730" type="line"/>
      <point x="716" y="770" type="line"/>
      <point x="46" y="770" type="line"/>
    </contour>
  </outline>
</glyph>
<glyph name="edotaccent" format="2">
  <advance width="1158"/>
  <unicode hex="0117"/>
  <anchor x="579" y="0" name="bottom"/>
  <anchor x="831" y="0" name="ogonek"/>
  <anchor x="579" y="1442" name="top"/>
  <outline>
    <contour>
      <point x="594" y="-16" type="curve" smooth="yes"/>
      <point x="902" y="-16"/>
      <point x="1024" y="214"/>
      <point x="1039" y="380" type="curve"/>
      <point x="1001" y="380" type="line"/>
      <point x="987" y="235"/>
      <point x="875" y="28"/>
      <point x="594" y="28" type="curve" smooth="yes"/>
      <point x="334" y="28"/>
      <point x="160" y="217"/>
      <point x="160" y="540" type="curve" smooth="yes"/>
      <point x="160" y="863"/>
      <point x="332" y="1058"/>
      <point x="594" y="1058" type="curve"/>
      <point x="594" y="1096" type="line"/>
      <point x="306" y="1096"/>
      <point x="110" y="894"/>
      <point x="110" y="540" type="curve" smooth="yes"/>
      <point x="110" y="186"/>
      <point x="306" y="-16"/>
    </contour>
    <contour>
      <point x="144" y="586" type="line"/>
      <point x="1048" y="586" type="line"/>
      <point x="1048" y="600" type="line"/>
      <point x="1004" y="624" type="line"/>
      <point x="144" y="624" type="line"/>
    </contour>
    <contour>
      <point x="1004" y="624" type="curve"/>
      <point x="1048" y="600" type="line"/>
      <point x="1048" y="892"/>
      <point x="893" y="1096"/>
      <point x="594" y="1096" type="curve"/>
      <point x="594" y="1058" type="line"/>
      <point x="865" y="1058"/>
      <point x="994" y="864"/>
    </contour>
    <contour>
      <point x="579" y="1302" type="curve" smooth="yes"/>
      <point x="615" y="1302"/>
      <point x="638" y="1328"/>
      <point x="638" y="1364" type="curve" smooth="yes"/>
      <point x="638" y="1400"/>
      <point x="615" y="1426"/>
      <point x="579" y="1426" type="curve" smooth="yes"/>
      <point x="543" y="1426"/>
      <point x="520" y="1400"/>
      <point x="520" y="1364" type="curve" smooth="yes"/>
      <point x="520" y="1328"/>
      <point x="543" y="1302"/>
    </contour>
  </outline>
</glyph>
<glyph name="Eogonek" format="2">
  <advance width="1489"/>
  <unicode hex="0118"/>
  <anchor x="745" y="0" name="bottom"/>
  <anchor x="1331" y="0" name="ogonek"/>
  <anchor x="766" y="1500" name="top"/>
  <outline>
    <contour>
      <point x="46" y="0" type="line"/>
      <point x="347" y="0" type="line"/>
      <point x="347" y="1500" type="line"/>
      <point x="51" y="1500" type="line"/>
      <point x="51" y="1464" type="line"/>
      <point x="299" y="1464" type="line"/>
      <point x="299" y="36" type="line"/>
      <point x="46" y="36" type="line"/>
    </contour>
    <contour>
      <point x="347" y="0" type="line"/>
      <point x="1331" y="0" type="line"/>
      <point x="1331" y="38" type="line"/>
      <point x="347" y="38" type="line"/>
    </contour>
    <contour>
      <point x="879" y="650" type="curve" smooth="yes"/>
      <point x="879" y="308" type="line"/>
      <point x="917" y="308" type="line"/>
      <point x="917" y="772" type="line"/>
      <point x="761" y="772" type="line" smooth="yes"/>
      <point x="855" y="772"/>
      <point x="879" y="748"/>
    </contour>
    <contour>
      <point x="347" y="772" type="line"/>
      <point x="917" y="772" type="line"/>
      <point x="917" y="810" type="line"/>
      <point x="347" y="810" type="line"/>
    </contour>
    <contour>
      <point x="1165" y="38" type="curve" smooth="yes"/>
      <point x="1331" y="38" type="line"/>
      <point x="1331" y="580" type="line"/>
      <point x="1291" y="580" type="line"/>
      <point x="1291" y="168" type="line" smooth="yes"/>
      <point x="1291" y="64"/>
      <point x="1265" y="38"/>
    </contour>
    <contour>
      <point x="761" y="810" type="curve" smooth="yes"/>
      <point x="917" y="810" type="line"/>
      <point x="917" y="1202" type="line"/>
      <point x="879" y="1202" type="line"/>
      <point x="879" y="932" type="line" smooth="yes"/>
      <point x="879" y="834"/>
      <point x="855" y="810"/>
    </contour>
    <contour>
      <point x="347" y="1462" type="line"/>
      <point x="1313" y="1462" type="line"/>
      <point x="1313" y="1500" type="line"/>
      <point x="347" y="1500" type="line"/>
    </contour>
    <contour>
      <point x="1273" y="1332" type="curve" smooth="yes"/>
      <point x="1273" y="940" type="line"/>
      <point x="1313" y="940" type="line"/>
      <point x="1313" y="1462" type="line"/>
      <point x="1147" y="1462" type="line" smooth="yes"/>
      <point x="1247" y="1462"/>
      <point x="1273" y="1436"/>
    </contour>
    <contour>
      <point x="1211" y="-395" type="curve" smooth="yes"/>
      <point x="1286" y="-395"/>
      <point x="1331" y="-365"/>
      <point x="1360" y="-340" type="curve"/>
      <point x="1337" y="-311" type="line"/>
      <point x="1294" y="-342"/>
      <point x="1265" y="-357"/>
      <point x="1213" y="-357" type="curve" smooth="yes"/>
      <point x="1148" y="-357"/>
      <point x="1105" y="-314"/>
      <point x="1105" y="-244" type="curve" smooth="yes"/>
      <point x="1105" y="-156"/>
      <point x="1149" y="-84"/>
      <point x="1221" y="0" type="curve"/>
      <point x="1194" y="24" type="line"/>
      <point x="1125" y="-56"/>
      <point x="1061" y="-142"/>
      <point x="1061" y="-248" type="curve" smooth="yes"/>
      <point x="1061" y="-338"/>
      <point x="1123" y="-395"/>
    </contour>
  </outline>
</glyph>
<glyph name="eogonek" format="2">
  <advance width="1158"/>
  <unicode hex="0119"/>
  <anchor x="579" y="0" name="bottom"/>
  <anchor x="831" y="0" name="ogonek"/>
  <anchor x="579" y="1080" name="top"/>
  <outline>
    <contour>
      <point x="594" y="-16" type="curve" smooth="yes"/>
      <point x="902" y="-16"/>
      <point x="1024" y="214"/>
      <point x="1039" y="380" type="curve"/>
      <point x="1001" y="380" type="line"/>
      <point x="987" y="235"/>
      <point x="875" y="28"/>
      <point x="594" y="28" type="curve" smooth="yes"/>
      <point x="334" y="28"/>
      <point x="160" y="217"/>
      <point x="160" y="540" type="curve" smooth="yes"/>
      <point x="160" y="863"/>
      <point x="332" y="1058"/>
      <point x="594" y="1058" type="curve"/>
      <point x="594" y="1096" type="line"/>
      <point x="306" y="1096"/>
      <point x="110" y="894"/>
      <point x="110" y="540" type="curve" smooth="yes"/>
      <point x="110" y="186"/>
      <point x="306" y="-16"/>
    </contour>
    <contour>
      <point x="144" y="586" type="line"/>
      <point x="1048" y="586" type="line"/>
      <point x="1048" y="600" type="line"/>
      <point x="1004" y="624" type="line"/>
      <point x="144" y="624" type="line"/>
    </contour>
    <contour>
      <point x="1004" y="624" type="curve"/>
      <point x="1048" y="600" type="line"/>
      <point x="1048" y="892"/>
      <point x="893" y="1096"/>
      <point x="594" y="1096" type="curve"/>
      <point x="594" y="1058" type="line"/>
      <point x="865" y="1058"/>
      <point x="994" y="864"/>
    </contour>
    <contour>
      <point x="711" y="-395" type="curve" smooth="yes"/>
      <point x="786" y="-395"/>
      <point x="831" y="-365"/>
      <point x="860" y="-340" type="curve"/>
      <point x="837" y="-311" type="line"/>
      <point x="794" y="-342"/>
      <point x="765" y="-357"/>
      <point x="713" y="-357" type="curve" smooth="yes"/>
      <point x="648" y="-357"/>
      <point x="605" y="-314"/>
      <point x="605" y="-244" type="curve" smooth="yes"/>
      <point x="605" y="-156"/>
      <point x="649" y="-84"/>
      <point x="721" y="0" type="curve"/>
      <point x="694" y="24" type="line"/>
      <point x="625" y="-56"/>
      <point x="561" y="-142"/>
      <point x="561" y="-248" type="curve" smooth="yes"/>
      <point x="561" y="-338"/>
      <point x="623" y="-395"/>
    </contour>
  </outline>
</glyph>
<glyph name="Gdotaccent" format="2">
  <advance width="1714"/>
  <unicode hex="0120"/>
  <anchor x="858" y="0" name="bottom"/>
  <anchor x="848" y="1862" name="top"/>
  <outline>
    <contour>
      <point x="846" y="-24" type="curve" smooth="yes"/>
      <point x="1252" y="-24"/>
      <point x="1451" y="269"/>
      <point x="1451" y="662" type="curve"/>
      <point x="1422" y="662" type="line"/>
      <point x="1422" y="311"/>
      <point x="1233" y="14"/>
      <point x="846" y="14" type="curve" smooth="yes"/>
      <point x="465" y="14"/>
      <point x="180" y="302"/>
      <point x="180" y="750" type="curve" smooth="yes"/>
      <point x="180" y="1198"/>
      <point x="463" y="1486"/>
      <point x="834" y="1486" type="curve" smooth="yes"/>
      <point x="1199" y="1486"/>
      <point x="1365" y="1262"/>
      <point x="1386" y="980" type="curve"/>
      <point x="1414" y="980" type="line"/>
      <point x="1406" y="1318"/>
      <point x="1192" y="1524"/>
      <point x="834" y="1524" type="curve" smooth="yes"/>
      <point x="435" y="1524"/>
      <point x="132" y="1240"/>
      <point x="132" y="750" type="curve" smooth="yes"/>
      <point x="132" y="260"/>
      <point x="439" y="-24"/>
    </contour>
    <contour>
      <point x="1422" y="0" type="line"/>
      <point x="1462" y="0" type="line"/>
      <point x="1462" y="662" type="line"/>
      <point x="1451" y="662" type="line"/>
      <point x="1422" y="504" type="line"/>
    </contour>
    <contour>
      <point x="732" y="662" type="line"/>
      <point x="1692" y="662" type="line"/>
      <point x="1692" y="700" type="line"/>
      <point x="732" y="700" type="line"/>
    </contour>
    <contour>
      <point x="1414" y="980" type="line"/>
      <point x="1430" y="980" type="line"/>
      <point x="1430" y="1500" type="line"/>
      <point x="1390" y="1500" type="line"/>
      <point x="1390" y="1034" type="line"/>
    </contour>
    <contour>
      <point x="848" y="1722" type="curve" smooth="yes"/>
      <point x="884" y="1722"/>
      <point x="907" y="1748"/>
      <point x="907" y="1784" type="curve" smooth="yes"/>
      <point x="907" y="1820"/>
      <point x="884" y="1846"/>
      <point x="848" y="1846" type="curve" smooth="yes"/>
      <point x="812" y="1846"/>
      <point x="789" y="1820"/>
      <point x="789" y="1784" type="curve" smooth="yes"/>
      <point x="789" y="1748"/>
      <point x="812" y="1722"/>
    </contour>
  </outline>
</glyph>
<glyph name="Hcircumflex" format="2">
  <advance width="1680"/>
  <unicode hex="0124"/>
  <anchor x="840" y="0" name="bottom"/>
  <anchor x="840" y="750" name="center"/>
  <anchor x="1133" y="1730" name="side"/>
  <anchor x="840" y="1940" name="top"/>
  <anchor x="20" y="1500" name="topleft"/>
  <outline>
    <contour>
      <point x="46" y="0" type="line"/>
      <point x="623" y="0" type="line"/>
      <point x="623" y="36" type="line"/>
      <point x="347" y="36" type="line"/>
      <point x="347" y="1464" type="line"/>
      <point x="618" y="1464" type="line"/>
      <point x="618" y="1500" type="line"/>
      <point x="51" y="1500" type="line"/>
      <point x="51" y="1464" type="line"/>
      <point x="299" y="1464" type="line"/>
      <point x="299" y="36" type="line"/>
      <point x="46" y="36" type="line"/>
    </contour>
    <contour>
      <point x="1057" y="0" type="line"/>
      <point x="1634" y="0" type="line"/>
      <point x="1634" y="36" type="line"/>
      <point x="1381" y="36" type="line"/>
      <point x="1381" y="1464" type="line"/>
      <point x="1629" y="1464" type="line"/>
      <point x="1629" y="1500" type="line"/>
      <point x="1062" y="1500" type="line"/>
      <point x="1062" y="1464" type="line"/>
      <point x="1333" y="1464" type="line"/>
      <point x="1333" y="36" type="line"/>
      <point x="1057" y="36" type="line"/>
    </contour>
    <contour>
      <point x="347" y="742" type="line"/>
      <point x="1333" y="742" type="line"/>
      <point x="1333" y="780" type="line"/>
      <point x="347" y="780" type="line"/>
    </contour>
    <contour>
      <point x="577" y="1650" type="line"/>
      <point x="624" y="1650" type="line"/>
      <point x="851" y="1933" type="line"/>
      <point x="826" y="1933" type="line"/>
      <point x="1054" y="1650" type="line"/>
      <point x="1103" y="1650" type="line"/>
      <point x="857" y="1960" type="line"/>
      <point x="823" y="1960" type="line"/>
    </contour>
  </outline>
</glyph>
<glyph name="Hbar" format="2">
  <advance width="1680"/>
  <unicode hex="0126"/>
  <anchor x="840" y="0" name="bottom"/>
  <anchor x="840" y="750" name="center"/>
  <anchor x="840" y="1500" name="top"/>
  <anchor x="20" y="1500" name="topleft"/>
  <outline>
    <contour>
      <point x="46" y="0" type="line"/>
      <point x="623" y="0" type="line"/>
      <point x="623" y="36" type="line"/>
      <point x="347" y="36" type="line"/>
      <point x="347" y="1464" type="line"/>
      <point x="618" y="1464" type="line"/>
      <point x="618" y="1500" type="line"/>
      <point x="51" y="1500" type="line"/>
      <point x="51" y="1464" type="line"/>
      <point x="299" y="1464" type="line"/>
      <point x="299" y="36" type="line"/>
      <point x="46" y="36" type="line"/>
    </contour>
    <contour>
      <point x="1057" y="0" type="line"/>
      <point x="1634" y="0" type="line"/>
      <point x="1634" y="36" type="line"/>
      <point x="1381" y="36" type="line"/>
      <point x="1381" y="1464" type="line"/>
      <point x="1629" y="1464" type="line"/>
      <point x="1629" y="1500" type="line"/>
      <point x="1062" y="1500" type="line"/>
      <point x="1062" y="1464" type="line"/>
      <point x="1333" y="1464" type="line"/>
      <point x="1333" y="36" type="line"/>
      <point x="1057" y="36" type="line"/>
    </contour>
    <contour>
      <point x="347" y="742" type="line"/>
      <point x="1333" y="742" type="line"/>
      <point x="1333" y="780" type="line"/>
      <point x="347" y="780" type="line"/>
    </contour>
    <contour>
      <point x="48" y="1092" type="line"/>
      <point x="1632" y="1092" type="line"/>
      <point x="1632" y="1132" type="line"/>
      <point x="48" y="1132" type="line"/>
    </contour>
  </outline>
</glyph>
<glyph name="hbar" format="2">
  <advance width="1246"/>
  <unicode hex="0127"/>
  <outline>
    <contour>
      <point x="24" y="0" type="line"/>
      <point x="583" y="0" type="line"/>
      <point x="583" y="36" type="line"/>
      <point x="302" y="36" type="line"/>
      <point x="302" y="1500" type="line"/>
      <point x="254" y="1500" type="line"/>
      <point x="254" y="36" type="line"/>
      <point x="24" y="36" type="line"/>
    </contour>
    <contour>
      <point x="695" y="0" type="line"/>
      <point x="1222" y="0" type="line"/>
      <point x="1222" y="36" type="line"/>
      <point x="1024" y="36" type="line"/>
      <point x="1024" y="774" type="line" smooth="yes"/>
      <point x="1024" y="998"/>
      <point x="890" y="1096"/>
      <point x="700" y="1096" type="curve" smooth="yes"/>
      <point x="473" y="1096"/>
      <point x="277" y="952"/>
      <point x="277" y="582" type="curve"/>
      <point x="302" y="582" type="line"/>
      <point x="302" y="908"/>
      <point x="493" y="1058"/>
      <point x="698" y="1058" type="curve" smooth="yes"/>
      <point x="871" y="1058"/>
      <point x="976" y="967"/>
      <point x="976" y="774" type="curve" smooth="yes"/>
      <point x="976" y="36" type="line"/>
      <point x="695" y="36" type="line"/>
    </contour>
    <contour>
      <point x="47" y="1282" type="line"/>
      <point x="637" y="1282" type="line"/>
      <point x="637" y="1322" type="line"/>
      <point x="47" y="1322" type="line"/>
    </contour>
  </outline>
</glyph>
<glyph name="Itilde" format="2">
  <advance width="684"/>
  <unicode hex="0128"/>
  <anchor x="342" y="0" name="bottom"/>
  <anchor x="471" y="0" name="ogonek"/>
  <anchor x="342" y="1878" name="top"/>
  <anchor x="20" y="1500" name="topleft"/>
  <outline>
    <contour>
      <point x="42" y="0" type="line"/>
      <point x="642" y="0" type="line"/>
      <point x="642" y="36" type="line"/>
      <point x="366" y="36" type="line"/>
      <point x="366" y="1464" type="line"/>
      <point x="637" y="1464" type="line"/>
      <point x="637" y="1500" type="line"/>
      <point x="47" y="1500" type="line"/>
      <point x="47" y="1464" type="line"/>
      <point x="318" y="1464" type="line"/>
      <point x="318" y="36" type="line"/>
      <point x="42" y="36" type="line"/>
    </contour>
    <contour>
      <point x="480" y="1658" type="curve" smooth="yes"/>
      <point x="565" y="1658"/>
      <point x="604" y="1720"/>
      <point x="604" y="1825" type="curve" smooth="yes"/>
      <point x="604" y="1900" type="line"/>
      <point x="566" y="1900" type="line"/>
      <point x="566" y="1829" type="line" smooth="yes"/>
      <point x="566" y="1738"/>
      <point x="537" y="1698"/>
      <point x="480" y="1698" type="curve" smooth="yes"/>
      <point x="429" y="1698"/>
      <point x="397" y="1742"/>
      <point x="368" y="1784" type="curve" smooth="yes"/>
      <point x="349" y="1812" type="line"/>
      <point x="316" y="1786" type="line"/>
      <point x="335" y="1758" type="line" smooth="yes"/>
      <point x="367" y="1710"/>
      <point x="409" y="1658"/>
    </contour>
    <contour>
      <point x="80" y="1745" type="curve" smooth="yes"/>
      <point x="80" y="1670" type="line"/>
      <point x="118" y="1670" type="line"/>
      <point x="118" y="1741" type="line" smooth="yes"/>
      <point x="118" y="1832"/>
      <point x="147" y="1872"/>
      <point x="204" y="1872" type="curve" smooth="yes"/>
      <point x="255" y="1872"/>
      <point x="287" y="1828"/>
      <point x="316" y="1786" type="curve" smooth="yes"/>
      <point x="335" y="1758" type="line"/>
      <point x="368" y="1784" type="line"/>
      <point x="349" y="1812" type="line" smooth="yes"/>
      <point x="317" y="1860"/>
      <point x="275" y="1912"/>
      <point x="204" y="1912" type="curve" smooth="yes"/>
      <point x="119" y="1912"/>
      <point x="80" y="1850"/>
    </contour>
  </outline>
</glyph>
<glyph name="itilde" format="2">
  <advance width="545"/>
  <unicode hex="0129"/>
  <anchor x="272" y="0" name="bottom"/>
  <anchor x="420" y="0" name="ogonek"/>
  <anchor x="268" y="1458" name="top"/>
  <outline>
    <contour>
      <point x="34" y="0" type="line"/>
      <point x="519" y="0" type="line"/>
      <point x="519" y="36" type="line"/>
      <point x="312" y="36" type="line"/>
      <point x="312" y="1080" type="line"/>
      <point x="57" y="1080" type="line"/>
      <point x="57" y="1044" type="line"/>
      <point x="264" y="1044" type="line"/>
      <point x="264" y="36" type="line"/>
      <point x="34" y="36" type="line"/>
    </contour>
    <contour>
      <point x="406" y="1238" type="curve" smooth="yes"/>
      <point x="491" y="1238"/>
      <point x="530" y="1300"/>
      <point x="530" y="1405" type="curve" smooth="yes"/>
      <point x="530" y="1480" type="line"/>
      <point x="492" y="1480" type="line"/>
      <point x="492" y="1409" type="line" smooth="yes"/>
      <point x="492" y="1318"/>
      <point x="463" y="1278"/>
      <point x="406" y="1278" type="curve" smooth="yes"/>
      <point x="355" y="1278"/>
      <point x="323" y="1322"/>
      <point x="294" y="1364" type="curve" smooth="yes"/>
      <point x="275" y="1392" type="line"/>
      <point x="242" y="1366" type="line"/>
      <point x="261" y="1338" type="line" smooth="yes"/>
      <point x="293" y="1290"/>
      <point x="335" y="1238"/>
    </contour>
    <contour>
      <point x="6" y="1325" type="curve" smooth="yes"/>
      <point x="6" y="1250" type="line"/>
      <point x="44" y="1250" type="line"/>
      <point x="44" y="1321" type="line" smooth="yes"/>
      <point x="44" y="1412"/>
      <point x="73" y="1452"/>
      <point x="130" y="1452" type="curve" smooth="yes"/>
      <point x="181" y="1452"/>
      <point x="213" y="1408"/>
      <point x="242" y="1366" type="curve" smooth="yes"/>
      <point x="261" y="1338" type="line"/>
      <point x="294" y="1364" type="line"/>
      <point x="275" y="1392" type="line" smooth="yes"/>
      <point x="243" y="1440"/>
      <point x="201" y="1492"/>
      <point x="130" y="1492" type="curve" smooth="yes"/>
      <point x="45" y="1492"/>
      <point x="6" y="1430"/>
    </contour>
  </outline>
</glyph>
<glyph name="imacron" format="2">
  <advance width="545"/>
  <unicode hex="012B"/>
  <anchor x="272" y="0" name="bottom"/>
  <anchor x="420" y="0" name="ogonek"/>
  <anchor x="268" y="1080" name="top"/>
  <outline>
    <contour>
      <point x="34" y="0" type="line"/>
      <point x="519" y="0" type="line"/>
      <point x="519" y="36" type="line"/>
      <point x="312" y="36" type="line"/>
      <point x="312" y="1080" type="line"/>
      <point x="57" y="1080" type="line"/>
      <point x="57" y="1044" type="line"/>
      <point x="264" y="1044" type="line"/>
      <point x="264" y="36" type="line"/>
      <point x="34" y="36" type="line"/>
    </contour>
    <contour>
      <point x="-22" y="1280" type="line"/>
      <point x="558" y="1280" type="line"/>
      <point x="558" y="1320" type="line"/>
      <point x="-22" y="1320" type="line"/>
    </contour>
  </outline>
</glyph>
<glyph name="Ibreve" format="2">
  <advance width="684"/>
  <unicode hex="012C"/>
  <anchor x="342" y="0" name="bottom"/>
  <anchor x="471" y="0" name="ogonek"/>
  <anchor x="342" y="1900" name="side"/>
  <anchor x="342" y="1940" name="top"/>
  <anchor x="20" y="1500" name="topleft"/>
  <outline>
    <contour>
      <point x="42" y="0" type="line"/>
      <point x="642" y="0" type="line"/>
      <point x="642" y="36" type="line"/>
      <point x="366" y="36" type="line"/>
      <point x="366" y="1464" type="line"/>
      <point x="637" y="1464" type="line"/>
      <point x="637" y="1500" type="line"/>
      <point x="47" y="1500" type="line"/>
      <point x="47" y="1464" type="line"/>
      <point x="318" y="1464" type="line"/>
      <point x="318" y="36" type="line"/>
      <point x="42" y="36" type="line"/>
    </contour>
    <contour>
      <point x="342" y="1640" type="curve" smooth="yes"/>
      <point x="524" y="1640"/>
      <point x="612" y="1774"/>
      <point x="612" y="1960" type="curve"/>
      <point x="574" y="1960" type="line"/>
      <point x="574" y="1806"/>
      <point x="496" y="1678"/>
      <point x="342" y="1678" type="curve" smooth="yes"/>
      <point x="188" y="1678"/>
      <point x="120" y="1806"/>
      <point x="120" y="1960" type="curve"/>
      <point x="82" y="1960" type="line"/>
      <point x="82" y="1774"/>
      <point x="160" y="1640"/>
    </contour>
  </outline>
</glyph>
<glyph name="ibreve" format="2">
  <advance width="545"/>
  <unicode hex="012D"/>
  <anchor x="272" y="0" name="bottom"/>
  <anchor x="420" y="0" name="ogonek"/>
  <anchor x="268" y="1480" name="side"/>
  <anchor x="268" y="1520" name="top"/>
  <outline>
    <contour>
      <point x="34" y="0" type="line"/>
      <point x="519" y="0" type="line"/>
      <point x="519" y="36" type="line"/>
      <point x="312" y="36" type="line"/>
      <point x="312" y="1080" type="line"/>
      <point x="57" y="1080" type="line"/>
      <point x="57" y="1044" type="line"/>
      <point x="264" y="1044" type="line"/>
      <point x="264" y="36" type="line"/>
      <point x="34" y="36" type="line"/>
    </contour>
    <contour>
      <point x="268" y="1220" type="curve" smooth="yes"/>
      <point x="450" y="1220"/>
      <point x="538" y="1354"/>
      <point x="538" y="1540" type="curve"/>
      <point x="500" y="1540" type="line"/>
      <point x="500" y="1386"/>
      <point x="422" y="1258"/>
      <point x="268" y="1258" type="curve" smooth="yes"/>
      <point x="114" y="1258"/>
      <point x="46" y="1386"/>
      <point x="46" y="1540" type="curve"/>
      <point x="8" y="1540" type="line"/>
      <point x="8" y="1354"/>
      <point x="86" y="1220"/>
    </contour>
  </outline>
</glyph>
<glyph name="Iogonek" format="2">
  <advance width="684"/>
  <unicode hex="012E"/>
  <anchor x="342" y="0" name="bottom"/>
  <anchor x="471" y="0" name="ogonek"/>
  <anchor x="342" y="1500" name="top"/>
  <anchor x="20" y="1500" name="topleft"/>
  <outline>
    <contour>
      <point x="42" y="0" type="line"/>
      <point x="642" y="0" type="line"/>
      <point x="642" y="36" type="line"/>
      <point x="366" y="36" type="line"/>
      <point x="366" y="1464" type="line"/>
      <point x="637" y="1464" type="line"/>
      <point x="637" y="1500" type="line"/>
      <point x="47" y="1500" type="line"/>
      <point x="47" y="1464" type="line"/>
      <point x="318" y="1464" type="line"/>
      <point x="318" y="36" type="line"/>
      <point x="42" y="36" type="line"/>
    </contour>
    <contour>
      <point x="351" y="-395" type="curve" smooth="yes"/>
      <point x="426" y="-395"/>
      <point x="471" y="-365"/>
      <point x="500" y="-340" type="curve"/>
      <point x="477" y="-311" type="line"/>
      <point x="434" y="-342"/>
      <point x="405" y="-357"/>
      <point x="353" y="-357" type="curve" smooth="yes"/>
      <point x="288" y="-357"/>
      <point x="245" y="-314"/>
      <point x="245" y="-244" type="curve" smooth="yes"/>
      <point x="245" y="-156"/>
      <point x="289" y="-84"/>
      <point x="361" y="0" type="curve"/>
      <point x="334" y="24" type="line"/>
      <point x="265" y="-56"/>
      <point x="201" y="-142"/>
      <point x="201" y="-248" type="curve" smooth="yes"/>
      <point x="201" y="-338"/>
      <point x="263" y="-395"/>
    </contour>
  </outline>
</glyph>
<glyph name="iogonek" format="2">
  <advance width="545"/>
  <unicode hex="012F"/>
  <anchor x="272" y="0" name="bottom"/>
  <anchor x="420" y="0" name="ogonek"/>
  <anchor x="268" y="1442" name="top"/>
  <outline>
    <contour>
      <point x="34" y="0" type="line"/>
      <point x="519" y="0" type="line"/>
      <point x="519" y="36" type="line"/>
      <point x="312" y="36" type="line"/>
      <point x="312" y="1080" type="line"/>
      <point x="57" y="1080" type="line"/>
      <point x="57" y="1044" type="line"/>
      <point x="264" y="1044" type="line"/>
      <point x="264" y="36" type="line"/>
      <point x="34" y="36" type="line"/>
    </contour>
    <contour>
      <point x="268" y="1302" type="curve" smooth="yes"/>
      <point x="304" y="1302"/>
      <point x="327" y="1328"/>
      <point x="327" y="1364" type="curve" smooth="yes"/>
      <point x="327" y="1400"/>
      <point x="304" y="1426"/>
      <point x="268" y="1426" type="curve" smooth="yes"/>
      <point x="232" y="1426"/>
      <point x="209" y="1400"/>
      <point x="209" y="1364" type="curve" smooth="yes"/>
      <point x="209" y="1328"/>
      <point x="232" y="1302"/>
    </contour>
    <contour>
      <point x="300" y="-395" type="curve" smooth="yes"/>
      <point x="375" y="-395"/>
      <point x="420" y="-365"/>
      <point x="449" y="-340" type="curve"/>
      <point x="426" y="-311" type="line"/>
      <point x="383" y="-342"/>
      <point x="354" y="-357"/>
      <point x="302" y="-357" type="curve" smooth="yes"/>
      <point x="237" y="-357"/>
      <point x="194" y="-314"/>
      <point x="194" y="-244" type="curve" smooth="yes"/>
      <point x="194" y="-156"/>
      <point x="238" y="-84"/>
      <point x="310" y="0" type="curve"/>
      <point x="283" y="24" type="line"/>
      <point x="214" y="-56"/>
      <point x="150" y="-142"/>
      <point x="150" y="-248" type="curve" smooth="yes"/>
      <point x="150" y="-338"/>
      <point x="212" y="-395"/>
    </contour>
  </outline>
</glyph>
<glyph name="Idotaccent" format="2">
  <advance width="684"/>
  <unicode hex="0130"/>
  <anchor x="342" y="0" name="bottom"/>
  <anchor x="471" y="0" name="ogonek"/>
  <anchor x="342" y="1862" name="top"/>
  <anchor x="20" y="1500" name="topleft"/>
  <outline>
    <contour>
      <point x="42" y="0" type="line"/>
      <point x="642" y="0" type="line"/>
      <point x="642" y="36" type="line"/>
      <point x="366" y="36" type="line"/>
      <point x="366" y="1464" type="line"/>
      <point x="637" y="1464" type="line"/>
      <point x="637" y="1500" type="line"/>
      <point x="47" y="1500" type="line"/>
      <point x="47" y="1464" type="line"/>
      <point x="318" y="1464" type="line"/>
      <point x="318" y="36" type="line"/>
      <point x="42" y="36" type="line"/>
    </contour>
    <contour>
      <point x="342" y="1722" type="curve" smooth="yes"/>
      <point x="378" y="1722"/>
      <point x="401" y="1748"/>
      <point x="401" y="1784" type="curve" smooth="yes"/>
      <point x="401" y="1820"/>
      <point x="378" y="1846"/>
      <point x="342" y="1846" type="curve" smooth="yes"/>
      <point x="306" y="1846"/>
      <point x="283" y="1820"/>
      <point x="283" y="1784" type="curve" smooth="yes"/>
      <point x="283" y="1748"/>
      <point x="306" y="1722"/>
    </contour>
  </outline>
</glyph>
<glyph name="idotless" format="2">
  <advance width="545"/>
  <unicode hex="0131"/>
  <anchor x="272" y="0" name="bottom"/>
  <anchor x="420" y="0" name="ogonek"/>
  <anchor x="268" y="1080" name="top"/>
  <outline>
    <contour>
      <point x="34" y="0" type="line"/>
      <point x="519" y="0" type="line"/>
      <point x="519" y="36" type="line"/>
      <point x="312" y="36" type="line"/>
      <point x="312" y="1080" type="line"/>
      <point x="57" y="1080" type="line"/>
      <point x="57" y="1044" type="line"/>
      <point x="264" y="1044" type="line"/>
      <point x="264" y="36" type="line"/>
      <point x="34" y="36" type="line"/>
    </contour>
  </outline>
</glyph>
<glyph name="Jcircumflex" format="2">
  <advance width="1196"/>
  <unicode hex="0134"/>
  <anchor x="598" y="0" name="bottom"/>
  <anchor x="1095" y="1730" name="side"/>
  <anchor x="802" y="1940" name="top"/>
  <outline>
    <contour>
      <point x="512" y="-16" type="curve" smooth="yes"/>
      <point x="758" y="-16"/>
      <point x="918" y="123"/>
      <point x="918" y="430" type="curve" smooth="yes"/>
      <point x="918" y="1464" type="line"/>
      <point x="1166" y="1464" type="line"/>
      <point x="1166" y="1500" type="line"/>
      <point x="438" y="1500" type="line"/>
      <point x="438" y="1464" type="line"/>
      <point x="870" y="1464" type="line"/>
      <point x="870" y="426" type="line" smooth="yes"/>
      <point x="870" y="159"/>
      <point x="732" y="22"/>
      <point x="508" y="22" type="curve" smooth="yes"/>
      <point x="284" y="22"/>
      <point x="146" y="159"/>
      <point x="146" y="426" type="curve" smooth="yes"/>
      <point x="146" y="590" type="line"/>
      <point x="106" y="590" type="line"/>
      <point x="106" y="422" type="line" smooth="yes"/>
      <point x="106" y="124"/>
      <point x="266" y="-16"/>
    </contour>
    <contour>
      <point x="539" y="1650" type="line"/>
      <point x="586" y="1650" type="line"/>
      <point x="813" y="1933" type="line"/>
      <point x="788" y="1933" type="line"/>
      <point x="1016" y="1650" type="line"/>
      <point x="1065" y="1650" type="line"/>
      <point x="819" y="1960" type="line"/>
      <point x="785" y="1960" type="line"/>
    </contour>
  </outline>
</glyph>
<glyph name="jcircumflex" format="2">
  <advance width="534"/>
  <unicode hex="0135"/>
  <anchor x="267" y="-440" name="bottom"/>
  <anchor x="589" y="1310" name="side"/>
  <anchor x="296" y="1520" name="top"/>
  <outline>
    <contour>
      <point x="278" y="-110" type="line"/>
      <point x="326" y="-106" type="line"/>
      <point x="326" y="1080" type="line"/>
      <point x="71" y="1080" type="line"/>
      <point x="71" y="1044" type="line"/>
      <point x="278" y="1044" type="line"/>
    </contour>
    <contour>
      <point x="68" y="-420" type="curve"/>
      <point x="68" y="-382" type="line"/>
      <point x="-44" y="-382"/>
      <point x="-110" y="-318"/>
      <point x="-109" y="-216" type="curve"/>
      <point x="-128" y="-231" type="line"/>
      <point x="-70" y="-236"/>
      <point x="-24" y="-218"/>
      <point x="-24" y="-171" type="curve" smooth="yes"/>
      <point x="-24" y="-139"/>
      <point x="-46" y="-119"/>
      <point x="-78" y="-119" type="curve" smooth="yes"/>
      <point x="-121" y="-119"/>
      <point x="-154" y="-154"/>
      <point x="-154" y="-211" type="curve" smooth="yes"/>
      <point x="-154" y="-351"/>
      <point x="-61" y="-420"/>
    </contour>
    <contour>
      <point x="68" y="-382" type="curve"/>
      <point x="68" y="-420" type="line"/>
      <point x="238" y="-420"/>
      <point x="326" y="-313"/>
      <point x="326" y="-106" type="curve"/>
      <point x="278" y="-110" type="line"/>
      <point x="278" y="-292"/>
      <point x="203" y="-382"/>
    </contour>
    <contour>
      <point x="33" y="1230" type="line"/>
      <point x="80" y="1230" type="line"/>
      <point x="307" y="1513" type="line"/>
      <point x="282" y="1513" type="line"/>
      <point x="510" y="1230" type="line"/>
      <point x="559" y="1230" type="line"/>
      <point x="313" y="1540" type="line"/>
      <point x="279" y="1540" type="line"/>
    </contour>
  </outline>
</glyph>
<glyph name="Kcommaaccent" format="2">
  <advance width="1629"/>
  <unicode hex="0136"/>
  <anchor x="815" y="0" name="bottom"/>
  <anchor x="815" y="1500" name="top"/>
  <outline>
    <contour>
      <point x="338" y="584" type="line"/>
      <point x="1334" y="1464" type="line"/>
      <point x="1499" y="1464" type="line"/>
      <point x="1499" y="1500" type="line"/>
      <point x="979" y="1500" type="line"/>
      <point x="979" y="1464" type="line"/>
      <point x="1273" y="1464" type="line"/>
      <point x="313" y="613" type="line"/>
    </contour>
    <contour>
      <point x="46" y="0" type="line"/>
      <point x="623" y="0" type="line"/>
      <point x="623" y="36" type="line"/>
      <point x="347" y="36" type="line"/>
      <point x="347" y="1464" type="line"/>
      <point x="618" y="1464" type="line"/>
      <point x="618" y="1500" type="line"/>
      <point x="51" y="1500" type="line"/>
      <point x="51" y="1464" type="line"/>
      <point x="299" y="1464" type="line"/>
      <point x="299" y="36" type="line"/>
      <point x="46" y="36" type="line"/>
    </contour>
    <contour>
      <point x="1032" y="0" type="line"/>
      <point x="1571" y="0" type="line"/>
      <point x="1571" y="36" type="line"/>
      <point x="1400" y="36" type="line"/>
      <point x="603" y="848" type="line"/>
      <point x="573" y="816" type="line"/>
      <point x="1335" y="36" type="line"/>
      <point x="1032" y="36" type="line"/>
    </contour>
    <contour>
      <point x="765" y="-480" type="curve"/>
      <point x="808" y="-480" type="line"/>
      <point x="858" y="-417"/>
      <point x="875" y="-358"/>
      <point x="875" y="-303" type="curve" smooth="yes"/>
      <point x="875" y="-250"/>
      <point x="849" y="-222"/>
      <point x="813" y="-222" type="curve" smooth="yes"/>
      <point x="781" y="-222"/>
      <point x="755" y="-243"/>
      <point x="755" y="-281" type="curve" smooth="yes"/>
      <point x="755" y="-321"/>
      <point x="790" y="-342"/>
      <point x="832" y="-334" type="curve"/>
      <point x="827" y="-381"/>
      <point x="808" y="-425"/>
    </contour>
  </outline>
</glyph>
<glyph name="kcommaaccent" format="2">
  <advance width="1252"/>
  <unicode hex="0137"/>
  <anchor x="626" y="0" name="bottom"/>
  <anchor x="626" y="1500" name="top"/>
  <outline>
    <contour>
      <point x="24" y="0" type="line"/>
      <point x="509" y="0" type="line"/>
      <point x="509" y="36" type="line"/>
      <point x="302" y="36" type="line"/>
      <point x="302" y="1500" type="line"/>
      <point x="47" y="1500" type="line"/>
      <point x="47" y="1464" type="line"/>
      <point x="254" y="1464" type="line"/>
      <point x="254" y="36" type="line"/>
      <point x="24" y="36" type="line"/>
    </contour>
    <contour>
      <point x="755" y="0" type="line"/>
      <point x="1210" y="0" type="line"/>
      <point x="1210" y="36" type="line"/>
      <point x="1077" y="36" type="line"/>
      <point x="541" y="646" type="line"/>
      <point x="508" y="614" type="line"/>
      <point x="1014" y="36" type="line"/>
      <point x="755" y="36" type="line"/>
    </contour>
    <contour>
      <point x="290" y="392" type="line"/>
      <point x="1031" y="1044" type="line"/>
      <point x="1160" y="1044" type="line"/>
      <point x="1160" y="1080" type="line"/>
      <point x="724" y="1080" type="line"/>
      <point x="724" y="1044" type="line"/>
      <point x="968" y="1044" type="line"/>
      <point x="268" y="426" type="line"/>
    </contour>
    <contour>
      <point x="576" y="-480" type="curve"/>
      <point x="619" y="-480" type="line"/>
      <point x="669" y="-417"/>
      <point x="686" y="-358"/>
      <point x="686" y="-303" type="curve" smooth="yes"/>
      <point x="686" y="-250"/>
      <point x="660" y="-222"/>
      <point x="624" y="-222" type="curve" smooth="yes"/>
      <point x="592" y="-222"/>
      <point x="566" y="-243"/>
      <point x="566" y="-281" type="curve" smooth="yes"/>
      <point x="566" y="-321"/>
      <point x="601" y="-342"/>
      <point x="643" y="-334" type="curve"/>
      <point x="638" y="-381"/>
      <point x="619" y="-425"/>
    </contour>
  </outline>
</glyph>
<glyph name="kgreenlandic" format="2">
  <advance width="1262"/>
  <unicode hex="0138"/>
  <outline>
    <contour>
      <point x="34" y="0" type="line"/>
      <point x="519" y="0" type="line"/>
      <point x="519" y="36" type="line"/>
      <point x="312" y="36" type="line"/>
      <point x="312" y="1044" type="line"/>
      <point x="496" y="1044" type="line"/>
      <point x="496" y="1080" type="line"/>
      <point x="57" y="1080" type="line"/>
      <point x="57" y="1044" type="line"/>
      <point x="264" y="1044" type="line"/>
      <point x="264" y="36" type="line"/>
      <point x="34" y="36" type="line"/>
    </contour>
    <contour>
      <point x="300" y="392" type="line"/>
      <point x="1041" y="1044" type="line"/>
      <point x="1170" y="1044" type="line"/>
      <point x="1170" y="1080" type="line"/>
      <point x="734" y="1080" type="line"/>
      <point x="734" y="1044" type="line"/>
      <point x="978" y="1044" type="line"/>
      <point x="278" y="426" type="line"/>
    </contour>
    <contour>
      <point x="765" y="0" type="line"/>
      <point x="1220" y="0" type="line"/>
      <point x="1220" y="36" type="line"/>
      <point x="1087" y="36" type="line"/>
      <point x="551" y="646" type="line"/>
      <point x="518" y="614" type="line"/>
      <point x="1024" y="36" type="line"/>
      <point x="765" y="36" type="line"/>
    </contour>
  </outline>
</glyph>
<glyph name="lcommaaccent" format="2">
  <advance width="535"/>
  <unicode hex="013C"/>
  <anchor x="271" y="0" name="bottom"/>
  <anchor x="278" y="1080" name="center"/>
  <anchor x="258" y="1500" name="top"/>
  <anchor x="302" y="1500" name="topright"/>
  <outline>
    <contour>
      <point x="24" y="0" type="line"/>
      <point x="509" y="0" type="line"/>
      <point x="509" y="36" type="line"/>
      <point x="302" y="36" type="line"/>
      <point x="302" y="1500" type="line"/>
      <point x="47" y="1500" type="line"/>
      <point x="47" y="1464" type="line"/>
      <point x="254" y="1464" type="line"/>
      <point x="254" y="36" type="line"/>
      <point x="24" y="36" type="line"/>
    </contour>
    <contour>
      <point x="221" y="-480" type="curve"/>
      <point x="264" y="-480" type="line"/>
      <point x="314" y="-417"/>
      <point x="331" y="-358"/>
      <point x="331" y="-303" type="curve" smooth="yes"/>
      <point x="331" y="-250"/>
      <point x="305" y="-222"/>
      <point x="269" y="-222" type="curve" smooth="yes"/>
      <point x="237" y="-222"/>
      <point x="211" y="-243"/>
      <point x="211" y="-281" type="curve" smooth="yes"/>
      <point x="211" y="-321"/>
      <point x="246" y="-342"/>
      <point x="288" y="-334" type="curve"/>
      <point x="283" y="-381"/>
      <point x="264" y="-425"/>
    </contour>
  </outline>
</glyph>
<glyph name="lcaron" format="2">
  <advance width="583"/>
  <unicode hex="013E"/>
  <anchor x="271" y="0" name="bottom"/>
  <anchor x="278" y="1080" name="center"/>
  <anchor x="258" y="1500" name="top"/>
  <anchor x="302" y="1500" name="topright"/>
  <outline>
    <contour>
      <point x="24" y="0" type="line"/>
      <point x="509" y="0" type="line"/>
      <point x="509" y="36" type="line"/>
      <point x="302" y="36" type="line"/>
      <point x="302" y="1500" type="line"/>
      <point x="47" y="1500" type="line"/>
      <point x="47" y="1464" type="line"/>
      <point x="254" y="1464" type="line"/>
      <point x="254" y="36" type="line"/>
      <point x="24" y="36" type="line"/>
    </contour>
    <contour>
      <point x="488" y="1150" type="line"/>
      <point x="526" y="1150" type="line"/>
      <point x="563" y="1500" type="line"/>
      <point x="512" y="1500" type="line"/>
    </contour>
  </outline>
</glyph>
<glyph name="ldot" format="2">
  <advance width="818"/>
  <unicode hex="0140"/>
  <anchor x="271" y="0" name="bottom"/>
  <anchor x="278" y="1080" name="center"/>
  <anchor x="258" y="1500" name="top"/>
  <anchor x="302" y="1500" name="topright"/>
  <outline>
    <contour>
      <point x="24" y="0" type="line"/>
      <point x="509" y="0" type="line"/>
      <point x="509" y="36" type="line"/>
      <point x="302" y="36" type="line"/>
      <point x="302" y="1500" type="line"/>
      <point x="47" y="1500" type="line"/>
      <point x="47" y="1464" type="line"/>
      <point x="254" y="1464" type="line"/>
      <point x="254" y="36" type="line"/>
      <point x="24" y="36" type="line"/>
    </contour>
    <contour>
      <point x="679" y="555" type="curve" smooth="yes"/>
      <point x="715" y="555"/>
      <point x="738" y="581"/>
      <point x="738" y="617" type="curve" smooth="yes"/>
      <point x="738" y="653"/>
      <point x="715" y="679"/>
      <point x="679" y="679" type="curve" smooth="yes"/>
      <point x="643" y="679"/>
      <point x="620" y="653"/>
      <point x="620" y="617" type="curve" smooth="yes"/>
      <point x="620" y="581"/>
      <point x="643" y="555"/>
    </contour>
  </outline>
</glyph>
<glyph name="Lslash" format="2">
  <advance width="1494"/>
  <unicode hex="0141"/>
  <anchor x="798" y="0" name="bottom"/>
  <anchor x="424" y="1200" name="center"/>
  <anchor x="422" y="1500" name="top"/>
  <anchor x="798" y="1500" name="topright"/>
  <outline>
    <contour>
      <point x="147" y="0" type="line"/>
      <point x="448" y="0" type="line"/>
      <point x="448" y="1464" type="line"/>
      <point x="880" y="1464" type="line"/>
      <point x="880" y="1500" type="line"/>
      <point x="152" y="1500" type="line"/>
      <point x="152" y="1464" type="line"/>
      <point x="400" y="1464" type="line"/>
      <point x="400" y="36" type="line"/>
      <point x="147" y="36" type="line"/>
    </contour>
    <contour>
      <point x="448" y="0" type="line"/>
      <point x="1382" y="0" type="line"/>
      <point x="1382" y="38" type="line"/>
      <point x="448" y="38" type="line"/>
    </contour>
    <contour>
      <point x="1216" y="38" type="curve" smooth="yes"/>
      <point x="1382" y="38" type="line"/>
      <point x="1382" y="580" type="line"/>
      <point x="1342" y="580" type="line"/>
      <point x="1342" y="168" type="line" smooth="yes"/>
      <point x="1342" y="64"/>
      <point x="1316" y="38"/>
    </contour>
    <contour>
      <point x="62" y="562" type="line"/>
      <point x="820" y="833" type="line"/>
      <point x="820" y="876" type="line"/>
      <point x="62" y="605" type="line"/>
    </contour>
  </outline>
</glyph>
<glyph name="lslash" format="2">
  <advance width="852"/>
  <unicode hex="0142"/>
  <anchor x="431" y="0" name="bottom"/>
  <anchor x="438" y="1080" name="center"/>
  <anchor x="418" y="1500" name="top"/>
  <anchor x="462" y="1500" name="topright"/>
  <outline>
    <contour>
      <point x="184" y="0" type="line"/>
      <point x="669" y="0" type="line"/>
      <point x="669" y="36" type="line"/>
      <point x="462" y="36" type="line"/>
      <point x="462" y="1500" type="line"/>
      <point x="207" y="1500" type="line"/>
      <point x="207" y="1464" type="line"/>
      <point x="414" y="1464" type="line"/>
      <point x="414" y="36" type="line"/>
      <point x="184" y="36" type="line"/>
    </contour>
    <contour>
      <point x="76" y="442" type="line"/>
      <point x="834" y="713" type="line"/>
      <point x="834" y="756" type="line"/>
      <point x="76" y="485" type="line"/>
    </contour>
  </outline>
</glyph>
<glyph name="Ncommaaccent" format="2">
  <advance width="1703"/>
  <unicode hex="0145"/>
  <anchor x="852" y="0" name="bottom"/>
  <anchor x="868" y="1500" name="top"/>
  <outline>
    <contour>
      <point x="1381" y="0" type="line"/>
      <point x="1385" y="76" type="line"/>
      <point x="343" y="1500" type="line"/>
      <point x="339" y="1424" type="line"/>
    </contour>
    <contour>
      <point x="46" y="0" type="line"/>
      <point x="615" y="0" type="line"/>
      <point x="615" y="36" type="line"/>
      <point x="339" y="36" type="line"/>
      <point x="339" y="1424" type="line"/>
      <point x="343" y="1500" type="line"/>
      <point x="51" y="1500" type="line"/>
      <point x="51" y="1464" type="line"/>
      <point x="299" y="1464" type="line"/>
      <point x="299" y="36" type="line"/>
      <point x="46" y="36" type="line"/>
    </contour>
    <contour>
      <point x="1381" y="0" type="line"/>
      <point x="1425" y="0" type="line"/>
      <point x="1425" y="1464" type="line"/>
      <point x="1673" y="1464" type="line"/>
      <point x="1673" y="1500" type="line"/>
      <point x="1114" y="1500" type="line"/>
      <point x="1114" y="1464" type="line"/>
      <point x="1385" y="1464" type="line"/>
      <point x="1385" y="76" type="line"/>
      <point x="1375" y="76" type="line"/>
    </contour>
    <contour>
      <point x="802" y="-480" type="curve"/>
      <point x="845" y="-480" type="line"/>
      <point x="895" y="-417"/>
      <point x="912" y="-358"/>
      <point x="912" y="-303" type="curve" smooth="yes"/>
      <point x="912" y="-250"/>
      <point x="886" y="-222"/>
      <point x="850" y="-222" type="curve" smooth="yes"/>
      <point x="818" y="-222"/>
      <point x="792" y="-243"/>
      <point x="792" y="-281" type="curve" smooth="yes"/>
      <point x="792" y="-321"/>
      <point x="827" y="-342"/>
      <point x="869" y="-334" type="curve"/>
      <point x="864" y="-381"/>
      <point x="845" y="-425"/>
    </contour>
  </outline>
</glyph>
<glyph name="ncommaaccent" format="2">
  <advance width="1256"/>
  <unicode hex="0146"/>
  <anchor x="625" y="0" name="bottom"/>
  <anchor x="623" y="1080" name="top"/>
  <outline>
    <contour>
      <point x="705" y="0" type="line"/>
      <point x="1232" y="0" type="line"/>
      <point x="1232" y="36" type="line"/>
      <point x="1034" y="36" type="line"/>
      <point x="1034" y="774" type="line" smooth="yes"/>
      <point x="1034" y="998"/>
      <point x="900" y="1096"/>
      <point x="710" y="1096" type="curve" smooth="yes"/>
      <point x="483" y="1096"/>
      <point x="285" y="952"/>
      <point x="285" y="582" type="curve"/>
      <point x="312" y="582" type="line"/>
      <point x="312" y="908"/>
      <point x="503" y="1058"/>
      <point x="708" y="1058" type="curve" smooth="yes"/>
      <point x="881" y="1058"/>
      <point x="986" y="967"/>
      <point x="986" y="774" type="curve" smooth="yes"/>
      <point x="986" y="36" type="line"/>
      <point x="705" y="36" type="line"/>
    </contour>
    <contour>
      <point x="34" y="0" type="line"/>
      <point x="593" y="0" type="line"/>
      <point x="593" y="36" type="line"/>
      <point x="312" y="36" type="line"/>
      <point x="312" y="740" type="line"/>
      <point x="308" y="740" type="line"/>
      <point x="308" y="1080" type="line"/>
      <point x="57" y="1080" type="line"/>
      <point x="57" y="1044" type="line"/>
      <point x="264" y="1044" type="line"/>
      <point x="264" y="36" type="line"/>
      <point x="34" y="36" type="line"/>
    </contour>
    <contour>
      <point x="575" y="-480" type="curve"/>
      <point x="618" y="-480" type="line"/>
      <point x="668" y="-417"/>
      <point x="685" y="-358"/>
      <point x="685" y="-303" type="curve" smooth="yes"/>
      <point x="685" y="-250"/>
      <point x="659" y="-222"/>
      <point x="623" y="-222" type="curve" smooth="yes"/>
      <point x="591" y="-222"/>
      <point x="565" y="-243"/>
      <point x="565" y="-281" type="curve" smooth="yes"/>
      <point x="565" y="-321"/>
      <point x="600" y="-342"/>
      <point x="642" y="-334" type="curve"/>
      <point x="637" y="-381"/>
      <point x="618" y="-425"/>
    </contour>
  </outline>
</glyph>
<glyph name="Ncaron" format="2">
  <advance width="1703"/>
  <unicode hex="0147"/>
  <anchor x="852" y="0" name="bottom"/>
  <anchor x="868" y="1500" name="top"/>
  <outline>
    <contour>
      <point x="1381" y="0" type="line"/>
      <point x="1385" y="76" type="line"/>
      <point x="343" y="1500" type="line"/>
      <point x="339" y="1424" type="line"/>
    </contour>
    <contour>
      <point x="46" y="0" type="line"/>
      <point x="615" y="0" type="line"/>
      <point x="615" y="36" type="line"/>
      <point x="339" y="36" type="line"/>
      <point x="339" y="1424" type="line"/>
      <point x="343" y="1500" type="line"/>
      <point x="51" y="1500" type="line"/>
      <point x="51" y="1464" type="line"/>
      <point x="299" y="1464" type="line"/>
      <point x="299" y="36" type="line"/>
      <point x="46" y="36" type="line"/>
    </contour>
    <contour>
      <point x="1381" y="0" type="line"/>
      <point x="1425" y="0" type="line"/>
      <point x="1425" y="1464" type="line"/>
      <point x="1673" y="1464" type="line"/>
      <point x="1673" y="1500" type="line"/>
      <point x="1114" y="1500" type="line"/>
      <point x="1114" y="1464" type="line"/>
      <point x="1385" y="1464" type="line"/>
      <point x="1385" y="76" type="line"/>
      <point x="1375" y="76" type="line"/>
    </contour>
    <contour>
      <point x="851" y="1650" type="line"/>
      <point x="885" y="1650" type="line"/>
      <point x="1131" y="1960" type="line"/>
      <point x="1084" y="1960" type="line"/>
      <point x="857" y="1677" type="line"/>
      <point x="882" y="1677" type="line"/>
      <point x="654" y="1960" type="line"/>
      <point x="605" y="1960" type="line"/>
    </contour>
  </outline>
</glyph>
<glyph name="eng" format="2">
  <advance width="1242"/>
  <unicode hex="014B"/>
  <outline>
    <contour>
      <point x="986" y="774" type="curve" smooth="yes"/>
      <point x="986" y="-110" type="line"/>
      <point x="1034" y="-106" type="line"/>
      <point x="1034" y="774" type="line" smooth="yes"/>
      <point x="1034" y="998"/>
      <point x="900" y="1096"/>
      <point x="710" y="1096" type="curve" smooth="yes"/>
      <point x="483" y="1096"/>
      <point x="285" y="952"/>
      <point x="285" y="582" type="curve"/>
      <point x="312" y="582" type="line"/>
      <point x="312" y="908"/>
      <point x="503" y="1058"/>
      <point x="708" y="1058" type="curve" smooth="yes"/>
      <point x="881" y="1058"/>
      <point x="986" y="967"/>
    </contour>
    <contour>
      <point x="776" y="-420" type="curve"/>
      <point x="776" y="-382" type="line"/>
      <point x="664" y="-382"/>
      <point x="598" y="-318"/>
      <point x="599" y="-216" type="curve"/>
      <point x="580" y="-231" type="line"/>
      <point x="638" y="-236"/>
      <point x="684" y="-218"/>
      <point x="684" y="-171" type="curve" smooth="yes"/>
      <point x="684" y="-139"/>
      <point x="662" y="-119"/>
      <point x="630" y="-119" type="curve" smooth="yes"/>
      <point x="587" y="-119"/>
      <point x="554" y="-154"/>
      <point x="554" y="-211" type="curve" smooth="yes"/>
      <point x="554" y="-351"/>
      <point x="647" y="-420"/>
    </contour>
    <contour>
      <point x="776" y="-382" type="curve"/>
      <point x="776" y="-420" type="line"/>
      <point x="946" y="-420"/>
      <point x="1034" y="-313"/>
      <point x="1034" y="-106" type="curve"/>
      <point x="986" y="-110" type="line"/>
      <point x="986" y="-292"/>
      <point x="911" y="-382"/>
    </contour>
    <contour>
      <point x="34" y="0" type="line"/>
      <point x="593" y="0" type="line"/>
      <point x="593" y="36" type="line"/>
      <point x="312" y="36" type="line"/>
      <point x="312" y="740" type="line"/>
      <point x="308" y="740" type="line"/>
      <point x="308" y="1080" type="line"/>
      <point x="57" y="1080" type="line"/>
      <point x="57" y="1044" type="line"/>
      <point x="264" y="1044" type="line"/>
      <point x="264" y="36" type="line"/>
      <point x="34" y="36" type="line"/>
    </contour>
  </outline>
</glyph>
<glyph name="omacron" format="2">
  <advance width="1212"/>
  <unicode hex="014D"/>
  <anchor x="606" y="0" name="bottom"/>
  <anchor x="845" y="0" name="ogonek"/>
  <anchor x="606" y="1080" name="top"/>
  <anchor x="996" y="920" name="topright"/>
  <outline>
    <contour>
      <point x="606" y="-16" type="curve" smooth="yes"/>
      <point x="898" y="-16"/>
      <point x="1102" y="186"/>
      <point x="1102" y="540" type="curve" smooth="yes"/>
      <point x="1102" y="894"/>
      <point x="898" y="1096"/>
      <point x="606" y="1096" type="curve" smooth="yes"/>
      <point x="314" y="1096"/>
      <point x="110" y="894"/>
      <point x="110" y="540" type="curve" smooth="yes"/>
      <point x="110" y="186"/>
      <point x="314" y="-16"/>
    </contour>
    <contour>
      <point x="606" y="22" type="curve" smooth="yes"/>
      <point x="340" y="22"/>
      <point x="158" y="217"/>
      <point x="158" y="540" type="curve" smooth="yes"/>
      <point x="158" y="863"/>
      <point x="340" y="1058"/>
      <point x="606" y="1058" type="curve" smooth="yes"/>
      <point x="872" y="1058"/>
      <point x="1054" y="863"/>
      <point x="1054" y="540" type="curve" smooth="yes"/>
      <point x="1054" y="217"/>
      <point x="872" y="22"/>
    </contour>
    <contour>
      <point x="316" y="1280" type="line"/>
      <point x="896" y="1280" type="line"/>
      <point x="896" y="1320" type="line"/>
      <point x="316" y="1320" type="line"/>
    </contour>
  </outline>
</glyph>
<glyph name="obreve" format="2">
  <advance width="1212"/>
  <unicode hex="014F"/>
  <anchor x="606" y="0" name="bottom"/>
  <anchor x="845" y="0" name="ogonek"/>
  <anchor x="606" y="1480" name="side"/>
  <anchor x="606" y="1520" name="top"/>
  <anchor x="996" y="920" name="topright"/>
  <outline>
    <contour>
      <point x="606" y="-16" type="curve" smooth="yes"/>
      <point x="898" y="-16"/>
      <point x="1102" y="186"/>
      <point x="1102" y="540" type="curve" smooth="yes"/>
      <point x="1102" y="894"/>
      <point x="898" y="1096"/>
      <point x="606" y="1096" type="curve" smooth="yes"/>
      <point x="314" y="1096"/>
      <point x="110" y="894"/>
      <point x="110" y="540" type="curve" smooth="yes"/>
      <point x="110" y="186"/>
      <point x="314" y="-16"/>
    </contour>
    <contour>
      <point x="606" y="22" type="curve" smooth="yes"/>
      <point x="340" y="22"/>
      <point x="158" y="217"/>
      <point x="158" y="540" type="curve" smooth="yes"/>
      <point x="158" y="863"/>
      <point x="340" y="1058"/>
      <point x="606" y="1058" type="curve" smooth="yes"/>
      <point x="872" y="1058"/>
      <point x="1054" y="863"/>
      <point x="1054" y="540" type="curve" smooth="yes"/>
      <point x="1054" y="217"/>
      <point x="872" y="22"/>
    </contour>
    <contour>
      <point x="606" y="1220" type="curve" smooth="yes"/>
      <point x="788" y="1220"/>
      <point x="876" y="1354"/>
      <point x="876" y="1540" type="curve"/>
      <point x="838" y="1540" type="line"/>
      <point x="838" y="1386"/>
      <point x="760" y="1258"/>
      <point x="606" y="1258" type="curve" smooth="yes"/>
      <point x="452" y="1258"/>
      <point x="384" y="1386"/>
      <point x="384" y="1540" type="curve"/>
      <point x="346" y="1540" type="line"/>
      <point x="346" y="1354"/>
      <point x="424" y="1220"/>
    </contour>
  </outline>
</glyph>
<glyph name="Ohungarumlaut" format="2">
  <advance width="1720"/>
  <unicode hex="0150"/>
  <anchor x="860" y="0" name="bottom"/>
  <anchor x="1168" y="0" name="ogonek"/>
  <anchor x="860" y="1500" name="top"/>
  <anchor x="22" y="1500" name="topleft"/>
  <anchor x="1441" y="1260" name="topright"/>
  <outline>
    <contour>
      <point x="860" y="-24" type="curve" smooth="yes"/>
      <point x="1280" y="-24"/>
      <point x="1588" y="260"/>
      <point x="1588" y="750" type="curve" smooth="yes"/>
      <point x="1588" y="1240"/>
      <point x="1280" y="1524"/>
      <point x="860" y="1524" type="curve" smooth="yes"/>
      <point x="440" y="1524"/>
      <point x="132" y="1240"/>
      <point x="132" y="750" type="curve" smooth="yes"/>
      <point x="132" y="260"/>
      <point x="440" y="-24"/>
    </contour>
    <contour>
      <point x="860" y="14" type="curve" smooth="yes"/>
      <point x="452" y="14"/>
      <point x="180" y="304"/>
      <point x="180" y="750" type="curve" smooth="yes"/>
      <point x="180" y="1196"/>
      <point x="452" y="1486"/>
      <point x="860" y="1486" type="curve" smooth="yes"/>
      <point x="1268" y="1486"/>
      <point x="1540" y="1196"/>
      <point x="1540" y="750" type="curve" smooth="yes"/>
      <point x="1540" y="304"/>
      <point x="1268" y="14"/>
    </contour>
    <contour>
      <point x="968" y="1650" type="line"/>
      <point x="1017" y="1650" type="line"/>
      <point x="1276" y="1960" type="line"/>
      <point x="1218" y="1960" type="line"/>
    </contour>
    <contour>
      <point x="689" y="1650" type="line"/>
      <point x="737" y="1650" type="line"/>
      <point x="983" y="1960" type="line"/>
      <point x="927" y="1960" type="line"/>
    </contour>
  </outline>
</glyph>
<glyph name="ohungarumlaut" format="2">
  <advance width="1212"/>
  <unicode hex="0151"/>
  <anchor x="606" y="0" name="bottom"/>
  <anchor x="845" y="0" name="ogonek"/>
  <anchor x="606" y="1080" name="top"/>
  <anchor x="996" y="920" name="topright"/>
  <outline>
    <contour>
      <point x="606" y="-16" type="curve" smooth="yes"/>
      <point x="898" y="-16"/>
      <point x="1102" y="186"/>
      <point x="1102" y="540" type="curve" smooth="yes"/>
      <point x="1102" y="894"/>
      <point x="898" y="1096"/>
      <point x="606" y="1096" type="curve" smooth="yes"/>
      <point x="314" y="1096"/>
      <point x="110" y="894"/>
      <point x="110" y="540" type="curve" smooth="yes"/>
      <point x="110" y="186"/>
      <point x="314" y="-16"/>
    </contour>
    <contour>
      <point x="606" y="22" type="curve" smooth="yes"/>
      <point x="340" y="22"/>
      <point x="158" y="217"/>
      <point x="158" y="540" type="curve" smooth="yes"/>
      <point x="158" y="863"/>
      <point x="340" y="1058"/>
      <point x="606" y="1058" type="curve" smooth="yes"/>
      <point x="872" y="1058"/>
      <point x="1054" y="863"/>
      <point x="1054" y="540" type="curve" smooth="yes"/>
      <point x="1054" y="217"/>
      <point x="872" y="22"/>
    </contour>
    <contour>
      <point x="714" y="1230" type="line"/>
      <point x="763" y="1230" type="line"/>
      <point x="1022" y="1540" type="line"/>
      <point x="964" y="1540" type="line"/>
    </contour>
    <contour>
      <point x="435" y="1230" type="line"/>
      <point x="483" y="1230" type="line"/>
      <point x="729" y="1540" type="line"/>
      <point x="673" y="1540" type="line"/>
    </contour>
  </outline>
</glyph>
<glyph name="Scedilla" format="2">
  <advance width="1494"/>
  <unicode hex="015E"/>
  <anchor x="798" y="0" name="bottom"/>
  <anchor x="722" y="1500" name="top"/>
  <outline>
    <contour>
      <point x="852" y="-24" type="curve" smooth="yes"/>
      <point x="1137" y="-24"/>
      <point x="1320" y="106"/>
      <point x="1320" y="371" type="curve" smooth="yes"/>
      <point x="1320" y="638"/>
      <point x="1126" y="724"/>
      <point x="862" y="772" type="curve" smooth="yes"/>
      <point x="654" y="810" type="line" smooth="yes"/>
      <point x="425" y="852"/>
      <point x="256" y="922"/>
      <point x="256" y="1149" type="curve" smooth="yes"/>
      <point x="256" y="1370"/>
      <point x="408" y="1484"/>
      <point x="670" y="1484" type="curve" smooth="yes"/>
      <point x="926" y="1484"/>
      <point x="1140" y="1336"/>
      <point x="1234" y="990" type="curve"/>
      <point x="1267" y="990" type="line"/>
      <point x="1190" y="1374"/>
      <point x="942" y="1524"/>
      <point x="670" y="1524" type="curve" smooth="yes"/>
      <point x="392" y="1524"/>
      <point x="208" y="1406"/>
      <point x="208" y="1149" type="curve" smooth="yes"/>
      <point x="208" y="890"/>
      <point x="399" y="812"/>
      <point x="646" y="767" type="curve" smooth="yes"/>
      <point x="854" y="729" type="line" smooth="yes"/>
      <point x="1084" y="687"/>
      <point x="1272" y="614"/>
      <point x="1272" y="371" type="curve" smooth="yes"/>
      <point x="1272" y="142"/>
      <point x="1117" y="16"/>
      <point x="852" y="16" type="curve" smooth="yes"/>
      <point x="580" y="16"/>
      <point x="347" y="178"/>
      <point x="240" y="530" type="curve"/>
      <point x="206" y="530" type="line"/>
      <point x="300" y="139"/>
      <point x="560" y="-24"/>
    </contour>
    <contour>
      <point x="196" y="0" type="line"/>
      <point x="236" y="0" type="line"/>
      <point x="236" y="452" type="line"/>
      <point x="206" y="530" type="line"/>
      <point x="196" y="530" type="line"/>
    </contour>
    <contour>
      <point x="1267" y="990" type="line"/>
      <point x="1278" y="990" type="line"/>
      <point x="1278" y="1500" type="line"/>
      <point x="1238" y="1500" type="line"/>
      <point x="1238" y="1064" type="line"/>
    </contour>
    <contour>
      <point x="795" y="-415" type="curve" smooth="yes"/>
      <point x="909" y="-415"/>
      <point x="980" y="-364"/>
      <point x="980" y="-270" type="curve" smooth="yes"/>
      <point x="980" y="-174"/>
      <point x="898" y="-146"/>
      <point x="829" y="-146" type="curve" smooth="yes"/>
      <point x="796" y="-146" type="line"/>
      <point x="820" y="10" type="line"/>
      <point x="776" y="10" type="line"/>
      <point x="745" y="-186" type="line"/>
      <point x="825" y="-186" type="line" smooth="yes"/>
      <point x="887" y="-186"/>
      <point x="932" y="-213"/>
      <point x="932" y="-271" type="curve" smooth="yes"/>
      <point x="932" y="-335"/>
      <point x="893" y="-375"/>
      <point x="795" y="-375" type="curve" smooth="yes"/>
      <point x="740" y="-375"/>
      <point x="686" y="-357"/>
      <point x="644" y="-333" type="curve"/>
      <point x="626" y="-371" type="line"/>
      <point x="671" y="-397"/>
      <point x="730" y="-415"/>
    </contour>
  </outline>
</glyph>
<glyph name="scedilla" format="2">
  <advance width="1144"/>
  <unicode hex="015F"/>
  <anchor x="601" y="0" name="bottom"/>
  <anchor x="559" y="1080" name="top"/>
  <outline>
    <contour>
      <point x="644" y="-16" type="curve" smooth="yes"/>
      <point x="856" y="-16"/>
      <point x="992" y="86"/>
      <point x="992" y="263" type="curve" smooth="yes"/>
      <point x="992" y="446"/>
      <point x="831" y="512"/>
      <point x="656" y="553" type="curve" smooth="yes"/>
      <point x="512" y="587" type="line" smooth="yes"/>
      <point x="368" y="621"/>
      <point x="220" y="669"/>
      <point x="220" y="833" type="curve" smooth="yes"/>
      <point x="220" y="980"/>
      <point x="330" y="1058"/>
      <point x="504" y="1058" type="curve" smooth="yes"/>
      <point x="668" y="1058"/>
      <point x="848" y="961"/>
      <point x="902" y="700" type="curve"/>
      <point x="938" y="700" type="line"/>
      <point x="890" y="983"/>
      <point x="704" y="1096"/>
      <point x="504" y="1096" type="curve" smooth="yes"/>
      <point x="302" y="1096"/>
      <point x="172" y="1000"/>
      <point x="172" y="833" type="curve" smooth="yes"/>
      <point x="172" y="661"/>
      <point x="311" y="592"/>
      <point x="502" y="548" type="curve" smooth="yes"/>
      <point x="648" y="514" type="line" smooth="yes"/>
      <point x="800" y="479"/>
      <point x="944" y="419"/>
      <point x="944" y="263" type="curve" smooth="yes"/>
      <point x="944" y="109"/>
      <point x="832" y="22"/>
      <point x="640" y="22" type="curve" smooth="yes"/>
      <point x="454" y="22"/>
      <point x="286" y="123"/>
      <point x="216" y="400" type="curve"/>
      <point x="180" y="400" type="line"/>
      <point x="239" y="98"/>
      <point x="430" y="-16"/>
    </contour>
    <contour>
      <point x="172" y="0" type="line"/>
      <point x="212" y="0" type="line"/>
      <point x="212" y="368" type="line"/>
      <point x="180" y="400" type="line"/>
      <point x="172" y="400" type="line"/>
    </contour>
    <contour>
      <point x="938" y="700" type="line"/>
      <point x="946" y="700" type="line"/>
      <point x="946" y="1080" type="line"/>
      <point x="906" y="1080" type="line"/>
      <point x="906" y="732" type="line"/>
    </contour>
    <contour>
      <point x="598" y="-415" type="curve" smooth="yes"/>
      <point x="712" y="-415"/>
      <point x="783" y="-364"/>
      <point x="783" y="-270" type="curve" smooth="yes"/>
      <point x="783" y="-174"/>
      <point x="701" y="-146"/>
      <point x="632" y="-146" type="curve" smooth="yes"/>
      <point x="599" y="-146" type="line"/>
      <point x="623" y="10" type="line"/>
      <point x="579" y="10" type="line"/>
      <point x="548" y="-186" type="line"/>
      <point x="628" y="-186" type="line" smooth="yes"/>
      <point x="690" y="-186"/>
      <point x="735" y="-213"/>
      <point x="735" y="-271" type="curve" smooth="yes"/>
      <point x="735" y="-335"/>
      <point x="696" y="-375"/>
      <point x="598" y="-375" type="curve" smooth="yes"/>
      <point x="543" y="-375"/>
      <point x="489" y="-357"/>
      <point x="447" y="-333" type="curve"/>
      <point x="429" y="-371" type="line"/>
      <point x="474" y="-397"/>
      <point x="533" y="-415"/>
    </contour>
  </outline>
</glyph>
<glyph name="Tcedilla" format="2">
  <advance width="1600"/>
  <unicode hex="0162"/>
  <anchor x="800" y="0" name="bottom"/>
  <anchor x="800" y="730" name="center"/>
  <anchor x="800" y="1500" name="top"/>
  <outline>
    <contour>
      <point x="408" y="0" type="line"/>
      <point x="1192" y="0" type="line"/>
      <point x="1192" y="36" type="line"/>
      <point x="824" y="36" type="line"/>
      <point x="824" y="1500" type="line"/>
      <point x="776" y="1500" type="line"/>
      <point x="776" y="36" type="line"/>
      <point x="408" y="36" type="line"/>
    </contour>
    <contour>
      <point x="116" y="980" type="line"/>
      <point x="156" y="980" type="line"/>
      <point x="156" y="1332" type="line" smooth="yes"/>
      <point x="156" y="1436"/>
      <point x="182" y="1462"/>
      <point x="282" y="1462" type="curve" smooth="yes"/>
      <point x="116" y="1462" type="line"/>
    </contour>
    <contour>
      <point x="116" y="1462" type="line"/>
      <point x="1484" y="1462" type="line"/>
      <point x="1484" y="1500" type="line"/>
      <point x="116" y="1500" type="line"/>
    </contour>
    <contour>
      <point x="1444" y="1332" type="curve" smooth="yes"/>
      <point x="1444" y="980" type="line"/>
      <point x="1484" y="980" type="line"/>
      <point x="1484" y="1462" type="line"/>
      <point x="1318" y="1462" type="line" smooth="yes"/>
      <point x="1418" y="1462"/>
      <point x="1444" y="1436"/>
    </contour>
    <contour>
      <point x="797" y="-415" type="curve" smooth="yes"/>
      <point x="911" y="-415"/>
      <point x="982" y="-364"/>
      <point x="982" y="-270" type="curve" smooth="yes"/>
      <point x="982" y="-174"/>
      <point x="900" y="-146"/>
      <point x="831" y="-146" type="curve" smooth="yes"/>
      <point x="798" y="-146" type="line"/>
      <point x="822" y="10" type="line"/>
      <point x="778" y="10" type="line"/>
      <point x="747" y="-186" type="line"/>
      <point x="827" y="-186" type="line" smooth="yes"/>
      <point x="889" y="-186"/>
      <point x="934" y="-213"/>
      <point x="934" y="-271" type="curve" smooth="yes"/>
      <point x="934" y="-335"/>
      <point x="895" y="-375"/>
      <point x="797" y="-375" type="curve" smooth="yes"/>
      <point x="742" y="-375"/>
      <point x="688" y="-357"/>
      <point x="646" y="-333" type="curve"/>
      <point x="628" y="-371" type="line"/>
      <point x="673" y="-397"/>
      <point x="732" y="-415"/>
    </contour>
  </outline>
</glyph>
<glyph name="tcedilla" format="2">
  <advance width="952"/>
  <unicode hex="0163"/>
  <anchor x="460" y="0" name="bottom"/>
  <anchor x="460" y="540" name="center"/>
  <anchor x="460" y="1080" name="top"/>
  <anchor x="362" y="1600" name="topright"/>
  <outline>
    <contour>
      <point x="526" y="-20" type="curve" smooth="yes"/>
      <point x="690" y="-20"/>
      <point x="778" y="85"/>
      <point x="778" y="282" type="curve" smooth="yes"/>
      <point x="778" y="660" type="line"/>
      <point x="738" y="660" type="line"/>
      <point x="738" y="282" type="line" smooth="yes"/>
      <point x="738" y="111"/>
      <point x="668" y="20"/>
      <point x="530" y="20" type="curve" smooth="yes"/>
      <point x="392" y="20"/>
      <point x="322" y="111"/>
      <point x="322" y="282" type="curve" smooth="yes"/>
      <point x="322" y="1380" type="line"/>
      <point x="284" y="1380" type="line"/>
      <point x="284" y="1244" type="line" smooth="yes"/>
      <point x="284" y="1122"/>
      <point x="242" y="1080"/>
      <point x="124" y="1080" type="curve" smooth="yes"/>
      <point x="-6" y="1080" type="line"/>
      <point x="-6" y="1042" type="line"/>
      <point x="274" y="1042" type="line"/>
      <point x="274" y="282" type="line" smooth="yes"/>
      <point x="274" y="82"/>
      <point x="362" y="-20"/>
    </contour>
    <contour>
      <point x="322" y="1042" type="line"/>
      <point x="872" y="1042" type="line"/>
      <point x="872" y="1080" type="line"/>
      <point x="322" y="1080" type="line"/>
    </contour>
    <contour>
      <point x="457" y="-415" type="curve" smooth="yes"/>
      <point x="571" y="-415"/>
      <point x="642" y="-364"/>
      <point x="642" y="-270" type="curve" smooth="yes"/>
      <point x="642" y="-174"/>
      <point x="560" y="-146"/>
      <point x="491" y="-146" type="curve" smooth="yes"/>
      <point x="458" y="-146" type="line"/>
      <point x="482" y="10" type="line"/>
      <point x="438" y="10" type="line"/>
      <point x="407" y="-186" type="line"/>
      <point x="487" y="-186" type="line" smooth="yes"/>
      <point x="549" y="-186"/>
      <point x="594" y="-213"/>
      <point x="594" y="-271" type="curve" smooth="yes"/>
      <point x="594" y="-335"/>
      <point x="555" y="-375"/>
      <point x="457" y="-375" type="curve" smooth="yes"/>
      <point x="402" y="-375"/>
      <point x="348" y="-357"/>
      <point x="306" y="-333" type="curve"/>
      <point x="288" y="-371" type="line"/>
      <point x="333" y="-397"/>
      <point x="392" y="-415"/>
    </contour>
  </outline>
</glyph>
